<svg width="100" height="100" viewBox="0 0 100 100" fill="none" xmlns="http://www.w3.org/2000/svg">
<path d="M28.9161 67.4019L46.5758 50.0345L28.9161 32.6672L11.2564 50.0346L28.9161 67.4019Z" fill="#932279"/>
<path d="M32.859 28.9996L50.2541 46.4769L67.6491 28.9996L50.2541 11.5224L32.859 28.9996Z" fill="#EFA724"/>
<path d="M50.0293 88.4905L67.6891 71.1231L50.0292 53.7556L32.3695 71.123L50.0293 88.4905Z" fill="#9CCD2A"/>
<path d="M53.9719 50.0881L71.367 67.5653L88.762 50.088L71.367 32.6108L53.9719 50.0881Z" fill="#262577"/>
<path d="M77.2943 53.4752H53.7144V77.1966H77.2943V53.4752Z" fill="#EFA724"/>
<path d="M77.4688 22.8442H53.8094V46.4462H77.4688V22.8442Z" fill="#932279"/>
<path d="M46.6757 53.476H22.0434V78.074H46.6757V53.476Z" fill="#262577"/>
<path d="M46.6746 21.8465H22.0414V46.3025H46.6746V21.8465Z" fill="#9CCD2A"/>
<path d="M50.2536 10.2768L39.6117 20.9688H21.1601V21.8468V39.0592L10 50.0345L21.163 61.0127V78.9538H39.0757L50.0262 89.7232L60.9768 78.9538H79.0752V61.0634L90 50.0871L79.2257 39.262V21.1101H61.036L50.2536 10.2768ZM50.2528 12.7679L58.5557 21.1101H52.9212V21.9911V42.5496L50.2528 45.2306L47.552 42.5169V20.9688H42.0903L50.2528 12.7679ZM22.9187 22.7249H37.8638L31.6167 29.0014L45.7932 43.2449V45.4233H43.1383L28.9135 31.4341L22.9187 37.3297V22.7249ZM40.3424 22.7249H45.7932V40.7498L34.0977 28.9991L40.3424 22.7249ZM54.683 22.8692H60.3067L66.408 28.9993L54.683 40.7793V22.8692ZM62.7869 22.8692H77.4672V37.4951L71.3652 31.3644L57.2288 45.5676H54.683V43.271L68.8879 28.999L62.7869 22.8692ZM71.3655 33.8559L77.4672 39.9865V45.5676H59.7087L71.3655 33.8559ZM28.9159 33.9007L40.6323 45.4232H22.9187V39.7986L28.9159 33.9007ZM21.1601 41.5278V47.1795H42.4181L45.3211 50.0344L42.714 52.5985H21.163V53.4767V58.5439L12.5104 50.0344L21.1601 41.5278ZM79.2257 41.7534L87.5204 50.0872L79.0752 58.5722V52.5954H57.707L55.2103 50.087L57.9606 47.3239H79.2257V41.7534ZM47.552 45.0119L50.2513 47.7239L50.8734 47.0989L52.9212 45.0412V47.3239H55.4809L52.7307 50.087L55.2274 52.5954H52.834V53.4767V55.2833L50.0265 52.5222L47.5551 54.9529V52.5985H45.2199L47.8271 50.0344L47.2007 49.4184L44.9242 47.1795H47.552V45.0119ZM22.9218 54.3546H40.9283L28.9159 66.1682L22.9218 60.2734V54.3546ZM43.4341 54.3546H45.7932V56.6854L31.1129 71.1227L37.2869 77.1945H22.9218V62.7424L28.9135 68.6349L43.4341 54.3546ZM54.5927 54.3546H56.9782L71.3655 68.8096L71.9852 68.1869L77.3165 62.8306V77.1976H62.7624L68.9397 71.1227L68.3134 70.5064L54.5927 57.0128V54.3546ZM59.4578 54.3546H77.3165V60.3394L71.3655 66.3185L59.4578 54.3546ZM50.0286 54.989L52.834 57.7479V78.9537H58.4711L50.0286 87.2564L41.586 78.9537H47.5551V57.4216L50.0286 54.989ZM45.7932 59.1542V77.1945H39.7973L33.6233 71.1227L45.7932 59.1542ZM54.5927 59.4777L66.4338 71.1227L60.2567 77.1976H54.5927V59.4777Z" fill="white"/>
</svg>
