<svg width="100" height="100" viewBox="0 0 100 100" fill="none" xmlns="http://www.w3.org/2000/svg">
<g clip-path="url(#clip0_18_193)">
<path d="M56.4573 52.5516C55.0866 52.5723 56.7167 53.3201 58.5061 53.6197C59.0004 53.1997 59.4489 52.7748 59.8486 52.3615C58.7342 52.6586 57.6 52.6653 56.4573 52.5516Z" fill="#A80030"/>
<path d="M63.8143 50.5564C64.6305 49.3307 65.2255 47.9887 65.4352 46.6011C65.2522 47.5903 64.7586 48.4443 64.2941 49.3456C61.7319 51.1009 64.0531 48.3032 64.2926 47.2401C61.5374 51.0129 63.9142 49.5025 63.8143 50.5564Z" fill="#A80030"/>
<path d="M66.5298 42.8681C66.6953 40.1825 66.0439 41.0315 65.825 42.0565C66.0805 42.2009 66.2827 43.9495 66.5298 42.8681Z" fill="#A80030"/>
<path d="M51.2597 6.16107C51.9912 6.30382 52.8402 6.41337 52.7212 6.60342C53.5214 6.41254 53.7029 6.23659 51.2597 6.16107Z" fill="#A80030"/>
<path d="M52.7212 6.60339L52.204 6.71958L52.6854 6.67311L52.7212 6.60339Z" fill="#A80030"/>
<path d="M75.5314 43.8865C75.613 46.2982 74.883 47.4684 74.2247 49.5398L73.0401 50.1838C72.0706 52.2321 73.134 51.4843 72.4398 53.1134C70.9265 54.5774 67.8471 57.6946 66.8616 57.9792C66.1423 57.9618 67.349 57.0555 67.5069 56.7003C65.481 58.2141 65.8815 58.9726 62.783 59.8922L62.6923 59.6731C55.0507 63.5845 44.4359 55.8331 44.5755 45.2566C44.4939 45.928 44.3436 45.7604 44.1743 46.0318C43.7799 40.59 46.484 35.1242 51.0446 32.8926C55.5054 30.49 60.735 31.4759 63.9303 34.7159C62.1751 32.2146 58.6816 29.563 54.5412 29.8111C50.4855 29.8808 46.6914 32.6851 45.4252 35.7292C43.3474 37.1525 43.1064 41.2158 42.201 41.9594C40.9828 51.7001 44.4923 55.9086 50.4291 60.859C51.3635 61.5445 50.6922 61.6483 50.8188 62.1703C48.8463 61.1653 47.04 59.6482 45.5549 57.7908C46.3429 59.0457 47.1934 60.2656 48.2925 61.2242C46.4329 60.5387 43.9485 56.3211 43.2231 56.1493C46.429 62.3944 56.23 67.1016 61.362 64.7663C58.9875 64.8617 55.9707 64.8194 53.3025 63.7463C52.1819 63.1189 50.6579 61.8192 50.9302 61.5761C57.9341 64.4227 65.169 63.7322 71.2293 58.4465C72.7709 57.1402 74.4551 54.9177 74.9417 54.887C74.2087 56.0862 75.0668 55.4638 74.5039 56.5227C76.0401 53.8272 73.8365 55.4256 76.092 51.8677L76.925 53.1159C76.6153 50.8785 79.4788 48.1613 79.1881 44.6226C79.8449 43.5404 79.9212 45.787 79.224 48.2767C80.1912 45.5148 79.4788 45.0707 79.7274 42.7918C79.9959 43.5578 80.3483 44.372 80.5291 45.1803C79.8991 42.5113 81.1759 40.6855 81.4917 39.1344C81.1805 38.9842 80.5192 40.3145 80.3682 37.1617C80.3903 35.7923 80.7183 36.4438 80.8449 36.1068C80.5978 35.9525 79.9494 34.9026 79.555 32.8893C79.8411 32.4162 80.3193 34.1159 80.7084 34.1856C80.4582 32.5847 80.0272 31.3639 80.0097 30.1356C78.8731 27.5513 79.6077 30.48 78.6855 29.026C77.4757 24.9204 79.6893 28.0733 79.8388 26.2076C81.6725 29.0982 82.7183 33.5781 83.1981 35.4338C82.8319 33.1714 82.24 30.9796 81.5177 28.8592C82.0745 29.114 80.6206 24.2042 82.2415 27.4558C80.51 20.5244 74.8311 14.0477 69.6069 11.0086C70.2461 11.6451 71.0531 12.4443 70.7632 12.5697C68.1652 10.8866 68.6221 10.7555 68.2499 10.0442C66.1332 9.10726 65.9943 10.1198 64.5924 10.0459C60.603 7.74371 59.8341 7.98854 56.1629 6.54615L56.3299 7.39515C53.6869 6.43743 53.2506 7.75865 50.394 7.39847C50.2201 7.25074 51.3093 6.864 52.2056 6.72209C49.6503 7.08891 49.77 6.17435 47.2696 6.82334C47.886 6.35278 48.5374 6.04156 49.1949 5.64154C47.111 5.77931 44.22 6.9611 45.1125 5.88637C41.7135 7.53623 35.6769 9.85252 32.2894 13.3083L32.1826 12.534C30.6304 14.5615 25.4137 18.589 24.998 21.2149L24.583 21.3203C23.7753 22.8083 23.2527 24.4947 22.612 26.0259C21.5556 27.9845 21.0636 26.7794 21.2138 27.0865C19.136 31.6701 18.104 35.5218 17.2123 38.6804C17.8477 39.7137 17.2276 44.9006 17.4678 49.0518C16.4243 69.554 30.6929 89.4603 46.2895 94.0564C48.5755 94.9461 51.9752 94.912 54.8669 95.0033C51.455 93.9419 51.0141 94.4407 47.6907 93.18C45.2933 91.9517 44.7677 90.5492 43.0698 88.9458L43.7418 90.238C40.4115 88.9558 41.8051 88.6512 39.0957 87.7175L39.8135 86.6976C38.7341 86.6088 36.9546 84.7182 36.4679 83.6717L35.2871 83.7223C33.8684 81.8177 33.1124 80.445 33.1674 79.3819L32.786 80.1213C32.3535 79.3138 27.5663 72.9783 30.0499 74.453C29.5884 73.9941 28.9751 73.7061 28.31 72.3915L28.8157 71.7624C27.6204 70.0893 26.6158 67.9448 26.6921 67.2303C27.3298 68.1672 27.7722 68.3424 28.2101 68.5025C25.1917 60.3544 25.0224 68.0536 22.7363 60.2084L23.2199 60.166C22.8492 59.5586 22.6242 58.8988 22.326 58.2514L22.5365 55.9692C20.3633 53.2354 21.9286 44.3454 22.2421 39.4697C22.4595 37.487 24.056 35.3765 25.2703 32.0668L24.5304 31.9282C25.9446 29.2443 32.6052 21.1493 35.6899 21.5659C37.1842 19.5235 35.3932 21.5585 35.101 21.0439C38.3832 17.3483 39.4153 18.433 41.6304 17.7682C44.0194 16.2254 39.58 18.3699 40.7128 17.1798C44.8425 16.0321 43.6396 14.5706 49.0271 13.988C49.5953 14.3399 47.7082 14.5316 47.2345 14.988C50.6754 13.1564 58.1232 13.573 62.9608 16.0047C68.5741 18.8587 74.8807 27.2957 75.1294 35.2338L75.4124 35.3168C75.269 38.4721 75.8563 42.1212 74.8388 45.4733L75.5314 43.8865Z" fill="#A80030"/>
<path d="M41.4962 54.5989L41.3039 55.6446C42.2048 56.9758 42.9195 58.4182 44.0698 59.4589C43.2422 57.7012 42.6274 56.975 41.4962 54.5989Z" fill="#A80030"/>
<path d="M43.6258 54.5077C43.1491 53.9342 42.8669 53.2437 42.5511 52.5557C42.8531 53.7649 43.4717 54.804 44.0476 55.8604L43.6258 54.5077Z" fill="#A80030"/>
<path d="M81.3102 45.5961L81.1088 46.1455C80.7396 48.9987 79.9425 51.8221 78.7206 54.4396C80.0707 51.6777 80.9441 48.6568 81.3102 45.5961Z" fill="#A80030"/>
<path d="M51.5305 5.44566C52.4573 5.07635 53.8089 5.24316 54.7922 5C53.5107 5.11702 52.2353 5.18673 50.976 5.3635L51.5305 5.44566Z" fill="#A80030"/>
<path d="M18.9942 24.2698C19.2077 26.4209 17.5067 27.2558 19.371 25.8375C20.3702 23.3884 18.9804 25.1611 18.9942 24.2698Z" fill="#A80030"/>
<path d="M16.8034 34.2254C17.2329 32.7913 17.3107 31.9299 17.4747 31.1C16.2878 32.7507 16.9285 33.1026 16.8034 34.2254Z" fill="#A80030"/>
</g>
<defs>
<clipPath id="clip0_18_193">
<rect width="66.3931" height="90" fill="white" transform="translate(16.8034 5)"/>
</clipPath>
</defs>
</svg>
