<svg width="100" height="100" viewBox="0 0 100 100" fill="none" xmlns="http://www.w3.org/2000/svg">
<g clip-path="url(#clip0_18_189)">
<path opacity="0.2" d="M32.9199 47.3286C31.6352 47.3603 30.2799 47.4944 28.8905 47.7238C27.4328 47.9662 25.887 48.3238 24.2987 48.785C22.6423 49.265 20.881 49.8803 19.0693 50.6086L19.0563 50.6109C18.9952 50.6368 18.9516 50.6874 18.9305 50.7544L11.7093 75.2203C11.6693 75.3497 11.741 75.4838 11.8234 75.5521L12.3069 75.9121C12.3069 75.9121 12.3151 75.9168 12.3222 75.925C12.4387 76.0003 12.5563 75.9991 12.6034 75.9921C12.6057 75.9921 12.6187 75.9874 12.6187 75.9874C15.3234 74.9721 17.734 74.2438 19.9905 73.7568C22.1893 73.2862 24.1693 73.0603 26.0446 73.0697C27.6128 73.0815 29.087 73.2415 30.554 73.5603C31.8775 73.8509 33.1646 74.265 34.487 74.8286C36.3411 75.6368 38.0411 76.6509 39.3152 77.445L39.327 77.4521V77.4544C39.367 77.4756 39.4846 77.5285 39.5975 77.4791C39.5975 77.4791 39.9164 77.298 40.0117 77.2403L40.0446 77.2168C40.1093 77.1733 40.1975 77.1133 40.2234 77.0027L40.2281 76.978C40.2281 76.978 40.2305 76.9815 40.2317 76.9838C40.2458 76.938 47.4187 53.158 47.4187 53.158L47.6658 52.3415C47.6693 52.3203 47.6728 52.298 47.6728 52.2744C47.6728 52.1815 47.6317 52.0944 47.5623 52.045C47.5599 52.045 47.554 52.0438 47.554 52.0438C44.494 50.0368 41.0364 48.0968 36.4787 47.5086C35.3317 47.358 34.1364 47.3015 32.9199 47.3286Z" fill="url(#paint0_radial_18_189)"/>
<path opacity="0.2" d="M50.874 54.5756C50.7905 54.5803 50.7046 54.6121 50.5752 54.6909C50.5752 54.6933 50.574 54.6944 50.574 54.6944H50.5705L50.5693 54.698C50.5364 54.7215 50.4528 54.7756 50.3576 54.8497C50.1634 54.9968 50.0446 55.1168 50.0117 55.1968C50.0117 55.2039 50.0034 55.2191 50.0034 55.2191L50.0046 55.2133L50.0034 55.2215V55.2239L42.774 79.4662C42.6493 79.8297 42.9823 80.0286 43.0199 80.0474C44.8752 81.2521 46.6434 82.2027 48.427 82.945C49.4717 83.3839 50.5399 83.7544 51.6058 84.0497C52.7599 84.3733 53.9458 84.6239 55.1352 84.7909C56.4105 84.9662 57.7258 85.0568 59.0446 85.0544C60.447 85.0474 61.8999 84.9368 63.3599 84.7286C64.9023 84.5062 66.4999 84.1639 68.1093 83.7097C69.8011 83.2356 71.5517 82.6227 73.3187 81.8909C73.3211 81.8909 73.3293 81.885 73.3293 81.885C73.3787 81.8544 73.4964 81.7827 73.5552 81.6639C73.5552 81.6615 80.6152 57.8156 80.6175 57.8086L80.6152 57.8039V57.8015C80.6246 57.7674 80.6258 57.7297 80.6258 57.698C80.6258 57.5027 80.4999 57.3827 80.4987 57.3803C80.4987 57.3827 79.907 56.925 79.907 56.925L79.9058 56.9203C79.867 56.8792 79.7634 56.8144 79.5105 56.8497C77.6987 57.4439 75.9505 57.9356 74.3058 58.3215C72.7199 58.6897 71.1834 58.9674 69.7352 59.1439C67.0046 59.478 64.534 59.478 62.1846 59.1439C60.1152 58.8497 58.1587 58.2933 56.2034 57.4462C54.6234 56.7615 53.014 55.8744 51.1387 54.6497L51.1328 54.6474H51.1352C51.0176 54.5968 50.9446 54.5756 50.874 54.5756Z" fill="url(#paint1_radial_18_189)"/>
<path opacity="0.2" d="M59.134 25.051L59.0105 25.1369C58.7622 25.3169 58.614 25.4557 58.5728 25.551L58.5716 25.5533L58.5705 25.5545C58.5705 25.558 58.5458 25.6369 58.5458 25.6369C58.5458 25.6416 51.2928 49.9356 51.2928 49.9356C51.2728 49.9945 51.2646 50.0498 51.2646 50.0956C51.2646 50.3627 51.5105 50.498 51.5152 50.5003C52.0905 50.8721 52.6846 51.2309 53.2811 51.5615C56.0646 53.2439 58.8152 54.3603 61.6905 54.9733C63.3564 55.3345 65.0881 55.5239 66.8387 55.538C68.7305 55.558 70.7116 55.3709 72.7211 54.9909C75.7034 54.5333 78.734 53.6333 81.7246 52.3227C81.7246 52.3203 81.7328 52.318 81.7328 52.318C81.7893 52.2909 81.9116 52.2098 81.9752 52.0945C81.9752 52.0886 89.3505 27.5733 89.3505 27.5733C89.3646 27.5286 89.3716 27.4886 89.3716 27.4474C89.3716 27.2368 89.1869 27.0603 89.0081 26.9074C88.9093 26.8156 88.7728 26.6992 88.6775 26.6592C88.4775 26.5674 88.2728 26.5968 88.2116 26.6333L88.2069 26.638L88.2058 26.6392C86.3999 27.3603 84.6458 27.9651 82.9905 28.4403C81.4069 28.8933 79.8634 29.2392 78.4046 29.4686C77.0164 29.6874 75.6587 29.8062 74.3669 29.8251C73.1505 29.8415 71.9505 29.7709 70.8022 29.6098C68.7411 29.3203 66.7669 28.7462 64.774 27.8533C62.794 26.9674 61.0187 25.8627 59.6916 24.9992C59.4646 24.9004 59.3646 24.9074 59.134 25.051Z" fill="url(#paint2_radial_18_189)"/>
<path opacity="0.2" d="M35.6586 18.2533C33.1562 18.778 30.4221 19.6321 27.5339 20.7886C27.508 20.7992 27.4268 20.8297 27.3998 20.9344L27.0245 22.185L20.0704 45.4791C20.0622 45.5038 20.0598 45.5321 20.0598 45.5615C20.0598 45.6744 20.1104 45.8144 20.1669 45.8556C20.1775 45.8638 20.1916 45.8697 20.1998 45.8744L20.201 45.8768L20.2492 45.9121L20.6775 46.2368L20.6904 46.2438C20.7045 46.2544 20.7198 46.265 20.7292 46.2709C20.8175 46.305 20.8398 46.305 20.8622 46.3027H20.8704C20.8704 46.3003 20.8739 46.3003 20.8739 46.3003L20.8869 46.2956C20.9504 46.2909 21.0986 46.2262 21.0998 46.2238C27.4339 43.7921 32.4998 42.9062 37.0421 43.4462C38.9798 43.6756 40.8539 44.1721 42.7739 44.9603C44.3021 45.5897 45.8809 46.4121 47.7351 47.5497L47.7609 47.5615H47.7668L47.7892 47.5744H47.7927L47.7986 47.578L47.8057 47.5827H47.8033C47.8033 47.5827 47.9504 47.6544 48.0715 47.6215L48.528 47.4215L48.5492 47.4074C48.6092 47.3638 48.7033 47.2991 48.7304 47.1838L53.3045 31.8886L55.7621 23.6697L55.9268 23.1274L55.928 23.1156L56.0468 22.7168C56.0504 22.705 56.0515 22.6909 56.0539 22.6756C56.0539 22.665 56.0539 22.6544 56.0539 22.6427C56.0539 22.5497 56.0151 22.4709 55.9468 22.425C54.4939 21.4721 53.3409 20.7839 52.208 20.198L52.1315 20.1592C48.8621 18.4721 45.7151 17.6533 42.2292 17.5827C40.1868 17.5415 37.9751 17.765 35.6586 18.2533Z" fill="url(#paint3_radial_18_189)"/>
<path d="M17.3692 48.0603C32.1128 41.9874 39.2493 45.2274 45.6399 49.5662L38.2587 74.9344C31.8446 70.6215 24.8705 67.0685 10.0681 73.1909L17.2822 48.0968L17.3692 48.0603Z" fill="url(#paint4_radial_18_189)"/>
<path d="M10.6116 73.9345C10.6598 73.9415 10.7445 73.8956 10.7445 73.8956C10.8504 73.9697 10.9351 74.018 10.9351 74.018C10.9351 74.018 10.768 74.0568 10.6116 73.9345Z" fill="url(#paint5_radial_18_189)"/>
<path d="M38.0022 75.2203C38.0022 75.2203 38.0987 75.3133 38.214 75.2862L37.7728 75.5486C37.6317 75.6133 37.4822 75.5109 37.4822 75.5109L38.0022 75.2203Z" fill="#152469"/>
<path d="M10.754 73.8992C10.754 73.8992 10.6657 73.9486 10.6175 73.9415L10.1304 73.5674L10.1222 73.558C10.1928 73.5768 10.2704 73.5674 10.2998 73.5627L10.754 73.8992Z" fill="url(#paint6_radial_18_189)"/>
<path d="M38.2527 74.8674C38.3021 74.8968 38.3539 74.9427 38.4021 75.0415C38.3762 75.1756 38.2704 75.2415 38.201 75.2874C38.1115 75.3062 37.9857 75.2262 37.9857 75.2262C38.0586 75.1674 38.1762 75.0815 38.2527 74.8674Z" fill="#152469"/>
<path d="M10.1304 73.5674C10.0363 73.4874 9.97277 73.3462 10.0116 73.2203L10.0975 73.1815C10.0634 73.3721 10.1951 73.5039 10.2963 73.5674C10.2963 73.5674 10.2269 73.598 10.1304 73.5674Z" fill="#172E65"/>
<path d="M10.7234 73.8768C24.8058 68.3756 31.1117 71.3745 37.5281 75.4968C33.6858 73.0215 29.7375 71.0556 24.2846 71.0145C20.6328 70.9945 16.3199 71.9192 10.921 74.0168C10.921 74.0168 10.814 73.9733 10.7234 73.8768Z" fill="url(#paint7_radial_18_189)"/>
<path d="M37.9987 75.2403C31.5834 70.9227 24.9374 67.6297 10.308 73.5744C10.2104 73.5133 10.0539 73.3639 10.0939 73.1815C24.9433 66.8627 31.8458 70.5533 38.2599 74.8686C38.1928 75.1003 38.0716 75.1839 37.9987 75.2403Z" fill="#094B8F"/>
<path d="M38.0081 75.2403L37.4869 75.5097C31.0763 71.3874 24.5857 68.5309 10.7539 73.9003L10.2951 73.5686C24.9281 67.6227 31.5893 70.9227 38.0081 75.2403Z" fill="#094B8F"/>
<path d="M38.2491 74.8744L45.6397 49.5638C45.7209 49.6168 45.7644 49.6603 45.8068 49.7062L38.4021 75.0556C38.3597 74.9415 38.2491 74.8744 38.2491 74.8744Z" fill="url(#paint8_linear_18_189)"/>
<path d="M45.6869 49.3909L45.6987 49.3933C45.7928 49.4615 45.8305 49.5898 45.8069 49.7074L45.8022 49.7239C45.7599 49.6803 45.7175 49.6333 45.6375 49.5792L45.6869 49.3909Z" fill="url(#paint9_radial_18_189)"/>
<path opacity="0.66" d="M17.1974 48.0732L17.2833 48.0932L10.0974 73.1814L10.0115 73.2214L17.1974 48.0732Z" fill="#063367"/>
<path opacity="0.42" d="M17.1974 48.0732L16.8563 49.2767L10.0116 73.2214C9.97392 73.3461 10.0363 73.4896 10.1304 73.5696L10.6174 73.9414C10.681 73.9849 10.7422 74.0026 10.7939 74.0155L18.0763 48.7767L18.0598 48.7567L17.2833 48.0955L17.1974 48.0732ZM10.1104 73.1767V73.172C10.1457 73.1602 10.1798 73.1473 10.2116 73.1355C10.1763 73.1485 10.1457 73.1614 10.1104 73.1767ZM10.2963 73.5673C10.248 73.5355 10.1916 73.4873 10.1504 73.4296C10.1927 73.4873 10.2492 73.5355 10.2963 73.5626C10.2963 73.5626 10.2974 73.5626 10.2963 73.5673Z" fill="url(#paint10_linear_18_189)"/>
<path opacity="0.42" d="M45.7774 49.5004L45.6374 49.5839L45.0244 50.1874C45.0268 50.1874 45.0268 50.1874 45.0268 50.1921C44.0303 53.5968 38.4374 72.6945 37.5903 75.5533C37.6433 75.5698 37.708 75.5745 37.7703 75.5486L38.2115 75.2839H38.2068C38.2727 75.2357 38.3715 75.1721 38.4009 75.0451C38.4009 75.0521 38.4009 75.0521 38.4009 75.0545L45.5609 50.5486L45.8056 49.7074C45.8127 49.6615 45.8056 49.6204 45.7986 49.578C45.795 49.551 45.7868 49.5286 45.7774 49.5004Z" fill="url(#paint11_linear_18_189)"/>
<path d="M45.6374 49.5768L45.0245 50.1898C42.8974 48.7768 37.0374 45.1392 30.4198 45.6792C25.048 46.1156 20.3186 47.8439 18.0751 48.7768L17.2822 48.0968L17.3386 47.9215C32.1445 41.7968 39.2833 45.0533 45.6916 49.3933L45.6868 49.3956H45.6974L45.6374 49.5768Z" fill="url(#paint12_linear_18_189)"/>
<path opacity="0.33" d="M17.9716 48.6837C32.7799 42.5602 39.3928 46.6061 45.1387 50.0767L45.0258 50.1896C39.1105 46.5249 32.8199 42.7637 18.0787 48.7814L17.9716 48.6837Z" fill="url(#paint13_linear_18_189)"/>
<path opacity="0.33" d="M17.3481 47.898C32.1539 41.7745 38.9951 44.9204 45.6986 49.3933L45.641 49.5662C38.601 45.0098 32.1964 41.9792 17.4551 47.9945L17.3481 47.898Z" fill="url(#paint14_linear_18_189)"/>
<path d="M17.2834 48.0933L17.1975 48.0721C17.2293 47.9686 17.3057 47.9274 17.3293 47.9215L17.3399 47.918C17.3399 47.918 17.3257 47.9697 17.2834 48.0933Z" fill="url(#paint15_radial_18_189)"/>
<path opacity="0.5" d="M38.0164 75.2356C31.6023 70.9227 24.9552 67.6286 10.3269 73.5697C10.2293 73.5109 10.0716 73.3639 10.1105 73.1792C24.9623 66.858 31.8634 70.5533 38.2776 74.8639C38.2117 75.098 38.0905 75.1768 38.0164 75.2356Z" fill="url(#paint16_radial_18_189)"/>
<path d="M49.5068 52.018C55.9163 56.3309 62.4715 59.4933 77.5363 54.3427L70.5046 78.8027C55.7187 84.918 48.6187 81.4556 42.2164 77.1145L49.5068 52.018Z" fill="url(#paint17_radial_18_189)"/>
<path d="M71.7528 79.6697C71.6869 79.805 71.5552 79.8839 71.5128 79.9086C71.501 79.9086 71.4928 79.9133 71.4928 79.9133C71.4928 79.9133 71.3705 79.9262 71.261 79.8415C71.5516 79.6815 71.634 79.3662 71.634 79.3662C71.634 79.3662 71.8034 79.5097 71.7528 79.6697Z" fill="url(#paint18_linear_18_189)"/>
<path d="M71.7527 79.6698C71.7786 79.5321 71.6221 79.4027 71.6221 79.4027L78.6327 54.9709C78.6327 54.9709 78.7457 55.0709 78.7798 55.1486L71.7527 79.6698Z" fill="url(#paint19_linear_18_189)"/>
<path d="M78.7775 55.1615C78.7775 55.1615 78.7563 55.0874 78.6305 54.9874C78.6869 54.7509 78.6446 54.698 78.6446 54.698L78.6622 54.7098C78.6622 54.7074 78.8422 54.878 78.7775 55.1615Z" fill="url(#paint20_linear_18_189)"/>
<path d="M78.0775 54.5709C78.0775 54.5709 77.8869 54.338 77.4905 54.4051C77.5105 54.318 77.5434 54.2098 77.6705 54.1592C77.9081 54.1227 78.0211 54.1827 78.0728 54.2357C78.1022 54.2615 78.1105 54.2851 78.1105 54.2851C78.1446 54.4239 78.0775 54.5709 78.0775 54.5709Z" fill="url(#paint21_linear_18_189)"/>
<path d="M78.0728 54.238L78.6622 54.7062C78.6917 54.8627 78.6305 55.0227 78.6305 55.0227L78.0505 54.5568C78.0505 54.5568 78.1069 54.378 78.0728 54.238Z" fill="url(#paint22_linear_18_189)"/>
<path opacity="0.66" d="M70.9952 78.9592L78.0458 54.5156L78.6375 54.9921L71.6387 79.4262L71.6081 79.4886L70.9952 78.9592Z" fill="#B37E00"/>
<path d="M77.5152 54.431C62.6669 59.4945 55.8693 56.4851 49.4622 52.1674C49.4752 52.1192 49.5046 52.0086 49.4363 51.898C55.8446 56.2133 62.9328 59.1533 77.6716 54.1627C77.5563 54.238 77.5446 54.3427 77.5152 54.431Z" fill="url(#paint23_linear_18_189)"/>
<path d="M48.3127 52.4696L48.8056 52.1355L41.6669 77.0226L41.1104 77.4637V77.4061L48.3127 52.4696Z" fill="#D9A200"/>
<path opacity="0.66" d="M70.4316 78.8227L77.4905 54.3992C77.5022 54.3992 77.5152 54.378 77.5328 54.3756C77.9011 54.3415 78.0775 54.5333 78.0775 54.5333L71.0446 78.9251C71.0446 78.9251 70.7493 78.6909 70.4316 78.8227Z" fill="url(#paint24_linear_18_189)"/>
<path d="M71.514 79.9086C57.014 86.105 47.7163 82.2909 41.3093 77.9803L41.3763 77.918C47.7787 82.2309 57.6446 85.825 71.2599 79.8109C71.3704 79.905 71.514 79.9086 71.514 79.9086Z" fill="#A85D10"/>
<path opacity="0.66" d="M71.0387 78.9168L71.6387 79.4274C71.6387 79.4274 71.5587 79.7121 71.2364 79.8497L70.627 79.3498C70.9481 79.2133 71.0387 78.9168 71.0387 78.9168Z" fill="url(#paint25_linear_18_189)"/>
<path d="M70.4433 78.7898C70.3869 79.1662 70.748 79.4003 70.748 79.4003C55.3821 84.9603 48.7974 81.6392 41.9716 77.5262C42.081 77.4392 42.1421 77.3745 42.208 77.1098C42.221 77.1145 42.308 77.1003 42.3233 77.1098C48.9233 81.1733 56.5504 84.5392 70.4433 78.7898Z" fill="url(#paint26_linear_18_189)"/>
<path d="M41.3787 77.9509L41.9717 77.525C47.8434 81.1838 56.067 85.1897 70.6646 79.3309L71.2646 79.838C57.7011 85.8521 47.7823 82.2615 41.3787 77.9509Z" fill="#C67C0C"/>
<path d="M41.4293 77.9697L41.3611 78.018C41.3611 78.018 40.9764 77.8038 41.1105 77.4062C41.1434 77.7956 41.4293 77.9697 41.4293 77.9697Z" fill="#DE980D"/>
<path d="M41.1105 77.4061L41.6669 76.9484C41.6364 77.3555 42.0305 77.5072 42.0305 77.5072L41.4199 77.9743C41.4199 77.9767 41.0799 77.8108 41.1105 77.4061Z" fill="url(#paint27_linear_18_189)"/>
<path d="M41.627 76.9674C41.8258 76.8909 42.0093 76.9803 42.2211 77.1027C42.1505 77.365 42.1011 77.4568 41.9928 77.5321C41.8576 77.4568 41.594 77.3015 41.627 76.9674Z" fill="url(#paint28_linear_18_189)"/>
<path d="M48.9022 51.9262L48.794 52.138L48.2987 52.4944C48.334 52.3274 48.7411 52.0333 48.8669 51.9474C48.8846 51.9333 48.9022 51.9262 48.9022 51.9262Z" fill="#DE980D"/>
<path d="M49.4564 52.1627C49.1622 51.9956 48.8987 52.0827 48.794 52.138C48.8117 52.0827 48.8728 51.9415 48.8728 51.9415C49.1117 51.7921 49.2175 51.7921 49.4364 51.898C49.4987 52.0074 49.474 52.1015 49.4564 52.1627Z" fill="url(#paint29_radial_18_189)"/>
<path d="M42.2752 77.145C42.0646 77.0215 41.8246 76.9286 41.621 77.0097L48.8046 52.1356C48.9151 52.0839 49.1693 51.9944 49.4622 52.1674L42.2752 77.145Z" fill="url(#paint30_linear_18_189)"/>
<path opacity="0.33" d="M48.4376 52.3039C50.6305 54.2062 60.1529 61.9909 78.6623 54.7074L78.0729 54.2392C78.0223 54.1851 77.9093 54.1239 77.6717 54.1639C62.9329 59.1545 55.8446 56.2145 49.4364 51.8992C49.4364 51.9051 49.4364 51.9051 49.4364 51.9051C49.2211 51.7956 49.114 51.7956 48.8776 51.9486C48.5811 52.1521 48.5811 52.1498 48.4376 52.3039Z" fill="url(#paint31_linear_18_189)"/>
<path opacity="0.33" d="M78.6622 54.7074C60.1528 61.991 50.6293 54.2062 48.4375 52.3039C48.3799 52.3568 48.3352 52.4167 48.314 52.465V52.471L48.3069 52.4897L48.3046 52.4957H48.3069L48.3034 52.5074C50.2152 54.1804 59.7799 62.5168 78.7834 54.9792C78.7622 54.8098 78.6622 54.7074 78.6622 54.7074Z" fill="url(#paint32_linear_18_189)"/>
<path d="M70.6658 79.3333C70.6658 79.3333 70.3928 79.1662 70.4446 78.7898C70.8187 78.6886 71.0481 78.9251 71.0481 78.9251C71.0481 78.9251 70.9881 79.1945 70.6658 79.3333Z" fill="url(#paint33_linear_18_189)"/>
<path d="M46.8692 44.9945C43.0116 42.3957 38.8598 39.9651 32.9621 39.9215C29.0727 39.891 24.4398 40.998 18.5587 43.4263L25.8445 18.1768C40.6374 12.0591 47.7457 15.5274 54.1539 19.8615L46.8692 44.9945Z" fill="url(#paint34_radial_18_189)"/>
<path d="M46.861 44.9862L54.1517 19.8627C54.2317 19.9133 54.2645 19.9556 54.3045 20.005L47.0187 45.165C46.9776 45.058 46.861 44.9862 46.861 44.9862Z" fill="#BC1B00"/>
<path d="M19.2587 44.1603C21.5928 43.2027 23.7493 42.4945 25.7528 42.0051C26.2411 41.8851 26.6728 41.7839 27.1881 41.6851C27.6587 41.5886 28.1258 41.498 28.5799 41.4286C29.2916 41.3251 29.9846 41.2333 30.6646 41.178C31.2387 41.1321 31.7999 41.1015 32.3493 41.0968C32.8799 41.0909 33.4034 41.0968 33.9116 41.1227C34.3611 41.1486 34.8022 41.1851 35.2387 41.2356C35.6069 41.2768 35.9658 41.3251 36.3234 41.3851C37.0728 41.5133 37.7999 41.6721 38.5011 41.8698C41.3363 42.6733 43.854 44.0403 46.1693 45.5803C46.1505 45.5898 46.0952 45.5639 46.074 45.5533C46.0516 45.5415 46.0411 45.5415 46.0187 45.5298C42.8905 43.5462 39.5328 41.8168 35.3834 41.3074C31.1422 40.7898 26.1893 41.5203 19.5234 44.1603C19.5234 44.1603 19.374 44.2298 19.3104 44.2368C19.2587 44.2521 19.2704 44.2109 19.2587 44.1603Z" fill="#BC1B00"/>
<path d="M46.6105 45.3544C46.6105 45.3544 46.7058 45.4227 46.8175 45.398L46.3611 45.605C46.2364 45.6368 46.0881 45.5627 46.0881 45.5627L46.6105 45.3544Z" fill="#BC1B00"/>
<path d="M19.261 44.1627C19.261 44.1627 19.2916 44.2133 19.3104 44.2439C19.2704 44.2498 19.2598 44.2615 19.1504 44.2109C19.1339 44.2062 19.1151 44.1886 19.0951 44.1721L18.621 43.8039L18.5763 43.7686C18.6398 43.7662 18.6869 43.7933 18.7198 43.7898L19.261 44.1627Z" fill="#B81A00"/>
<path d="M46.8693 44.9921C46.9187 45.0227 46.9799 45.0427 47.0234 45.1462C46.9916 45.2839 46.8787 45.3533 46.8163 45.3992C46.7022 45.4298 46.594 45.3462 46.594 45.3462C46.6658 45.2933 46.7952 45.2004 46.8693 44.9921Z" fill="#E82E00"/>
<path d="M54.1952 19.6897L54.2034 19.6921C54.2975 19.7579 54.3316 19.8803 54.3034 20.0026L54.2975 20.0132C54.2599 19.9685 54.2316 19.9215 54.1505 19.8603L54.1952 19.6897Z" fill="#F83603"/>
<path d="M18.5857 43.7827C18.514 43.7298 18.4469 43.5145 18.4869 43.3874L18.581 43.3592C18.5434 43.5415 18.6551 43.7533 18.7563 43.8121C18.7563 43.8121 18.6869 43.8533 18.5857 43.7827Z" fill="#E32E00"/>
<path d="M25.8469 18.1815L25.7775 18.1639C25.8058 18.0521 25.8822 18.018 25.9105 18.0097L25.9199 18.0074C25.9199 18.0074 25.8858 18.0591 25.8469 18.1815Z" fill="url(#paint35_linear_18_189)"/>
<path d="M46.6245 45.3603C39.7292 40.5768 31.2845 37.5745 18.7422 43.8062L19.2551 44.1697C32.9621 38.5697 40.1057 41.5956 46.1221 45.5627L46.6245 45.3603Z" fill="#E82E00"/>
<path d="M46.6105 45.3545C42.6622 42.7792 38.9728 40.6415 33.1211 40.4756C28.8505 40.5615 25.5693 41.1074 18.7551 43.8121C18.654 43.7568 18.5257 43.6133 18.5587 43.4274C24.4634 40.9145 29.1481 39.8262 33.0364 39.8662C38.9305 39.9239 43.0117 42.3909 46.8693 44.9862C46.8034 45.2156 46.6775 45.3015 46.6105 45.3545Z" fill="#E82E00"/>
<path d="M25.7776 18.1616L25.8446 18.1816L18.5752 43.4156C18.5587 43.4039 18.4858 43.3886 18.4858 43.3886L25.7776 18.1616Z" fill="#E32E00"/>
<path opacity="0.66" d="M54.154 19.8627C47.7411 15.5239 40.5717 12.1674 25.8481 18.1815C25.8787 18.0533 25.9105 18.0097 25.9105 18.0097C40.7058 11.8921 47.7893 15.3509 54.1952 19.6897L54.154 19.8627Z" fill="url(#paint36_linear_18_189)"/>
<path opacity="0.33" d="M53.307 20.6944C48.0834 17.3027 41.1787 13.0544 26.4552 19.0674C26.4881 18.9415 26.5258 18.8756 26.5258 18.8756C41.3187 12.7591 48.2917 17.4191 53.3599 20.5109L53.307 20.6944Z" fill="#FE8411"/>
<g opacity="0.6">
<path opacity="0.6" d="M26.0881 18.3485C26.0469 18.365 25.9046 18.345 25.9046 18.345L18.5516 43.8097L19.0951 44.1744C19.1139 44.1921 19.1339 44.2085 19.1504 44.2132C19.2433 44.2544 19.2622 44.2544 19.2916 44.2485L26.4952 18.9579L26.5175 18.8826L26.0881 18.3485Z" fill="url(#paint37_linear_18_189)"/>
</g>
<path opacity="0.5" d="M53.3434 20.5316C53.346 20.5355 53.3486 20.5368 53.3524 20.542C53.3524 20.5316 53.3537 20.529 53.3537 20.5239L53.3434 20.5316Z" fill="url(#paint38_linear_18_189)"/>
<path opacity="0.5" d="M53.5223 19.9521C51.0905 18.3227 47.0423 15.678 41.1211 15.2639C34.8399 14.8227 26.8811 18.0192 26.0881 18.3486L26.5164 18.8815L26.494 18.9568C26.5164 18.9521 26.5375 18.9392 26.5587 18.9309C41.2246 12.6239 50.2575 18.3192 53.3434 20.5309L53.354 20.5239L53.8152 20.1462C53.7211 20.0839 53.6234 20.018 53.5223 19.9521Z" fill="url(#paint39_linear_18_189)"/>
<path opacity="0.5" d="M26.0881 18.3485C26.8822 18.0191 34.8399 14.8226 41.1211 15.2638C47.0422 15.6779 51.0905 18.3238 53.5222 19.9521C53.6222 20.0191 53.7199 20.0838 53.8128 20.1462L54.2681 19.7803C54.2481 19.7497 54.2352 19.7144 54.2022 19.6932C47.9363 15.4485 41.0128 12.0497 26.874 17.6215C26.5575 17.7497 26.2411 17.8721 25.9187 18.0074L26.0881 18.3485Z" fill="#FFF4C5"/>
<path opacity="0.6" d="M54.195 19.6991L54.1539 19.8626L53.8127 20.1462L53.3527 20.5238C53.3527 20.5273 53.3516 20.5309 53.3516 20.5403C51.8246 25.7779 47.0516 42.1297 46.0399 45.5391C46.0516 45.5438 46.0597 45.5462 46.0727 45.5556C46.0762 45.558 46.0846 45.5627 46.0881 45.5638C46.0881 45.5638 46.2362 45.638 46.3609 45.6062L46.8174 45.3991C46.8162 45.4015 46.8127 45.3991 46.8044 45.4015C46.8092 45.3991 46.8128 45.4015 46.8152 45.3991C46.8728 45.3533 46.9844 45.2862 47.0162 45.165L47.0175 45.1556C47.0175 45.1533 47.0209 45.1533 47.0209 45.1486L54.0068 21.0214L54.1797 20.4273L54.1856 20.4026L54.3021 20.0073C54.3256 19.9214 54.3103 19.7509 54.195 19.6991Z" fill="url(#paint40_linear_18_189)"/>
<path opacity="0.5" d="M46.6258 45.3439C42.6799 42.7674 38.9881 40.6286 33.1399 40.4615C28.8669 40.5486 25.5869 41.0933 18.7728 43.798C18.6681 43.7451 18.5434 43.6015 18.5763 43.4168C24.4811 40.9015 29.1658 39.8133 33.0564 39.8533C38.9481 39.9156 43.0305 42.378 46.8869 44.9745C46.8199 45.2004 46.694 45.2909 46.6258 45.3439Z" fill="url(#paint41_linear_18_189)"/>
<path d="M54.1952 19.6897L54.2034 19.6944C54.2975 19.7579 54.3316 19.8803 54.3034 20.0026L54.2975 20.0132C54.2599 19.9685 54.2316 19.9238 54.1505 19.8603L54.1952 19.6897Z" fill="#F83603"/>
<path d="M25.8469 18.1815L25.7787 18.1639C25.8081 18.0556 25.8834 18.0192 25.9105 18.0097L25.921 18.0074C25.921 18.0074 25.8857 18.0591 25.8469 18.1815Z" fill="url(#paint42_linear_18_189)"/>
<path opacity="0.66" d="M54.1539 19.8627C47.7445 15.5238 40.5715 12.1697 25.8468 18.1827C25.8786 18.058 25.9103 18.0109 25.9103 18.0109C40.7056 11.8933 47.7892 15.3521 54.195 19.6909L54.1539 19.8627Z" fill="url(#paint43_linear_18_189)"/>
<path d="M86.2658 24.145C71.4928 30.2498 64.3952 26.8168 57.9999 22.5085L50.7117 47.7804C57.1023 52.1133 64.8246 55.6662 78.9881 49.3298L86.2658 24.145Z" fill="url(#paint44_radial_18_189)"/>
<path d="M86.2352 24.1638C71.4634 30.2674 64.3929 26.8333 57.9976 22.5297C58.0129 22.4732 58.0364 22.365 57.9976 22.2579C64.3929 26.5639 71.6387 30.0321 86.4023 23.925C86.2811 23.9944 86.2717 24.0791 86.2352 24.1638Z" fill="url(#paint45_linear_18_189)"/>
<path d="M56.867 22.8321L57.3975 22.4545L50.1822 47.5027L49.627 47.9462V47.8898L56.867 22.8321Z" fill="#8CAC42"/>
<path d="M50.7268 47.7909C50.5057 47.6627 50.3398 47.4074 50.1398 47.4874L57.3704 22.4674C57.4821 22.4168 57.7598 22.3238 58.0257 22.5297L50.7268 47.7909Z" fill="url(#paint46_linear_18_189)"/>
<path d="M57.4621 22.2944L57.3892 22.4721L56.8621 22.8521C56.9092 22.6803 57.3151 22.3968 57.4327 22.3074C57.4574 22.2968 57.4621 22.2944 57.4621 22.2944Z" fill="#5F821C"/>
<path d="M58.0009 22.5086C57.7268 22.3427 57.4762 22.4262 57.3668 22.4733C57.3821 22.418 57.4315 22.3074 57.4315 22.3074C57.6704 22.1592 57.7692 22.1533 57.9962 22.258C58.0256 22.3427 58.0362 22.4251 58.0009 22.5086Z" fill="url(#paint47_linear_18_189)"/>
<path opacity="0.81" d="M79.4728 49.445L86.7787 24.2862L87.3752 24.7591L80.0293 49.9285L79.4728 49.445Z" fill="url(#paint48_linear_18_189)"/>
<path d="M80.1728 50.1133C80.1905 49.9662 80.041 49.8509 80.041 49.8509L87.3646 24.7344C87.3646 24.7344 87.4834 24.838 87.5128 24.9109L80.1728 50.1133Z" fill="#476E32"/>
<path d="M79.928 50.3462C75.9809 52.1403 72.2492 53.0674 68.7809 53.3662C62.7903 54.0403 57.9445 52.7427 53.9903 50.798C52.4492 50.0897 51.0598 49.2909 49.8245 48.4592L49.8927 48.4086C51.1445 49.245 52.5033 50.0686 53.9903 50.798C58.0115 52.6427 63.0292 53.8615 68.7809 53.3662C72.0551 52.9921 75.6751 52.025 79.6739 50.2556C79.7868 50.3415 79.928 50.3462 79.928 50.3462Z" fill="#1D3419"/>
<path d="M79.1292 49.878C79.1292 49.878 78.8504 49.6262 78.8974 49.2592C79.2845 49.158 79.528 49.3968 79.528 49.3968C79.528 49.3968 79.4515 49.7392 79.1292 49.878Z" fill="url(#paint49_linear_18_189)"/>
<path d="M79.528 49.3968L80.0503 49.8627C80.0503 49.8627 79.9715 50.1521 79.6539 50.2921L79.1068 49.8262C79.4327 49.6897 79.528 49.3968 79.528 49.3968Z" fill="url(#paint50_linear_18_189)"/>
<path d="M78.988 49.2462C78.9362 49.6145 79.2092 49.8874 79.2092 49.8874C64.4445 55.9933 56.8374 52.4051 50.4398 48.0698C50.5527 47.9933 50.568 47.9933 50.6421 47.7274C57.0351 52.0604 66.6986 55.0933 78.988 49.2462Z" fill="url(#paint51_linear_18_189)"/>
<path d="M49.8928 48.4344L50.4434 48.0674C56.8399 52.1862 64.3952 55.745 79.1505 49.8144L79.6799 50.2791C65.5164 56.5286 56.4575 53.0521 49.8928 48.4344Z" fill="#26551B"/>
<path d="M80.1728 50.1133C80.1046 50.2486 79.9728 50.3274 79.9281 50.345C79.9187 50.3521 79.9128 50.3521 79.9128 50.3521C79.9128 50.3521 79.8152 50.3709 79.6752 50.278C79.9693 50.1239 80.0505 49.8015 80.0505 49.8015C80.0505 49.8015 80.2175 49.9486 80.1728 50.1133Z" fill="#5F821C"/>
<path d="M49.9151 48.4274L49.8504 48.4804C49.8504 48.4804 49.4939 48.2827 49.628 47.8898C49.661 48.2827 49.9151 48.4274 49.9151 48.4274Z" fill="#26551B"/>
<path d="M49.6268 47.8898L50.1597 47.4709C50.1268 47.8768 50.4739 48.0415 50.4739 48.0415L49.935 48.458C49.935 48.4604 49.5986 48.2909 49.6268 47.8898Z" fill="url(#paint52_linear_18_189)"/>
<path d="M50.147 47.4698C50.3305 47.4086 50.4917 47.6039 50.7128 47.7804C50.6387 48.0392 50.5787 47.9933 50.4658 48.0721C50.3352 47.9992 50.1105 47.8039 50.147 47.4698Z" fill="url(#paint53_linear_18_189)"/>
<path opacity="0.72" d="M87.4233 24.4991C87.4304 24.592 87.3609 24.7485 87.3609 24.7485L86.7939 24.292C86.7939 24.292 86.8762 24.105 86.8351 23.9638C87.0256 24.0438 87.3915 24.4438 87.4233 24.4991Z" fill="url(#paint54_linear_18_189)"/>
<path opacity="0.33" d="M87.4116 24.4756C87.301 24.3262 87.1316 24.1932 86.9987 24.0721C86.7493 23.8438 86.4387 23.8932 86.3657 23.9368L86.3622 23.945C71.6293 30.0274 64.3904 26.5592 57.9987 22.2568C57.7728 22.1533 57.6728 22.1579 57.434 22.3062C57.3422 22.3709 57.1046 22.5474 56.9669 22.698C59.4246 24.7685 69.874 32.9556 87.4116 24.4756ZM58.001 22.5085L57.9975 22.5133C57.9975 22.5085 57.9963 22.5085 57.994 22.5074C57.9963 22.5085 57.9975 22.5085 58.001 22.5085C58.0163 22.4744 58.0163 22.4427 58.0187 22.4097C58.0163 22.4497 58.0116 22.4838 58.001 22.5085Z" fill="url(#paint55_linear_18_189)"/>
<path opacity="0.72" d="M78.9198 49.305L86.2233 24.1568C86.6221 24.0827 86.8127 24.3097 86.8127 24.3097L79.528 49.3945C79.528 49.3968 79.2292 49.1709 78.9198 49.305Z" fill="url(#paint56_linear_18_189)"/>
<path opacity="0.6" d="M86.2352 24.1639C86.2563 24.0674 86.2693 24.025 86.3646 23.9368C86.4387 23.8933 86.7481 23.8439 86.9975 24.0721C87.2469 24.2968 87.6305 24.558 87.5128 24.9121C87.4822 24.8392 87.3705 24.7474 87.3705 24.7474L86.8128 24.3086C86.8128 24.3086 86.6328 24.0933 86.2352 24.1639Z" fill="url(#paint57_linear_18_189)"/>
<path opacity="0.3" d="M56.9658 22.6991C56.9281 22.745 56.8916 22.785 56.874 22.825L56.8681 22.832L56.8422 22.9179C59.0669 24.8003 69.6152 33.4627 87.5281 24.7426C87.5175 24.645 87.4752 24.5556 87.4128 24.4744C69.874 32.9556 59.4246 24.7685 56.9658 22.6991Z" fill="url(#paint58_linear_18_189)"/>
<path opacity="0.72" d="M87.4234 24.5004C87.4305 24.5921 87.361 24.7474 87.361 24.7474L86.7952 24.2909C86.7952 24.2909 86.8775 24.1051 86.8399 23.9627C87.0258 24.0451 87.3916 24.4462 87.4234 24.5004Z" fill="url(#paint59_linear_18_189)"/>
<path opacity="0.6" d="M86.2352 24.1639C86.2563 24.0674 86.2693 24.0251 86.3669 23.9368C86.4399 23.8933 86.7505 23.8439 86.9975 24.0745C87.2469 24.298 87.6316 24.5568 87.514 24.9133C87.4811 24.8392 87.3705 24.7486 87.3705 24.7486L86.8128 24.3074C86.8128 24.3074 86.6328 24.0933 86.2352 24.1639Z" fill="url(#paint60_linear_18_189)"/>
</g>
<defs>
<radialGradient id="paint0_radial_18_189" cx="0" cy="0" r="1" gradientUnits="userSpaceOnUse" gradientTransform="translate(50.3561 54.8486) scale(35.3416 35.5705)">
<stop offset="0.25" stop-color="white"/>
<stop offset="1"/>
</radialGradient>
<radialGradient id="paint1_radial_18_189" cx="0" cy="0" r="1" gradientUnits="userSpaceOnUse" gradientTransform="translate(50.3572 54.8497) scale(35.3415 35.5703)">
<stop offset="0.25" stop-color="white"/>
<stop offset="1"/>
</radialGradient>
<radialGradient id="paint2_radial_18_189" cx="0" cy="0" r="1" gradientUnits="userSpaceOnUse" gradientTransform="translate(50.3573 54.8486) scale(35.3429 35.5718)">
<stop offset="0.25" stop-color="white"/>
<stop offset="1"/>
</radialGradient>
<radialGradient id="paint3_radial_18_189" cx="0" cy="0" r="1" gradientUnits="userSpaceOnUse" gradientTransform="translate(50.356 54.8497) scale(35.3458 35.5745)">
<stop offset="0.25" stop-color="white"/>
<stop offset="1"/>
</radialGradient>
<radialGradient id="paint4_radial_18_189" cx="0" cy="0" r="1" gradientUnits="userSpaceOnUse" gradientTransform="translate(47.5966 49.0621) scale(38.8922 38.8922)">
<stop offset="0.0011" stop-color="#D1E7EE"/>
<stop offset="0.0979" stop-color="#CDE4EC"/>
<stop offset="0.203" stop-color="#C0DCE8"/>
<stop offset="0.2985" stop-color="#ADD0E1"/>
<stop offset="0.6504" stop-color="#3982B1"/>
<stop offset="0.7203" stop-color="#3474AA"/>
<stop offset="0.899" stop-color="#285699"/>
<stop offset="1" stop-color="#244B93"/>
</radialGradient>
<radialGradient id="paint5_radial_18_189" cx="0" cy="0" r="1" gradientUnits="userSpaceOnUse" gradientTransform="translate(47.5748 48.7928) scale(39.1299 39.1286)">
<stop offset="0.0036" stop-color="#D8EEED"/>
<stop offset="0.1733" stop-color="#98D8D7"/>
<stop offset="0.2237" stop-color="#8ED3D3"/>
<stop offset="0.3088" stop-color="#74C6CA"/>
<stop offset="0.4176" stop-color="#49B1BA"/>
<stop offset="0.4477" stop-color="#3CAAB5"/>
<stop offset="0.56" stop-color="#2E81A4"/>
<stop offset="0.6836" stop-color="#215B94"/>
<stop offset="0.783" stop-color="#19448B"/>
<stop offset="0.8448" stop-color="#163B87"/>
<stop offset="1" stop-color="#0B317D"/>
</radialGradient>
<radialGradient id="paint6_radial_18_189" cx="0" cy="0" r="1" gradientUnits="userSpaceOnUse" gradientTransform="translate(47.5709 48.9882) scale(39.0326 39.0334)">
<stop offset="0.0036" stop-color="#D8EEED"/>
<stop offset="0.1733" stop-color="#98D8D7"/>
<stop offset="0.2237" stop-color="#8ED3D3"/>
<stop offset="0.3088" stop-color="#74C6CA"/>
<stop offset="0.4176" stop-color="#49B1BA"/>
<stop offset="0.4477" stop-color="#3CAAB5"/>
<stop offset="0.56" stop-color="#2E81A4"/>
<stop offset="0.6836" stop-color="#215B94"/>
<stop offset="0.783" stop-color="#19448B"/>
<stop offset="0.8448" stop-color="#163B87"/>
<stop offset="1" stop-color="#152469"/>
</radialGradient>
<radialGradient id="paint7_radial_18_189" cx="0" cy="0" r="1" gradientUnits="userSpaceOnUse" gradientTransform="translate(47.6 48.9587) scale(39.0498 39.0498)">
<stop offset="0.0036" stop-color="#D8EEED"/>
<stop offset="0.1733" stop-color="#98D8D7"/>
<stop offset="0.2237" stop-color="#8ED3D3"/>
<stop offset="0.3088" stop-color="#74C6CA"/>
<stop offset="0.4176" stop-color="#49B1BA"/>
<stop offset="0.4477" stop-color="#3CAAB5"/>
<stop offset="0.56" stop-color="#2E81A4"/>
<stop offset="0.6836" stop-color="#215B94"/>
<stop offset="0.783" stop-color="#19448B"/>
<stop offset="0.8448" stop-color="#163B87"/>
<stop offset="1" stop-color="#0B317D"/>
</radialGradient>
<linearGradient id="paint8_linear_18_189" x1="45.4411" y1="50.281" x2="39.3579" y2="71.6791" gradientUnits="userSpaceOnUse">
<stop stop-color="#98D8D7"/>
<stop offset="1" stop-color="#152469"/>
</linearGradient>
<radialGradient id="paint9_radial_18_189" cx="0" cy="0" r="1" gradientUnits="userSpaceOnUse" gradientTransform="translate(47.609 48.9438) scale(39.1872 39.1884)">
<stop offset="0.0036" stop-color="#D8EEED"/>
<stop offset="0.1733" stop-color="#98D8D7"/>
<stop offset="0.2237" stop-color="#8ED3D3"/>
<stop offset="0.3088" stop-color="#74C6CA"/>
<stop offset="0.4176" stop-color="#49B1BA"/>
<stop offset="0.4477" stop-color="#3CAAB5"/>
<stop offset="0.56" stop-color="#2E81A4"/>
<stop offset="0.6836" stop-color="#215B94"/>
<stop offset="0.783" stop-color="#19448B"/>
<stop offset="0.8448" stop-color="#163B87"/>
<stop offset="1" stop-color="#152469"/>
</radialGradient>
<linearGradient id="paint10_linear_18_189" x1="10" y1="61.0439" x2="18.0761" y2="61.0439" gradientUnits="userSpaceOnUse">
<stop stop-color="#DEF3F1"/>
<stop offset="1" stop-color="#5085BC"/>
</linearGradient>
<linearGradient id="paint11_linear_18_189" x1="37.5901" y1="62.5318" x2="45.8088" y2="62.5318" gradientUnits="userSpaceOnUse">
<stop stop-color="#DEF3F1"/>
<stop offset="1" stop-color="#5085BC"/>
</linearGradient>
<linearGradient id="paint12_linear_18_189" x1="17.2823" y1="47.3664" x2="45.6973" y2="47.3664" gradientUnits="userSpaceOnUse">
<stop stop-color="#094992"/>
<stop offset="0.6685" stop-color="#8BCDE2"/>
<stop offset="1" stop-color="#E6F6F9"/>
</linearGradient>
<linearGradient id="paint13_linear_18_189" x1="17.9716" y1="47.8533" x2="45.1379" y2="47.8533" gradientUnits="userSpaceOnUse">
<stop offset="0.0056" stop-color="#BBC7E1"/>
<stop offset="0.2247" stop-color="#7090C3"/>
<stop offset="0.5449" stop-color="#C8EAEF"/>
<stop offset="1" stop-color="white"/>
</linearGradient>
<linearGradient id="paint14_linear_18_189" x1="17.3478" y1="47.0286" x2="45.6985" y2="47.0286" gradientUnits="userSpaceOnUse">
<stop offset="0.0056" stop-color="#7090C3"/>
<stop offset="0.5449" stop-color="#C1E7ED"/>
<stop offset="1" stop-color="white"/>
</linearGradient>
<radialGradient id="paint15_radial_18_189" cx="0" cy="0" r="1" gradientUnits="userSpaceOnUse" gradientTransform="translate(17.2616 47.9959) scale(0.0958782 0.09588)">
<stop stop-color="#7E9EC4"/>
<stop offset="1" stop-color="#0A50A1"/>
</radialGradient>
<radialGradient id="paint16_radial_18_189" cx="0" cy="0" r="1" gradientUnits="userSpaceOnUse" gradientTransform="translate(-1.44813 72.1952) scale(47.9725 47.9724)">
<stop offset="0.0036" stop-color="#D8EEED"/>
<stop offset="0.1733" stop-color="#98D8D7"/>
<stop offset="0.2237" stop-color="#8ED3D3"/>
<stop offset="0.3088" stop-color="#74C6CA"/>
<stop offset="0.4176" stop-color="#49B1BA"/>
<stop offset="0.4477" stop-color="#3CAAB5"/>
<stop offset="0.4987" stop-color="#369FB5"/>
<stop offset="0.6306" stop-color="#2A88B4"/>
<stop offset="0.7129" stop-color="#257FB4"/>
<stop offset="1" stop-color="#4161AB"/>
</radialGradient>
<radialGradient id="paint17_radial_18_189" cx="0" cy="0" r="1" gradientUnits="userSpaceOnUse" gradientTransform="translate(47.5632 49.9169) scale(36.2091 36.2091)">
<stop stop-color="#FCF5B0"/>
<stop offset="0.1657" stop-color="#F7EDA0"/>
<stop offset="0.2849" stop-color="#F3E591"/>
<stop offset="0.65" stop-color="#FCD118"/>
<stop offset="0.8024" stop-color="#F7A50C"/>
<stop offset="0.9288" stop-color="#F38603"/>
<stop offset="1" stop-color="#F27B00"/>
</radialGradient>
<linearGradient id="paint18_linear_18_189" x1="71.612" y1="79.362" x2="71.4616" y2="79.9228" gradientUnits="userSpaceOnUse">
<stop stop-color="#DE980D"/>
<stop offset="1" stop-color="#A85D10"/>
</linearGradient>
<linearGradient id="paint19_linear_18_189" x1="71.6222" y1="67.3204" x2="78.7798" y2="67.3204" gradientUnits="userSpaceOnUse">
<stop stop-color="#DEB150"/>
<stop offset="1" stop-color="#FFF8B3"/>
</linearGradient>
<linearGradient id="paint20_linear_18_189" x1="78.7111" y1="54.6974" x2="78.7111" y2="55.1627" gradientUnits="userSpaceOnUse">
<stop offset="0.0056" stop-color="#C67C0C"/>
<stop offset="1" stop-color="#DE980D"/>
</linearGradient>
<linearGradient id="paint21_linear_18_189" x1="77.6827" y1="54.1482" x2="77.9745" y2="54.6338" gradientUnits="userSpaceOnUse">
<stop offset="0.0056" stop-color="#FED40F"/>
<stop offset="1" stop-color="#A85D10"/>
</linearGradient>
<linearGradient id="paint22_linear_18_189" x1="78.4433" y1="54.5216" x2="78.2635" y2="54.7357" gradientUnits="userSpaceOnUse">
<stop offset="0.0056" stop-color="#FED40F"/>
<stop offset="1" stop-color="#A85D10"/>
</linearGradient>
<linearGradient id="paint23_linear_18_189" x1="49.437" y1="54.4872" x2="77.6723" y2="54.4872" gradientUnits="userSpaceOnUse">
<stop stop-color="#FFF8FB"/>
<stop offset="1" stop-color="#FEC236"/>
</linearGradient>
<linearGradient id="paint24_linear_18_189" x1="74.5785" y1="66.7391" x2="73.948" y2="66.5584" gradientUnits="userSpaceOnUse">
<stop stop-color="#B37E00"/>
<stop offset="1" stop-color="#FF9E00"/>
</linearGradient>
<linearGradient id="paint25_linear_18_189" x1="71.2948" y1="79.0299" x2="70.9808" y2="79.7352" gradientUnits="userSpaceOnUse">
<stop offset="0.0056" stop-color="#FFD100"/>
<stop offset="1" stop-color="#A8710A"/>
</linearGradient>
<linearGradient id="paint26_linear_18_189" x1="41.9714" y1="79.7215" x2="70.7479" y2="79.7215" gradientUnits="userSpaceOnUse">
<stop stop-color="#DE980D"/>
<stop offset="0.4" stop-color="#FDDA10"/>
<stop offset="1" stop-color="#DE980D"/>
</linearGradient>
<linearGradient id="paint27_linear_18_189" x1="41.7722" y1="77.743" x2="41.3095" y2="77.2291" gradientUnits="userSpaceOnUse">
<stop stop-color="#DE980D"/>
<stop offset="0.1" stop-color="#DE980D"/>
<stop offset="0.7" stop-color="#FDDA10"/>
<stop offset="1" stop-color="#DE980D"/>
</linearGradient>
<linearGradient id="paint28_linear_18_189" x1="41.7854" y1="76.8791" x2="42.1113" y2="77.467" gradientUnits="userSpaceOnUse">
<stop stop-color="#DE980D"/>
<stop offset="0.4" stop-color="#FEBF0F"/>
<stop offset="0.8" stop-color="#FED40F"/>
<stop offset="1" stop-color="#DE980D"/>
</linearGradient>
<radialGradient id="paint29_radial_18_189" cx="0" cy="0" r="1" gradientUnits="userSpaceOnUse" gradientTransform="translate(49.0706 51.8229) scale(0.354942)">
<stop stop-color="#FEEB71"/>
<stop offset="1" stop-color="#DE980D"/>
</radialGradient>
<linearGradient id="paint30_linear_18_189" x1="45.8779" y1="64.671" x2="45.2152" y2="64.4811" gradientUnits="userSpaceOnUse">
<stop offset="0.0056" stop-color="#FFEFBB"/>
<stop offset="1" stop-color="#FFBF00"/>
</linearGradient>
<linearGradient id="paint31_linear_18_189" x1="48.0527" y1="54.7928" x2="78.7259" y2="54.7928" gradientUnits="userSpaceOnUse">
<stop offset="0.0056" stop-color="#FCA859"/>
<stop offset="0.2135" stop-color="#FDC30F"/>
<stop offset="1" stop-color="#B51C00"/>
</linearGradient>
<linearGradient id="paint32_linear_18_189" x1="48.3032" y1="55.1926" x2="78.7834" y2="55.1926" gradientUnits="userSpaceOnUse">
<stop offset="0.0056" stop-color="#FFF6D8"/>
<stop offset="0.525" stop-color="#FDDA10"/>
<stop offset="1" stop-color="#F9BD0C"/>
</linearGradient>
<linearGradient id="paint33_linear_18_189" x1="70.794" y1="79.0771" x2="70.3689" y2="78.7095" gradientUnits="userSpaceOnUse">
<stop stop-color="#EAB949"/>
<stop offset="0.0722" stop-color="#EDC25A"/>
<stop offset="0.2779" stop-color="#F3D883"/>
<stop offset="0.4784" stop-color="#F8E9A4"/>
<stop offset="0.6698" stop-color="#FCF5BC"/>
<stop offset="0.8479" stop-color="#FEFCCA"/>
<stop offset="1" stop-color="#FFFFCF"/>
</linearGradient>
<radialGradient id="paint34_radial_18_189" cx="0" cy="0" r="1" gradientUnits="userSpaceOnUse" gradientTransform="translate(46.4603 44.9365) scale(34.3686 34.3686)">
<stop offset="0.0036" stop-color="#EFD916"/>
<stop offset="0.1053" stop-color="#EFD516"/>
<stop offset="0.216" stop-color="#EDC715"/>
<stop offset="0.3308" stop-color="#EBB213"/>
<stop offset="0.4485" stop-color="#E89312"/>
<stop offset="0.5673" stop-color="#E36D0F"/>
<stop offset="0.65" stop-color="#E04D0D"/>
<stop offset="0.7851" stop-color="#CE2907"/>
<stop offset="0.9224" stop-color="#BF0B02"/>
<stop offset="1" stop-color="#B90000"/>
</radialGradient>
<linearGradient id="paint35_linear_18_189" x1="25.7785" y1="18.0947" x2="25.9204" y2="18.0947" gradientUnits="userSpaceOnUse">
<stop stop-color="#FD7E36"/>
<stop offset="1" stop-color="#BD6F4F"/>
</linearGradient>
<linearGradient id="paint36_linear_18_189" x1="25.848" y1="17.2836" x2="54.1959" y2="17.2836" gradientUnits="userSpaceOnUse">
<stop stop-color="#FC2B21"/>
<stop offset="0.236" stop-color="#FF590A"/>
<stop offset="0.2478" stop-color="#FB570B"/>
<stop offset="0.3274" stop-color="#E74C0E"/>
<stop offset="0.4172" stop-color="#D84511"/>
<stop offset="0.5247" stop-color="#D04013"/>
<stop offset="0.6966" stop-color="#CD3F13"/>
<stop offset="0.7958" stop-color="#D04213"/>
<stop offset="0.8688" stop-color="#D84B14"/>
<stop offset="0.9334" stop-color="#E65B16"/>
<stop offset="0.9927" stop-color="#F97219"/>
<stop offset="1" stop-color="#FC7519"/>
</linearGradient>
<linearGradient id="paint37_linear_18_189" x1="18.5512" y1="31.2978" x2="26.5172" y2="31.2978" gradientUnits="userSpaceOnUse">
<stop stop-color="#FD7E36"/>
<stop offset="1" stop-color="#BD6F4F"/>
</linearGradient>
<linearGradient id="paint38_linear_18_189" x1="55.7959" y1="21.077" x2="28.0907" y2="14.9023" gradientUnits="userSpaceOnUse">
<stop stop-color="#FE560D"/>
<stop offset="1" stop-color="#8C1501"/>
</linearGradient>
<linearGradient id="paint39_linear_18_189" x1="40.0064" y1="20.7429" x2="39.6844" y2="11.9435" gradientUnits="userSpaceOnUse">
<stop stop-color="#FE560D"/>
<stop offset="1" stop-color="#8C1501"/>
</linearGradient>
<linearGradient id="paint40_linear_18_189" x1="46.0397" y1="32.6558" x2="54.3117" y2="32.6558" gradientUnits="userSpaceOnUse">
<stop stop-color="#FD7E36"/>
<stop offset="1" stop-color="#FC895B"/>
</linearGradient>
<linearGradient id="paint41_linear_18_189" x1="18.5708" y1="42.5961" x2="46.8866" y2="42.5961" gradientUnits="userSpaceOnUse">
<stop stop-color="#FD9B20"/>
<stop offset="0.25" stop-color="#FD9B20"/>
<stop offset="0.3365" stop-color="#FDB830"/>
<stop offset="0.4292" stop-color="#FED23E"/>
<stop offset="0.4851" stop-color="#FEDB43"/>
<stop offset="0.75" stop-color="#FE8411"/>
<stop offset="1" stop-color="#FE560D"/>
</linearGradient>
<linearGradient id="paint42_linear_18_189" x1="25.7785" y1="18.0947" x2="25.9212" y2="18.0947" gradientUnits="userSpaceOnUse">
<stop stop-color="#FD7E36"/>
<stop offset="1" stop-color="#BD6F4F"/>
</linearGradient>
<linearGradient id="paint43_linear_18_189" x1="25.8467" y1="17.2836" x2="54.1957" y2="17.2836" gradientUnits="userSpaceOnUse">
<stop stop-color="#FC2B21"/>
<stop offset="0.236" stop-color="#FF590A"/>
<stop offset="0.2478" stop-color="#FB570B"/>
<stop offset="0.3274" stop-color="#E74C0E"/>
<stop offset="0.4172" stop-color="#D84511"/>
<stop offset="0.5247" stop-color="#D04013"/>
<stop offset="0.6966" stop-color="#CD3F13"/>
<stop offset="0.7958" stop-color="#D04213"/>
<stop offset="0.8688" stop-color="#D84B14"/>
<stop offset="0.9334" stop-color="#E65B16"/>
<stop offset="0.9927" stop-color="#F97219"/>
<stop offset="1" stop-color="#FC7519"/>
</linearGradient>
<radialGradient id="paint44_radial_18_189" cx="0" cy="0" r="1" gradientUnits="userSpaceOnUse" gradientTransform="translate(47.4059 48.7519) scale(39.3302)">
<stop offset="0.005" stop-color="#D1E787"/>
<stop offset="0.1227" stop-color="#CEE583"/>
<stop offset="0.2473" stop-color="#C4DE76"/>
<stop offset="0.3751" stop-color="#B3D361"/>
<stop offset="0.5051" stop-color="#9CC443"/>
<stop offset="0.6356" stop-color="#7FB01D"/>
<stop offset="0.6495" stop-color="#7BAE19"/>
<stop offset="0.7789" stop-color="#578D19"/>
<stop offset="0.922" stop-color="#366E1A"/>
<stop offset="1" stop-color="#29621A"/>
</radialGradient>
<linearGradient id="paint45_linear_18_189" x1="57.9976" y1="24.8629" x2="86.4018" y2="24.8629" gradientUnits="userSpaceOnUse">
<stop stop-color="#D3ED89"/>
<stop offset="1" stop-color="#5F821C"/>
</linearGradient>
<linearGradient id="paint46_linear_18_189" x1="54.406" y1="35.1455" x2="53.7318" y2="34.9522" gradientUnits="userSpaceOnUse">
<stop offset="0.2822" stop-color="#D3ED89"/>
<stop offset="0.4045" stop-color="#D3ED89"/>
<stop offset="1" stop-color="#5F821C"/>
</linearGradient>
<linearGradient id="paint47_linear_18_189" x1="58.0261" y1="22.3629" x2="57.3774" y2="22.3175" gradientUnits="userSpaceOnUse">
<stop stop-color="#7AA922"/>
<stop offset="0.2" stop-color="#D3ED89"/>
<stop offset="0.525" stop-color="#D3ED89"/>
<stop offset="1" stop-color="#7AA922"/>
</linearGradient>
<linearGradient id="paint48_linear_18_189" x1="79.4727" y1="37.1066" x2="87.3748" y2="37.1066" gradientUnits="userSpaceOnUse">
<stop offset="0.0056" stop-color="#7AA922"/>
<stop offset="0.1685" stop-color="#1D4A20"/>
<stop offset="0.382" stop-color="#26551B"/>
<stop offset="1" stop-color="#7AA922"/>
</linearGradient>
<linearGradient id="paint49_linear_18_189" x1="79.5162" y1="49.5826" x2="78.8791" y2="49.538" gradientUnits="userSpaceOnUse">
<stop stop-color="#7AA922"/>
<stop offset="1" stop-color="#D3ED89"/>
</linearGradient>
<linearGradient id="paint50_linear_18_189" x1="79.8035" y1="49.64" x2="79.3987" y2="50.0896" gradientUnits="userSpaceOnUse">
<stop stop-color="#5F821C"/>
<stop offset="1" stop-color="#26551B"/>
</linearGradient>
<linearGradient id="paint51_linear_18_189" x1="50.4388" y1="50.4339" x2="79.2095" y2="50.4339" gradientUnits="userSpaceOnUse">
<stop stop-color="#7AA922"/>
<stop offset="0.4" stop-color="#D3ED89"/>
<stop offset="1" stop-color="#7AA922"/>
</linearGradient>
<linearGradient id="paint52_linear_18_189" x1="50.2642" y1="48.2304" x2="49.809" y2="47.7248" gradientUnits="userSpaceOnUse">
<stop stop-color="#1D3A19"/>
<stop offset="0.1" stop-color="#26551B"/>
<stop offset="0.65" stop-color="#7AA922"/>
<stop offset="1" stop-color="#D3ED89"/>
</linearGradient>
<linearGradient id="paint53_linear_18_189" x1="50.2494" y1="47.4146" x2="50.5797" y2="48.0105" gradientUnits="userSpaceOnUse">
<stop stop-color="#5F821C"/>
<stop offset="0.4045" stop-color="#7AA922"/>
<stop offset="0.8" stop-color="#5F821C"/>
<stop offset="1" stop-color="#5F821C"/>
</linearGradient>
<linearGradient id="paint54_linear_18_189" x1="87.0507" y1="24.5297" x2="87.1447" y2="24.21" gradientUnits="userSpaceOnUse">
<stop stop-color="#5B7F30"/>
<stop offset="1" stop-color="#D3ED89"/>
</linearGradient>
<linearGradient id="paint55_linear_18_189" x1="86.4683" y1="28.5635" x2="57.546" y2="20.2701" gradientUnits="userSpaceOnUse">
<stop stop-color="#1D3419"/>
<stop offset="0.2277" stop-color="#26551B"/>
<stop offset="1" stop-color="#7AA922"/>
</linearGradient>
<linearGradient id="paint56_linear_18_189" x1="83.2111" y1="36.87" x2="82.5414" y2="36.6779" gradientUnits="userSpaceOnUse">
<stop stop-color="#5F821C"/>
<stop offset="1" stop-color="#75C146"/>
</linearGradient>
<linearGradient id="paint57_linear_18_189" x1="86.2352" y1="24.4056" x2="87.5346" y2="24.4056" gradientUnits="userSpaceOnUse">
<stop stop-color="#D3ED89"/>
<stop offset="1" stop-color="#5F821C"/>
</linearGradient>
<linearGradient id="paint58_linear_18_189" x1="86.3466" y1="28.8667" x2="57.5087" y2="20.5977" gradientUnits="userSpaceOnUse">
<stop stop-color="#93BF81"/>
<stop offset="0.2277" stop-color="#26551B"/>
<stop offset="1" stop-color="#BDE256"/>
</linearGradient>
<linearGradient id="paint59_linear_18_189" x1="87.0532" y1="24.5308" x2="87.1474" y2="24.2104" gradientUnits="userSpaceOnUse">
<stop stop-color="#5B7F30"/>
<stop offset="1" stop-color="#D3ED89"/>
</linearGradient>
<linearGradient id="paint60_linear_18_189" x1="86.2352" y1="24.4068" x2="87.5356" y2="24.4068" gradientUnits="userSpaceOnUse">
<stop stop-color="#D3ED89"/>
<stop offset="1" stop-color="#5F821C"/>
</linearGradient>
<clipPath id="clip0_18_189">
<rect width="80" height="70.5882" fill="white" transform="translate(10 14.7059)"/>
</clipPath>
</defs>
</svg>
