<?xml version="1.0" encoding="UTF-8"?>
<!-- Generator: Adobe Illustrator 14.0.0, SVG Export Plug-In . SVG Version: 6.00 Build 43363)  -->
<!DOCTYPE svg PUBLIC "-//W3C//DTD SVG 1.1//EN" "http://www.w3.org/Graphics/SVG/1.1/DTD/svg11.dtd">
<svg version="1.1" xmlns="http://www.w3.org/2000/svg" xmlns:xlink="http://www.w3.org/1999/xlink" x="0px" y="0px" width="407.452px" height="65px" viewBox="-73 14.917 407.452 65" enable-background="new -73 14.917 407.452 65" xml:space="preserve">
<g id="Layer_1" inkscape:output_extension="org.inkscape.output.svg.inkscape" sodipodi:version="0.32" sodipodi:docname="Windows_Vista_001_0001.svg" inkscape:version="0.45.1" sodipodi:docbase="C:\Users\Chris\Desktop" xmlns:dc="http://purl.org/dc/elements/1.1/" xmlns:cc="http://web.resource.org/cc/" xmlns:rdf="http://www.w3.org/1999/02/22-rdf-syntax-ns#" xmlns:svg="http://www.w3.org/2000/svg" xmlns:sodipodi="http://sodipodi.sourceforge.net/DTD/sodipodi-0.dtd" xmlns:inkscape="http://www.inkscape.org/namespaces/inkscape">
	<path d="M58.974,62.532c-0.532,1.992-0.845,3.582-0.937,4.766h-0.14c-0.186-1.671-0.464-3.212-0.834-4.626L46.524,24.137h-5.633   l-11.06,38.256c-0.602,2.11-0.949,3.778-1.042,5.01h-0.14c-0.138-1.764-0.427-3.432-0.869-5.01L17.172,24.137h-6.4l14.573,49.874   h6.782l10.33-36.553c0.463-1.6,0.776-3.258,0.937-4.975h0.14c0.07,1.787,0.326,3.467,0.765,5.043L54.56,74.013h6.851l14.086-49.875   h-6.33L58.974,62.532z M79.36,74.011h5.703V38.396H79.36V74.011z M82.281,21.944c-1.02,0-1.895,0.355-2.625,1.062   c-0.731,0.707-1.096,1.583-1.096,2.626c0,1.089,0.366,1.983,1.096,2.677c0.73,0.697,1.605,1.044,2.625,1.044   c1.045,0,1.929-0.36,2.661-1.078c0.731-0.721,1.096-1.601,1.096-2.645c0-1.043-0.366-1.918-1.096-2.626   C84.21,22.299,83.326,21.944,82.281,21.944z M111.149,37.526c-5.126,0-9.021,2.261-11.687,6.783h-0.138v-5.914H93.62v35.615h5.704   V53.698c0-3.27,0.933-5.971,2.8-8.104c1.866-2.133,4.224-3.201,7.078-3.201c5.519,0,8.276,3.769,8.276,11.305v20.313h5.706V52.203   c0-4.685-1.026-8.3-3.08-10.851C118.051,38.802,115.067,37.526,111.149,37.526z M155.565,43.299h-0.138   c-2.25-3.851-5.81-5.774-10.679-5.774c-4.938,0-8.891,1.773-11.858,5.324c-2.968,3.545-4.453,8.287-4.453,14.223   c0,5.564,1.39,9.947,4.173,13.146c2.666,3.105,6.189,4.661,10.572,4.661c5.519,0,9.601-2.308,12.242-6.923h0.14v6.055h5.703V21.285   h-5.703L155.565,43.299L155.565,43.299z M155.565,57.907c0,3.431-0.951,6.281-2.85,8.556c-2.019,2.364-4.651,3.548-7.896,3.548   c-3.059,0-5.541-1.092-7.442-3.27c-2.064-2.366-3.097-5.692-3.097-9.98c0-4.5,0.998-8.02,2.994-10.558   c1.994-2.539,4.729-3.81,8.207-3.81c2.944,0,5.379,1.021,7.304,3.062c1.854,1.946,2.781,4.349,2.781,7.198L155.565,57.907   L155.565,57.907z M185.693,37.526c-5.403,0-9.713,1.576-12.937,4.729c-3.479,3.385-5.216,8.174-5.216,14.365   c0,5.425,1.528,9.797,4.59,13.111c3.132,3.432,7.374,5.146,12.729,5.146c5.424,0,9.738-1.716,12.937-5.146   c3.203-3.434,4.801-7.989,4.801-13.668c0-5.775-1.49-10.31-4.469-13.6C195.148,39.172,191.001,37.526,185.693,37.526z    M193.868,66.358c-1.973,2.434-4.836,3.652-8.593,3.652c-3.616,0-6.503-1.201-8.657-3.601c-2.157-2.399-3.236-5.733-3.236-10.001   c0-4.545,1.126-8.057,3.374-10.538c2.135-2.317,4.973-3.478,8.52-3.478c3.595,0,6.39,1.146,8.383,3.443   c2.064,2.389,3.095,5.866,3.095,10.434C196.753,60.631,195.792,63.993,193.868,66.358z M240.4,65.245   c-0.322,1.229-0.509,2.295-0.558,3.199h-0.276c-0.091-1.276-0.255-2.342-0.486-3.199l-7.407-26.852h-5.218l-8.174,26.713   c-0.37,1.184-0.591,2.271-0.659,3.269h-0.28c-0.092-1.207-0.255-2.272-0.487-3.202l-7.338-26.779h-5.983l10.749,35.617h5.704   l7.964-25.564c0.418-1.323,0.662-2.389,0.73-3.201h0.14c0.115,1.252,0.3,2.343,0.555,3.27l7.341,25.494h5.912l10.678-35.615h-5.637   L240.4,65.245z M267.432,54.013c-2.711-1.16-4.498-2.146-5.355-2.957c-0.951-0.883-1.428-2.111-1.428-3.688   c0-1.459,0.568-2.652,1.703-3.581c1.139-0.928,2.652-1.391,4.558-1.391c3.039,0,5.726,0.846,8.065,2.539v-5.738   c-2.246-1.113-4.785-1.67-7.615-1.67c-3.687,0-6.7,0.981-9.041,2.938c-2.342,1.96-3.516,4.423-3.516,7.392   c0,2.645,0.754,4.789,2.262,6.435c1.254,1.392,3.375,2.735,6.365,4.034c2.899,1.275,4.846,2.363,5.844,3.27   c0.994,0.904,1.494,2.053,1.494,3.445c0,3.313-2.261,4.973-6.783,4.973c-3.385,0-6.467-1.137-9.252-3.408v6.121   c2.504,1.437,5.451,2.156,8.834,2.156c4.131,0,7.389-1.044,9.774-3.13c2.181-1.927,3.269-4.349,3.269-7.271   c0-2.645-0.87-4.821-2.607-6.537C272.657,56.597,270.467,55.286,267.432,54.013z"/>
	<g>
		
			<radialGradient id="SVGID_1_" cx="282.4443" cy="794.8525" r="30.8677" gradientTransform="matrix(0.9732, 0, 0, 0.9795, -311.082, -727.21)" gradientUnits="userSpaceOnUse">
			<stop offset="0.25" style="stop-color: rgb(255, 255, 255);"/>
			<stop offset="1" style="stop-color: rgb(0, 0, 0);"/>
		</radialGradient>
		<path opacity="0.2" fill="url(#SVGID_1_)" enable-background="new    " d="M-51.028,44.956c-1.092,0.027-2.244,0.141-3.425,0.336    c-1.239,0.206-2.553,0.51-3.903,0.902c-1.408,0.408-2.905,0.931-4.445,1.55l-0.011,0.002c-0.052,0.022-0.089,0.065-0.107,0.122    l-6.138,20.796c-0.034,0.11,0.027,0.224,0.097,0.282l0.411,0.306c0,0,0.007,0.004,0.013,0.011    c0.099,0.064,0.199,0.063,0.239,0.057c0.002,0,0.013-0.004,0.013-0.004c2.299-0.863,4.348-1.482,6.266-1.896    c1.869-0.4,3.552-0.592,5.146-0.584c1.333,0.01,2.586,0.146,3.833,0.417c1.125,0.247,2.219,0.599,3.343,1.078    c1.576,0.687,3.021,1.549,4.104,2.224l0.01,0.006v0.002c0.034,0.018,0.134,0.063,0.23,0.021c0,0,0.271-0.154,0.352-0.203l0,0    l0.028-0.02c0.055-0.037,0.13-0.088,0.152-0.182l0.004-0.021c0,0,0.002,0.003,0.003,0.005c0.012-0.039,6.109-20.252,6.109-20.252    l0.21-0.694c0.003-0.018,0.006-0.037,0.006-0.057c0-0.079-0.035-0.153-0.094-0.195c-0.002,0-0.007-0.001-0.007-0.001v-0.001    c-2.601-1.706-5.54-3.354-9.414-3.854C-48.978,44.981-49.994,44.933-51.028,44.956z"/>
		
			<radialGradient id="SVGID_2_" cx="282.4453" cy="794.8535" r="30.8676" gradientTransform="matrix(0.9732, 0, 0, 0.9795, -311.082, -727.21)" gradientUnits="userSpaceOnUse">
			<stop offset="0.25" style="stop-color: rgb(255, 255, 255);"/>
			<stop offset="1" style="stop-color: rgb(0, 0, 0);"/>
		</radialGradient>
		<path opacity="0.2" fill="url(#SVGID_2_)" enable-background="new    " d="M-35.767,51.116L-35.767,51.116    c-0.071,0.004-0.144,0.031-0.254,0.098c0,0.002-0.001,0.003-0.001,0.003h-0.003l-0.001,0.003c-0.028,0.02-0.099,0.066-0.18,0.129    c-0.165,0.125-0.266,0.227-0.294,0.295h-0.001l0,0c0,0.006-0.006,0.019-0.006,0.019l0.001-0.005l-0.001,0.007v0.002l-6.145,20.606    c-0.106,0.309,0.177,0.478,0.209,0.494c1.577,1.024,3.08,1.832,4.596,2.463c0.888,0.373,1.796,0.688,2.702,0.939    c0.981,0.275,1.989,0.488,3,0.63c1.084,0.149,2.202,0.226,3.323,0.224c1.192-0.006,2.427-0.1,3.668-0.277    c1.311-0.189,2.669-0.48,4.037-0.866c1.438-0.403,2.926-0.924,4.428-1.546c0.002,0,0.009-0.005,0.009-0.005    c0.042-0.026,0.142-0.087,0.192-0.188c0-0.002,6.001-20.271,6.003-20.277l-0.002-0.004v-0.002    c0.008-0.029,0.009-0.061,0.009-0.088c0-0.166-0.107-0.268-0.108-0.27c0,0.002-0.503-0.387-0.503-0.387l0,0l-0.001-0.004    c-0.033-0.035-0.121-0.09-0.336-0.06c-1.54,0.505-3.026,0.923-4.424,1.251c-1.348,0.313-2.654,0.549-3.885,0.699    c-2.321,0.284-4.421,0.284-6.418,0c-1.759-0.25-3.422-0.723-5.084-1.443c-1.343-0.582-2.711-1.336-4.305-2.377l-0.005-0.002h0.002    C-35.645,51.134-35.707,51.116-35.767,51.116z"/>
		
			<radialGradient id="SVGID_3_" cx="282.4453" cy="794.8525" r="30.8688" gradientTransform="matrix(0.9732, 0, 0, 0.9795, -311.082, -727.21)" gradientUnits="userSpaceOnUse">
			<stop offset="0.25" style="stop-color: rgb(255, 255, 255);"/>
			<stop offset="1" style="stop-color: rgb(0, 0, 0);"/>
		</radialGradient>
		<path opacity="0.2" fill="url(#SVGID_3_)" enable-background="new    " d="M-28.746,26.02c-0.001,0-0.105,0.073-0.105,0.073    c-0.211,0.153-0.337,0.271-0.372,0.352l-0.001,0.002c0,0,0,0.001-0.001,0.001c0,0.003-0.021,0.07-0.021,0.07    c0,0.004-6.165,20.654-6.165,20.654c-0.017,0.05-0.024,0.097-0.024,0.136c0,0.227,0.209,0.342,0.213,0.344l0,0h0.001    c0.489,0.316,0.993,0.621,1.5,0.902c2.366,1.43,4.704,2.379,7.148,2.9c1.416,0.307,2.888,0.468,4.376,0.48    c1.608,0.017,3.292-0.142,5-0.465c2.535-0.389,5.111-1.154,7.653-2.268c0-0.002,0.007-0.004,0.007-0.004    c0.048-0.023,0.152-0.092,0.206-0.19c0-0.005,6.269-20.843,6.269-20.843c0.012-0.038,0.018-0.072,0.018-0.107    c0-0.179-0.157-0.329-0.309-0.459c-0.084-0.078-0.2-0.177-0.281-0.211c-0.17-0.078-0.344-0.053-0.396-0.022    c-0.001,0-0.004,0.004-0.004,0.004l-0.001,0.001c-1.535,0.613-3.026,1.127-4.433,1.531c-1.346,0.385-2.658,0.679-3.898,0.874    c-1.18,0.186-2.334,0.287-3.432,0.303c-1.034,0.014-2.054-0.046-3.03-0.183c-1.752-0.246-3.43-0.734-5.124-1.493    c-1.683-0.753-3.192-1.692-4.32-2.426C-28.465,25.892-28.55,25.898-28.746,26.02z"/>
		
			<radialGradient id="SVGID_4_" cx="282.4443" cy="794.8535" r="30.8712" gradientTransform="matrix(0.9732, 0, 0, 0.9795, -311.082, -727.21)" gradientUnits="userSpaceOnUse">
			<stop offset="0.25" style="stop-color: rgb(255, 255, 255);"/>
			<stop offset="1" style="stop-color: rgb(0, 0, 0);"/>
		</radialGradient>
		<path opacity="0.2" fill="url(#SVGID_4_)" enable-background="new    " d="M-48.7,20.242c-2.127,0.446-4.451,1.172-6.906,2.155    l0,0c-0.022,0.009-0.091,0.035-0.114,0.124l-0.319,1.063l-5.911,19.8c-0.007,0.021-0.009,0.045-0.009,0.07    c0,0.096,0.043,0.215,0.091,0.25c0.009,0.007,0.021,0.012,0.028,0.016l0.001,0.002l0.041,0.03l0.364,0.276l0.011,0.006    c0.012,0.009,0.025,0.018,0.033,0.023c0.075,0.029,0.094,0.029,0.113,0.027h0.007l0,0c0-0.002,0.003-0.002,0.003-0.002l0,0v-0.001    l0.011-0.003c0.054-0.004,0.18-0.059,0.181-0.061c5.384-2.067,9.69-2.82,13.551-2.361c1.647,0.195,3.24,0.617,4.872,1.287    c1.299,0.535,2.641,1.234,4.217,2.201l0.022,0.01h0.005l0.019,0.011h0.001h0.002l0.005,0.003l0.006,0.004h-0.002    c0.001,0,0.125,0.061,0.228,0.033c0-0.001,0.388-0.17,0.388-0.17l0,0l0,0l0.018-0.012c0.051-0.037,0.131-0.092,0.154-0.19l0,0l0,0    l0,0l3.888-13.001l2.089-6.986l0.14-0.461c0-0.001,0.001-0.01,0.001-0.01l0.101-0.339c0.003-0.01,0.004-0.022,0.006-0.035    c0-0.009,0-0.018,0-0.028c0-0.079-0.033-0.146-0.091-0.185c-1.235-0.81-2.215-1.395-3.178-1.893l-0.065-0.033    c-2.779-1.434-5.454-2.13-8.417-2.19C-44.851,19.637-46.731,19.827-48.7,20.242z"/>
	</g>
	<g>
		<g>
			<g>
				<g>
					
						<radialGradient id="SVGID_5_" cx="253.3672" cy="766.1045" r="33.0584" gradientTransform="matrix(1, 0, 0, 1, -291.92, -719.675)" gradientUnits="userSpaceOnUse">
						<stop offset="0.0011" style="stop-color: rgb(209, 231, 238);"/>
						<stop offset="0.0979" style="stop-color: rgb(205, 228, 236);"/>
						<stop offset="0.203" style="stop-color: rgb(192, 220, 232);"/>
						<stop offset="0.2985" style="stop-color: rgb(173, 208, 225);"/>
						<stop offset="0.6504" style="stop-color: rgb(57, 130, 177);"/>
						<stop offset="0.7203" style="stop-color: rgb(52, 116, 170);"/>
						<stop offset="0.899" style="stop-color: rgb(40, 86, 153);"/>
						<stop offset="1" style="stop-color: rgb(36, 75, 147);"/>
					</radialGradient>
					<path fill="url(#SVGID_5_)" d="M-64.246,45.578c12.532-5.162,18.598-2.408,24.03,1.28l-6.274,21.563       c-5.452-3.666-11.38-6.686-23.962-1.482l6.132-21.33L-64.246,45.578z"/>
				</g>
			</g>
		</g>
		
			<radialGradient id="SVGID_6_" cx="253.3486" cy="765.875" r="33.2602" gradientTransform="matrix(1, 0, 0, 1, -291.92, -719.675)" gradientUnits="userSpaceOnUse">
			<stop offset="0.0036" style="stop-color: rgb(216, 238, 237);"/>
			<stop offset="0.1733" style="stop-color: rgb(152, 216, 215);"/>
			<stop offset="0.2237" style="stop-color: rgb(142, 211, 211);"/>
			<stop offset="0.3088" style="stop-color: rgb(116, 198, 202);"/>
			<stop offset="0.4176" style="stop-color: rgb(73, 177, 186);"/>
			<stop offset="0.4477" style="stop-color: rgb(60, 170, 181);"/>
			<stop offset="0.56" style="stop-color: rgb(46, 129, 164);"/>
			<stop offset="0.6836" style="stop-color: rgb(33, 91, 148);"/>
			<stop offset="0.783" style="stop-color: rgb(25, 68, 139);"/>
			<stop offset="0.8448" style="stop-color: rgb(22, 59, 135);"/>
			<stop offset="1" style="stop-color: rgb(11, 49, 125);"/>
		</radialGradient>
		<path fill="url(#SVGID_6_)" d="M-69.99,67.571c0.041,0.006,0.113-0.033,0.113-0.033c0.09,0.063,0.162,0.104,0.162,0.104    S-69.857,67.675-69.99,67.571z"/>
		<path fill="#152469" d="M-46.708,68.664c0,0,0.082,0.079,0.18,0.056l-0.375,0.223c-0.12,0.055-0.247-0.032-0.247-0.032    L-46.708,68.664z"/>
		
			<radialGradient id="SVGID_7_" cx="253.3457" cy="766.042" r="33.178" gradientTransform="matrix(1, 0, 0, 1, -291.92, -719.675)" gradientUnits="userSpaceOnUse">
			<stop offset="0.0036" style="stop-color: rgb(216, 238, 237);"/>
			<stop offset="0.1733" style="stop-color: rgb(152, 216, 215);"/>
			<stop offset="0.2237" style="stop-color: rgb(142, 211, 211);"/>
			<stop offset="0.3088" style="stop-color: rgb(116, 198, 202);"/>
			<stop offset="0.4176" style="stop-color: rgb(73, 177, 186);"/>
			<stop offset="0.4477" style="stop-color: rgb(60, 170, 181);"/>
			<stop offset="0.56" style="stop-color: rgb(46, 129, 164);"/>
			<stop offset="0.6836" style="stop-color: rgb(33, 91, 148);"/>
			<stop offset="0.783" style="stop-color: rgb(25, 68, 139);"/>
			<stop offset="0.8448" style="stop-color: rgb(22, 59, 135);"/>
			<stop offset="1" style="stop-color: rgb(21, 36, 105);"/>
		</radialGradient>
		<path fill="url(#SVGID_7_)" d="M-69.869,67.541c0,0-0.075,0.042-0.116,0.036l-0.414-0.318l-0.007-0.008    c0.06,0.016,0.126,0.008,0.151,0.004L-69.869,67.541z"/>
		<path fill="#152469" d="M-46.495,68.364c0.042,0.025,0.086,0.064,0.127,0.148c-0.022,0.114-0.112,0.17-0.171,0.209    c-0.076,0.016-0.183-0.052-0.183-0.052C-46.66,68.619-46.56,68.546-46.495,68.364z"/>
		<path fill="#172E65" d="M-70.399,67.259c-0.08-0.068-0.134-0.188-0.101-0.295l0.073-0.033c-0.029,0.162,0.083,0.274,0.169,0.328    C-70.257,67.259-70.317,67.285-70.399,67.259z"/>
		
			<radialGradient id="SVGID_8_" cx="253.3701" cy="766.0166" r="33.1923" gradientTransform="matrix(1, 0, 0, 1, -291.92, -719.675)" gradientUnits="userSpaceOnUse">
			<stop offset="0.0036" style="stop-color: rgb(216, 238, 237);"/>
			<stop offset="0.1733" style="stop-color: rgb(152, 216, 215);"/>
			<stop offset="0.2237" style="stop-color: rgb(142, 211, 211);"/>
			<stop offset="0.3088" style="stop-color: rgb(116, 198, 202);"/>
			<stop offset="0.4176" style="stop-color: rgb(73, 177, 186);"/>
			<stop offset="0.4477" style="stop-color: rgb(60, 170, 181);"/>
			<stop offset="0.56" style="stop-color: rgb(46, 129, 164);"/>
			<stop offset="0.6836" style="stop-color: rgb(33, 91, 148);"/>
			<stop offset="0.783" style="stop-color: rgb(25, 68, 139);"/>
			<stop offset="0.8448" style="stop-color: rgb(22, 59, 135);"/>
			<stop offset="1" style="stop-color: rgb(11, 49, 125);"/>
		</radialGradient>
		<path fill="url(#SVGID_8_)" d="M-69.895,67.522c11.97-4.676,17.33-2.127,22.784,1.377c-3.266-2.104-6.622-3.775-11.257-3.81    c-3.104-0.017-6.77,0.769-11.359,2.552C-69.727,67.642-69.818,67.604-69.895,67.522z"/>
		<g>
			<path fill="#094B8F" d="M-46.711,68.681c-5.453-3.67-11.102-6.469-23.537-1.416c-0.083-0.052-0.216-0.179-0.182-0.334     c12.622-5.371,18.489-2.234,23.941,1.434C-46.546,68.562-46.649,68.633-46.711,68.681z"/>
			<path fill="#094B8F" d="M-46.703,68.681l-0.443,0.229c-5.449-3.504-10.966-5.932-22.723-1.368l-0.39-0.282     C-57.821,62.206-52.159,65.011-46.703,68.681z"/>
		</g>
		
			<linearGradient id="SVGID_9_" gradientUnits="userSpaceOnUse" x1="251.5352" y1="767.1406" x2="246.3644" y2="785.329" gradientTransform="matrix(1, 0, 0, 1, -291.92, -719.675)">
			<stop offset="0" style="stop-color: rgb(152, 216, 215);"/>
			<stop offset="1" style="stop-color: rgb(21, 36, 105);"/>
		</linearGradient>
		<path fill="url(#SVGID_9_)" d="M-46.498,68.37l6.282-21.514c0.069,0.045,0.106,0.082,0.142,0.121l-6.294,21.547    C-46.404,68.427-46.498,68.37-46.498,68.37z"/>
		
			<radialGradient id="SVGID_10_" cx="253.3779" cy="766.0039" r="33.3099" gradientTransform="matrix(1, 0, 0, 1, -291.92, -719.675)" gradientUnits="userSpaceOnUse">
			<stop offset="0.0036" style="stop-color: rgb(216, 238, 237);"/>
			<stop offset="0.1733" style="stop-color: rgb(152, 216, 215);"/>
			<stop offset="0.2237" style="stop-color: rgb(142, 211, 211);"/>
			<stop offset="0.3088" style="stop-color: rgb(116, 198, 202);"/>
			<stop offset="0.4176" style="stop-color: rgb(73, 177, 186);"/>
			<stop offset="0.4477" style="stop-color: rgb(60, 170, 181);"/>
			<stop offset="0.56" style="stop-color: rgb(46, 129, 164);"/>
			<stop offset="0.6836" style="stop-color: rgb(33, 91, 148);"/>
			<stop offset="0.783" style="stop-color: rgb(25, 68, 139);"/>
			<stop offset="0.8448" style="stop-color: rgb(22, 59, 135);"/>
			<stop offset="1" style="stop-color: rgb(21, 36, 105);"/>
		</radialGradient>
		<path fill="url(#SVGID_10_)" d="M-40.176,46.709l0.01,0.002c0.08,0.058,0.112,0.167,0.092,0.267l-0.004,0.014    c-0.036-0.037-0.072-0.077-0.14-0.123L-40.176,46.709z"/>
		<polygon opacity="0.66" fill="#063367" enable-background="new    " points="-64.392,45.589 -64.319,45.606 -70.427,66.931 -70.5,66.965"/>
		
			<linearGradient id="SVGID_11_" gradientUnits="userSpaceOnUse" x1="221.4102" y1="776.2891" x2="228.2749" y2="776.2891" gradientTransform="matrix(1, 0, 0, 1, -291.92, -719.675)">
			<stop offset="0" style="stop-color: rgb(222, 243, 241);"/>
			<stop offset="1" style="stop-color: rgb(80, 133, 188);"/>
		</linearGradient>
		<path opacity="0.42" fill="url(#SVGID_11_)" enable-background="new    " d="M-64.392,45.589l-0.29,1.023L-70.5,66.965    c-0.032,0.106,0.021,0.228,0.101,0.296l0.414,0.316c0,0,0.001-0.001,0.001,0c0.054,0.037,0.105,0.052,0.149,0.063l6.19-21.453    l-0.014-0.017l-0.66-0.562L-64.392,45.589z M-70.416,66.927v-0.004c0.03-0.01,0.059-0.021,0.086-0.031    C-70.36,66.903-70.386,66.914-70.416,66.927z M-70.258,67.259c-0.041-0.027-0.089-0.068-0.124-0.117    c0.036,0.049,0.084,0.09,0.124,0.113C-70.257,67.255-70.257,67.255-70.258,67.259z"/>
		
			<linearGradient id="SVGID_12_" gradientUnits="userSpaceOnUse" x1="244.8618" y1="777.5537" x2="251.8477" y2="777.5537" gradientTransform="matrix(1, 0, 0, 1, -291.92, -719.675)">
			<stop offset="0" style="stop-color: rgb(222, 243, 241);"/>
			<stop offset="1" style="stop-color: rgb(80, 133, 188);"/>
		</linearGradient>
		<path opacity="0.42" fill="url(#SVGID_12_)" enable-background="new    " d="M-40.099,46.802l-0.119,0.071l-0.521,0.513    c0.002,0,0.002,0,0.002,0.004c-0.847,2.894-5.601,19.127-6.321,21.557c0.045,0.014,0.1,0.018,0.153-0.004l0.375-0.225    c-0.001,0-0.003,0-0.004,0c0.056-0.041,0.14-0.095,0.165-0.203c0,0.006,0,0.006,0,0.008l6.086-20.83l0.208-0.715    c0.006-0.039,0-0.074-0.006-0.11C-40.084,46.845-40.091,46.826-40.099,46.802z"/>
		
			<linearGradient id="SVGID_13_" gradientUnits="userSpaceOnUse" x1="227.6001" y1="764.6631" x2="251.7529" y2="764.6631" gradientTransform="matrix(1, 0, 0, 1, -291.92, -719.675)">
			<stop offset="0" style="stop-color: rgb(9, 73, 146);"/>
			<stop offset="0.6685" style="stop-color: rgb(139, 205, 226);"/>
			<stop offset="1" style="stop-color: rgb(230, 246, 249);"/>
		</linearGradient>
		<path fill="url(#SVGID_13_)" d="M-40.218,46.867l-0.521,0.521c-1.808-1.201-6.789-4.293-12.414-3.834    c-4.566,0.371-8.586,1.84-10.493,2.633l-0.674-0.578l0.048-0.149c12.585-5.206,18.653-2.438,24.1,1.251l-0.004,0.002h0.009    L-40.218,46.867z"/>
		
			<linearGradient id="SVGID_14_" gradientUnits="userSpaceOnUse" x1="227.6489" y1="765.1318" x2="227.6489" y2="765.1318" gradientTransform="matrix(1, 0, 0, 1, -291.92, -719.675)">
			<stop offset="0" style="stop-color: rgb(126, 158, 196);"/>
			<stop offset="1" style="stop-color: rgb(21, 29, 137);"/>
		</linearGradient>
		<path fill="url(#SVGID_14_)" d="M-64.271,45.457"/>
		
			<linearGradient id="SVGID_15_" gradientUnits="userSpaceOnUse" x1="228.186" y1="765.0771" x2="251.2773" y2="765.0771" gradientTransform="matrix(1, 0, 0, 1, -291.92, -719.675)">
			<stop offset="0.0056" style="stop-color: rgb(187, 199, 225);"/>
			<stop offset="0.2247" style="stop-color: rgb(112, 144, 195);"/>
			<stop offset="0.5449" style="stop-color: rgb(200, 234, 239);"/>
			<stop offset="1" style="stop-color: rgb(255, 255, 255);"/>
		</linearGradient>
		<path opacity="0.33" fill="url(#SVGID_15_)" enable-background="new    " d="M-63.734,46.108    c12.587-5.205,18.208-1.766,23.092,1.184l-0.096,0.096c-5.028-3.115-10.375-6.312-22.905-1.197L-63.734,46.108z"/>
		
			<linearGradient id="SVGID_16_" gradientUnits="userSpaceOnUse" x1="227.6558" y1="764.376" x2="251.7539" y2="764.376" gradientTransform="matrix(1, 0, 0, 1, -291.92, -719.675)">
			<stop offset="0.0056" style="stop-color: rgb(112, 144, 195);"/>
			<stop offset="0.5449" style="stop-color: rgb(193, 231, 237);"/>
			<stop offset="1" style="stop-color: rgb(255, 255, 255);"/>
		</linearGradient>
		<path opacity="0.33" fill="url(#SVGID_16_)" enable-background="new    " d="M-64.264,45.44c12.585-5.205,18.4-2.531,24.098,1.271    l-0.049,0.147c-5.984-3.873-11.428-6.449-23.958-1.336L-64.264,45.44z"/>
		
			<radialGradient id="SVGID_17_" cx="227.5825" cy="765.1982" r="0.0815" gradientTransform="matrix(1, 0, 0, 1, -291.92, -719.675)" gradientUnits="userSpaceOnUse">
			<stop offset="0" style="stop-color: rgb(126, 158, 196);"/>
			<stop offset="1" style="stop-color: rgb(10, 80, 161);"/>
		</radialGradient>
		<path fill="url(#SVGID_17_)" d="M-64.319,45.606l-0.073-0.018c0.027-0.088,0.092-0.123,0.112-0.128l0.009-0.003    C-64.271,45.457-64.283,45.501-64.319,45.606z"/>
		
			<radialGradient id="SVGID_18_" cx="211.6792" cy="785.7676" r="40.7766" gradientTransform="matrix(1, 0, 0, 1, -291.92, -719.675)" gradientUnits="userSpaceOnUse">
			<stop offset="0.0036" style="stop-color: rgb(216, 238, 237);"/>
			<stop offset="0.1733" style="stop-color: rgb(152, 216, 215);"/>
			<stop offset="0.2237" style="stop-color: rgb(142, 211, 211);"/>
			<stop offset="0.3088" style="stop-color: rgb(116, 198, 202);"/>
			<stop offset="0.4176" style="stop-color: rgb(73, 177, 186);"/>
			<stop offset="0.4477" style="stop-color: rgb(60, 170, 181);"/>
			<stop offset="0.4987" style="stop-color: rgb(54, 159, 181);"/>
			<stop offset="0.6306" style="stop-color: rgb(42, 136, 180);"/>
			<stop offset="0.7129" style="stop-color: rgb(37, 127, 180);"/>
			<stop offset="1" style="stop-color: rgb(65, 97, 171);"/>
		</radialGradient>
		<path opacity="0.5" fill="url(#SVGID_18_)" enable-background="new    " d="M-46.696,68.677    c-5.452-3.666-11.102-6.466-23.536-1.416c-0.083-0.05-0.217-0.175-0.184-0.332c12.624-5.373,18.49-2.232,23.942,1.432    C-46.53,68.56-46.633,68.627-46.696,68.677z"/>
	</g>
	<g>
		<g>
			
				<radialGradient id="SVGID_19_" cx="253.3389" cy="766.8311" r="30.7777" gradientTransform="matrix(1, 0, 0, 1, -291.92, -719.675)" gradientUnits="userSpaceOnUse">
				<stop offset="0" style="stop-color: rgb(252, 245, 176);"/>
				<stop offset="0.1657" style="stop-color: rgb(247, 237, 160);"/>
				<stop offset="0.2849" style="stop-color: rgb(243, 229, 145);"/>
				<stop offset="0.65" style="stop-color: rgb(252, 209, 24);"/>
				<stop offset="0.8024" style="stop-color: rgb(247, 165, 12);"/>
				<stop offset="0.9288" style="stop-color: rgb(243, 134, 3);"/>
				<stop offset="1" style="stop-color: rgb(242, 123, 0);"/>
			</radialGradient>
			<path fill="url(#SVGID_19_)" d="M-36.929,48.942c5.448,3.666,11.02,6.354,23.825,1.976l-5.977,20.791     c-12.568,5.198-18.603,2.255-24.045-1.435L-36.929,48.942z"/>
		</g>
		
			<linearGradient id="SVGID_20_" gradientUnits="userSpaceOnUse" x1="273.7803" y1="791.8594" x2="273.6525" y2="792.3361" gradientTransform="matrix(1, 0, 0, 1, -291.92, -719.675)">
			<stop offset="0" style="stop-color: rgb(222, 152, 13);"/>
			<stop offset="1" style="stop-color: rgb(168, 93, 16);"/>
		</linearGradient>
		<path fill="url(#SVGID_20_)" d="M-18.02,72.446c-0.056,0.115-0.168,0.182-0.204,0.203c-0.01,0-0.017,0.004-0.017,0.004    s-0.104,0.011-0.197-0.061c0.247-0.136,0.317-0.404,0.317-0.404S-17.977,72.31-18.02,72.446z"/>
		
			<linearGradient id="SVGID_21_" gradientUnits="userSpaceOnUse" x1="273.7891" y1="781.624" x2="279.873" y2="781.624" gradientTransform="matrix(1, 0, 0, 1, -291.92, -719.675)">
			<stop offset="0" style="stop-color: rgb(222, 177, 80);"/>
			<stop offset="1" style="stop-color: rgb(255, 248, 179);"/>
		</linearGradient>
		<path fill="url(#SVGID_21_)" d="M-18.02,72.446c0.022-0.117-0.111-0.227-0.111-0.227l5.959-20.767c0,0,0.096,0.085,0.125,0.151    L-18.02,72.446z"/>
		
			<linearGradient id="SVGID_22_" gradientUnits="userSpaceOnUse" x1="279.8145" y1="770.8945" x2="279.8145" y2="771.29" gradientTransform="matrix(1, 0, 0, 1, -291.92, -719.675)">
			<stop offset="0.0056" style="stop-color: rgb(198, 124, 12);"/>
			<stop offset="1" style="stop-color: rgb(222, 152, 13);"/>
		</linearGradient>
		<path fill="url(#SVGID_22_)" d="M-12.049,51.614c0,0-0.018-0.063-0.125-0.148c0.048-0.201,0.012-0.246,0.012-0.246l0.015,0.01    C-12.147,51.228-11.994,51.373-12.049,51.614z"/>
		
			<linearGradient id="SVGID_23_" gradientUnits="userSpaceOnUse" x1="278.9404" y1="770.4277" x2="279.1884" y2="770.8404" gradientTransform="matrix(1, 0, 0, 1, -291.92, -719.675)">
			<stop offset="0.0056" style="stop-color: rgb(254, 212, 15);"/>
			<stop offset="1" style="stop-color: rgb(168, 93, 16);"/>
		</linearGradient>
		<path fill="url(#SVGID_23_)" d="M-12.644,51.112c0,0-0.162-0.198-0.499-0.141c0.017-0.074,0.045-0.166,0.153-0.209    c0.202-0.031,0.298,0.02,0.342,0.065c0.025,0.022,0.032,0.042,0.032,0.042C-12.587,50.987-12.644,51.112-12.644,51.112z"/>
		
			<linearGradient id="SVGID_24_" gradientUnits="userSpaceOnUse" x1="279.5869" y1="770.7451" x2="279.4341" y2="770.9271" gradientTransform="matrix(1, 0, 0, 1, -291.92, -719.675)">
			<stop offset="0.0056" style="stop-color: rgb(254, 212, 15);"/>
			<stop offset="1" style="stop-color: rgb(168, 93, 16);"/>
		</linearGradient>
		<path fill="url(#SVGID_24_)" d="M-12.648,50.829l0.501,0.398c0.025,0.133-0.027,0.269-0.027,0.269l-0.493-0.396    C-12.667,51.101-12.619,50.948-12.648,50.829z"/>
		<polygon opacity="0.66" fill="#B37E00" enable-background="new    " points="-18.664,71.842 -12.671,51.065 -12.168,51.47 -18.117,72.239 -18.143,72.292"/>
		
			<linearGradient id="SVGID_25_" gradientUnits="userSpaceOnUse" x1="254.9316" y1="770.7158" x2="278.9316" y2="770.7158" gradientTransform="matrix(1, 0, 0, 1, -291.92, -719.675)">
			<stop offset="0" style="stop-color: rgb(255, 248, 251);"/>
			<stop offset="1" style="stop-color: rgb(254, 194, 54);"/>
		</linearGradient>
		<path fill="url(#SVGID_25_)" d="M-13.122,50.993c-12.621,4.304-18.399,1.746-23.845-1.924c0.011-0.041,0.036-0.135-0.022-0.229    c5.447,3.668,11.472,6.167,24,1.925C-13.087,50.829-13.097,50.918-13.122,50.993z"/>
		<polygon fill="#D9A200" points="-37.944,49.326 -37.525,49.042 -43.593,70.196 -44.066,70.571 -44.066,70.522"/>
		
			<linearGradient id="SVGID_26_" gradientUnits="userSpaceOnUse" x1="276.3018" y1="781.1299" x2="275.7659" y2="780.9763" gradientTransform="matrix(1, 0, 0, 1, -291.92, -719.675)">
			<stop offset="0" style="stop-color: rgb(179, 126, 0);"/>
			<stop offset="1" style="stop-color: rgb(255, 158, 0);"/>
		</linearGradient>
		<path opacity="0.66" fill="url(#SVGID_26_)" enable-background="new    " d="M-19.143,71.726l6-20.76    c0.01,0,0.021-0.018,0.036-0.02c0.313-0.029,0.463,0.134,0.463,0.134l-5.978,20.733C-18.622,71.813-18.873,71.614-19.143,71.726z"/>
		<path fill="#A85D10" d="M-18.223,72.649c-12.325,5.267-20.228,2.025-25.674-1.639l0.057-0.053    c5.442,3.666,13.828,6.721,25.401,1.609C-18.345,72.646-18.223,72.649-18.223,72.649z"/>
		
			<linearGradient id="SVGID_27_" gradientUnits="userSpaceOnUse" x1="273.5107" y1="791.5771" x2="273.2438" y2="792.1766" gradientTransform="matrix(1, 0, 0, 1, -291.92, -719.675)">
			<stop offset="0.0056" style="stop-color: rgb(255, 209, 0);"/>
			<stop offset="1" style="stop-color: rgb(168, 113, 10);"/>
		</linearGradient>
		<path opacity="0.66" fill="url(#SVGID_27_)" enable-background="new    " d="M-18.627,71.806l0.51,0.434    c0,0-0.068,0.242-0.342,0.359l-0.518-0.425C-18.704,72.058-18.627,71.806-18.627,71.806z"/>
		
			<linearGradient id="SVGID_28_" gradientUnits="userSpaceOnUse" x1="248.5859" y1="792.165" x2="273.0459" y2="792.165" gradientTransform="matrix(1, 0, 0, 1, -291.92, -719.675)">
			<stop offset="0" style="stop-color: rgb(222, 152, 13);"/>
			<stop offset="0.4" style="stop-color: rgb(253, 218, 16);"/>
			<stop offset="1" style="stop-color: rgb(222, 152, 13);"/>
		</linearGradient>
		<path fill="url(#SVGID_28_)" d="M-19.133,71.698c-0.048,0.32,0.259,0.519,0.259,0.519c-13.061,4.726-18.658,1.903-24.46-1.593    c0.093-0.074,0.145-0.129,0.201-0.354c0.011,0.004,0.085-0.008,0.098,0C-37.425,73.724-30.942,76.585-19.133,71.698z"/>
		<path fill="#C67C0C" d="M-43.838,70.985l0.504-0.362c4.991,3.11,11.981,6.515,24.389,1.535l0.51,0.431    C-29.964,77.701-38.395,74.649-43.838,70.985z"/>
		<path fill="#DE980D" d="M-43.795,71.001l-0.058,0.041c0,0-0.327-0.182-0.213-0.52C-44.038,70.853-43.795,71.001-43.795,71.001z"/>
		
			<linearGradient id="SVGID_29_" gradientUnits="userSpaceOnUse" x1="248.4165" y1="790.4834" x2="248.0232" y2="790.0466" gradientTransform="matrix(1, 0, 0, 1, -291.92, -719.675)">
			<stop offset="0" style="stop-color: rgb(222, 152, 13);"/>
			<stop offset="0.1" style="stop-color: rgb(222, 152, 13);"/>
			<stop offset="0.7" style="stop-color: rgb(253, 218, 16);"/>
			<stop offset="1" style="stop-color: rgb(222, 152, 13);"/>
		</linearGradient>
		<path fill="url(#SVGID_29_)" d="M-44.066,70.522l0.473-0.389c-0.026,0.346,0.309,0.475,0.309,0.475l-0.519,0.397    C-43.803,71.007-44.092,70.866-44.066,70.522z"/>
		
			<linearGradient id="SVGID_30_" gradientUnits="userSpaceOnUse" x1="248.4277" y1="789.749" x2="248.7047" y2="790.2487" gradientTransform="matrix(1, 0, 0, 1, -291.92, -719.675)">
			<stop offset="0" style="stop-color: rgb(222, 152, 13);"/>
			<stop offset="0.4" style="stop-color: rgb(254, 191, 15);"/>
			<stop offset="0.8" style="stop-color: rgb(254, 212, 15);"/>
			<stop offset="1" style="stop-color: rgb(222, 152, 13);"/>
		</linearGradient>
		<path fill="url(#SVGID_30_)" d="M-43.627,70.149c0.169-0.065,0.325,0.011,0.505,0.115c-0.06,0.223-0.102,0.301-0.194,0.365    C-43.431,70.565-43.655,70.433-43.627,70.149z"/>
		<path fill="#DE980D" d="M-37.443,48.864l-0.092,0.18l-0.421,0.303c0.03-0.142,0.376-0.392,0.483-0.465    C-37.458,48.87-37.443,48.864-37.443,48.864z"/>
		
			<radialGradient id="SVGID_31_" cx="254.6201" cy="768.4512" r="0.3017" gradientTransform="matrix(1, 0, 0, 1, -291.92, -719.675)" gradientUnits="userSpaceOnUse">
			<stop offset="0" style="stop-color: rgb(254, 235, 113);"/>
			<stop offset="1" style="stop-color: rgb(222, 152, 13);"/>
		</radialGradient>
		<path fill="url(#SVGID_31_)" d="M-36.972,49.065c-0.25-0.142-0.474-0.068-0.563-0.021c0.015-0.047,0.067-0.167,0.067-0.167    c0.203-0.127,0.293-0.127,0.479-0.037C-36.936,48.933-36.957,49.013-36.972,49.065z"/>
		
			<linearGradient id="SVGID_32_" gradientUnits="userSpaceOnUse" x1="251.9063" y1="779.3721" x2="251.343" y2="779.2107" gradientTransform="matrix(1, 0, 0, 1, -291.92, -719.675)">
			<stop offset="0.0056" style="stop-color: rgb(255, 239, 187);"/>
			<stop offset="1" style="stop-color: rgb(255, 191, 0);"/>
		</linearGradient>
		<path fill="url(#SVGID_32_)" d="M-43.076,70.3c-0.179-0.105-0.383-0.184-0.556-0.115l6.106-21.143    c0.094-0.044,0.31-0.12,0.559,0.027L-43.076,70.3z"/>
		
			<linearGradient id="SVGID_33_" gradientUnits="userSpaceOnUse" x1="253.7549" y1="770.9756" x2="279.8271" y2="770.9756" gradientTransform="matrix(1, 0, 0, 1, -291.92, -719.675)">
			<stop offset="0.0056" style="stop-color: rgb(252, 168, 89);"/>
			<stop offset="0.2135" style="stop-color: rgb(253, 195, 15);"/>
			<stop offset="1" style="stop-color: rgb(181, 28, 0);"/>
		</linearGradient>
		<path opacity="0.33" fill="url(#SVGID_33_)" enable-background="new    " d="M-37.838,49.185    c1.864,1.617,9.958,8.234,25.691,2.043l-0.501-0.398c-0.043-0.046-0.139-0.098-0.341-0.064c-12.528,4.242-18.553,1.743-24-1.925    c0,0.005,0,0.005,0,0.005c-0.183-0.093-0.274-0.093-0.475,0.037C-37.716,49.056-37.716,49.054-37.838,49.185z"/>
		
			<linearGradient id="SVGID_34_" gradientUnits="userSpaceOnUse" x1="253.9678" y1="771.3154" x2="279.876" y2="771.3154" gradientTransform="matrix(1, 0, 0, 1, -291.92, -719.675)">
			<stop offset="0.0056" style="stop-color: rgb(255, 246, 216);"/>
			<stop offset="0.525" style="stop-color: rgb(253, 218, 16);"/>
			<stop offset="1" style="stop-color: rgb(249, 189, 12);"/>
		</linearGradient>
		<path opacity="0.33" fill="url(#SVGID_34_)" enable-background="new    " d="M-12.147,51.228L-12.147,51.228    c-15.733,6.191-23.828-0.426-25.691-2.043c-0.049,0.045-0.087,0.096-0.105,0.137v0.005l-0.006,0.016    c0,0.001-0.002,0.005-0.002,0.005h0.002l-0.003,0.01c1.625,1.422,9.755,8.508,25.908,2.101    C-12.062,51.315-12.147,51.228-12.147,51.228z"/>
		
			<linearGradient id="SVGID_35_" gradientUnits="userSpaceOnUse" x1="273.085" y1="791.6172" x2="272.7237" y2="791.3048" gradientTransform="matrix(1, 0, 0, 1, -291.92, -719.675)">
			<stop offset="0" style="stop-color: rgb(234, 185, 73);"/>
			<stop offset="0.0722" style="stop-color: rgb(237, 194, 90);"/>
			<stop offset="0.2779" style="stop-color: rgb(243, 216, 131);"/>
			<stop offset="0.4784" style="stop-color: rgb(248, 233, 164);"/>
			<stop offset="0.6698" style="stop-color: rgb(252, 245, 188);"/>
			<stop offset="0.8479" style="stop-color: rgb(254, 252, 202);"/>
			<stop offset="1" style="stop-color: rgb(255, 255, 207);"/>
		</linearGradient>
		<path fill="url(#SVGID_35_)" d="M-18.944,72.16c0,0-0.232-0.142-0.188-0.462c0.318-0.086,0.513,0.115,0.513,0.115    S-18.67,72.042-18.944,72.16z"/>
	</g>
	<g>
		
			<radialGradient id="SVGID_36_" cx="252.4014" cy="762.5977" r="29.2133" gradientTransform="matrix(1, 0, 0, 1, -291.92, -719.675)" gradientUnits="userSpaceOnUse">
			<stop offset="0.0036" style="stop-color: rgb(239, 217, 22);"/>
			<stop offset="0.1053" style="stop-color: rgb(239, 213, 22);"/>
			<stop offset="0.216" style="stop-color: rgb(237, 199, 21);"/>
			<stop offset="0.3308" style="stop-color: rgb(235, 178, 19);"/>
			<stop offset="0.4485" style="stop-color: rgb(232, 147, 18);"/>
			<stop offset="0.5673" style="stop-color: rgb(227, 109, 15);"/>
			<stop offset="0.65" style="stop-color: rgb(224, 77, 13);"/>
			<stop offset="0.7851" style="stop-color: rgb(206, 41, 7);"/>
			<stop offset="0.9224" style="stop-color: rgb(191, 11, 2);"/>
			<stop offset="1" style="stop-color: rgb(185, 0, 0);"/>
		</radialGradient>
		<path fill="url(#SVGID_36_)" d="M-39.171,42.972c-3.279-2.209-6.808-4.275-11.821-4.312c-3.306-0.026-7.244,0.915-12.243,2.979    l6.193-21.462c12.574-5.2,18.616-2.252,24.063,1.432L-39.171,42.972z"/>
		<path fill="#BC1B00" d="M-39.178,42.965l6.197-21.355c0.068,0.043,0.096,0.079,0.13,0.121l-6.193,21.386    C-39.079,43.026-39.178,42.965-39.178,42.965z"/>
		<path fill="#BC1B00" d="M-62.64,42.263c1.984-0.814,3.817-1.416,5.52-1.832c0.415-0.102,0.782-0.188,1.22-0.272    c0.4-0.082,0.797-0.159,1.183-0.218c0.605-0.088,1.194-0.166,1.772-0.213c0.488-0.039,0.965-0.065,1.432-0.069    c0.451-0.005,0.896,0,1.328,0.022c0.382,0.022,0.757,0.053,1.128,0.096c0.313,0.035,0.618,0.076,0.922,0.127    c0.637,0.109,1.255,0.244,1.851,0.412c2.41,0.683,4.55,1.845,6.518,3.154c-0.016,0.008-0.063-0.014-0.081-0.023    c-0.019-0.01-0.028-0.01-0.047-0.02c-2.659-1.686-5.513-3.156-9.04-3.589c-3.605-0.44-7.815,0.181-13.481,2.425    c0,0-0.127,0.059-0.181,0.065C-62.64,42.341-62.63,42.306-62.64,42.263z"/>
		<path fill="#BC1B00" d="M-39.391,43.278c0,0,0.081,0.058,0.176,0.037l-0.388,0.176c-0.106,0.027-0.232-0.036-0.232-0.036    L-39.391,43.278z"/>
		<path fill="#B81A00" d="M-62.638,42.265c0,0,0.026,0.043,0.042,0.069c-0.034,0.005-0.043,0.015-0.136-0.028    c-0.014-0.004-0.03-0.019-0.047-0.033l-0.403-0.313l-0.038-0.03c0.054-0.002,0.094,0.021,0.122,0.018L-62.638,42.265z"/>
		<path fill="#E82E00" d="M-39.171,42.97c0.042,0.026,0.094,0.043,0.131,0.131c-0.027,0.117-0.123,0.176-0.176,0.215    c-0.097,0.026-0.189-0.045-0.189-0.045C-39.344,43.226-39.234,43.147-39.171,42.97z"/>
		<path fill="#F83603" d="M-32.944,21.463l0.007,0.002c0.08,0.056,0.109,0.16,0.085,0.264l-0.005,0.009    c-0.032-0.038-0.056-0.078-0.125-0.13L-32.944,21.463z"/>
		<path fill="#E32E00" d="M-63.212,41.942c-0.061-0.045-0.118-0.228-0.084-0.336l0.08-0.024c-0.032,0.155,0.063,0.335,0.149,0.385    C-63.066,41.967-63.126,42.002-63.212,41.942z"/>
		<g>
			<g>
				
					<linearGradient id="SVGID_38_" gradientUnits="userSpaceOnUse" x1="234.8218" y1="739.7822" x2="234.9424" y2="739.7822" gradientTransform="matrix(1, 0, 0, 1, -291.92, -719.675)">
					<stop offset="0" style="stop-color: rgb(253, 126, 54);"/>
					<stop offset="1" style="stop-color: rgb(189, 111, 79);"/>
				</linearGradient>
				<path id="SVGID_37_" fill="url(#SVGID_38_)" d="M-57.04,20.181l-0.059-0.015c0.024-0.095,0.089-0.124,0.113-0.131l0.008-0.002      C-56.978,20.032-57.007,20.077-57.04,20.181z"/>
			</g>
		</g>
		<g>
			<path fill="#E82E00" d="M-39.379,43.283c-5.861-4.066-13.039-6.618-23.7-1.321l0.436,0.309     c11.651-4.76,17.723-2.188,22.837,1.184L-39.379,43.283z"/>
			<path fill="#E82E00" d="M-39.391,43.278c-3.356-2.189-6.492-4.006-11.466-4.147c-3.63,0.073-6.419,0.537-12.211,2.836     c-0.086-0.047-0.195-0.169-0.167-0.327c5.019-2.136,9.001-3.061,12.306-3.027c5.01,0.049,8.479,2.146,11.758,4.352     C-39.227,43.16-39.334,43.233-39.391,43.278z"/>
		</g>
		<path fill="#E32E00" d="M-57.099,20.164l0.057,0.017l-6.179,21.449c-0.014-0.01-0.076-0.023-0.076-0.023L-57.099,20.164z"/>
		
			<linearGradient id="SVGID_39_" gradientUnits="userSpaceOnUse" x1="234.8809" y1="739.0928" x2="258.9766" y2="739.0928" gradientTransform="matrix(1, 0, 0, 1, -291.92, -719.675)">
			<stop offset="0" style="stop-color: rgb(252, 43, 33);"/>
			<stop offset="0.236" style="stop-color: rgb(255, 89, 10);"/>
			<stop offset="0.2478" style="stop-color: rgb(251, 87, 11);"/>
			<stop offset="0.3274" style="stop-color: rgb(231, 76, 14);"/>
			<stop offset="0.4172" style="stop-color: rgb(216, 69, 17);"/>
			<stop offset="0.5247" style="stop-color: rgb(208, 64, 19);"/>
			<stop offset="0.6966" style="stop-color: rgb(205, 63, 19);"/>
			<stop offset="0.7958" style="stop-color: rgb(208, 66, 19);"/>
			<stop offset="0.8688" style="stop-color: rgb(216, 75, 20);"/>
			<stop offset="0.9334" style="stop-color: rgb(230, 91, 22);"/>
			<stop offset="0.9927" style="stop-color: rgb(249, 114, 25);"/>
			<stop offset="1" style="stop-color: rgb(252, 117, 25);"/>
		</linearGradient>
		<path opacity="0.66" fill="url(#SVGID_39_)" enable-background="new    " d="M-32.979,21.61    c-5.451-3.688-11.545-6.541-24.06-1.429c0.026-0.109,0.053-0.146,0.053-0.146c12.576-5.2,18.597-2.26,24.042,1.428L-32.979,21.61z    "/>
		<path opacity="0.33" fill="#FE8411" enable-background="new    " d="M-33.699,22.317c-4.44-2.883-10.309-6.494-22.824-1.383    c0.028-0.107,0.06-0.163,0.06-0.163c12.574-5.199,18.501-1.238,22.809,1.39L-33.699,22.317z"/>
		<g opacity="0.6">
			
				<linearGradient id="SVGID_40_" gradientUnits="userSpaceOnUse" x1="228.6787" y1="751.0049" x2="235.4497" y2="751.0049" gradientTransform="matrix(1, 0, 0, 1, -291.92, -719.675)">
				<stop offset="0" style="stop-color: rgb(253, 126, 54);"/>
				<stop offset="1" style="stop-color: rgb(189, 111, 79);"/>
			</linearGradient>
			<path opacity="0.6" fill="url(#SVGID_40_)" enable-background="new    " d="M-56.835,20.323     c-0.035,0.014-0.156-0.003-0.156-0.003l-6.25,21.645l0.462,0.31c0.016,0.015,0.033,0.029,0.047,0.033     c0.079,0.035,0.095,0.035,0.12,0.03l6.123-21.497l0.019-0.064L-56.835,20.323z"/>
		</g>
		
			<linearGradient id="SVGID_41_" gradientUnits="userSpaceOnUse" x1="260.1475" y1="742.2744" x2="238.7361" y2="737.5018" gradientTransform="matrix(1, 0, 0, 1, -291.92, -719.675)">
			<stop offset="0" style="stop-color: rgb(254, 86, 13);"/>
			<stop offset="1" style="stop-color: rgb(140, 21, 1);"/>
		</linearGradient>
		<path opacity="0.5" fill="url(#SVGID_41_)" enable-background="new    " d="M-33.668,22.178c0.002,0.003,0.004,0.004,0.007,0.008    c0-0.008,0.001-0.01,0.001-0.014L-33.668,22.178z"/>
		
			<linearGradient id="SVGID_42_" gradientUnits="userSpaceOnUse" x1="246.9155" y1="742.0332" x2="246.6418" y2="734.5537" gradientTransform="matrix(1, 0, 0, 1, -291.92, -719.675)">
			<stop offset="0" style="stop-color: rgb(254, 86, 13);"/>
			<stop offset="1" style="stop-color: rgb(140, 21, 1);"/>
		</linearGradient>
		<path opacity="0.5" fill="url(#SVGID_42_)" enable-background="new    " d="M-33.516,21.686    c-2.067-1.385-5.508-3.633-10.541-3.985c-5.339-0.375-12.104,2.342-12.778,2.622l0.364,0.453l-0.019,0.064    c0.019-0.004,0.037-0.015,0.055-0.022c12.466-5.361,20.144-0.52,22.767,1.36l0.009-0.006l0.392-0.321    C-33.347,21.798-33.43,21.742-33.516,21.686z"/>
		<path opacity="0.5" fill="#FFF4C5" enable-background="new    " d="M-56.835,20.323c0.675-0.28,7.439-2.997,12.778-2.622    c5.033,0.352,8.474,2.601,10.541,3.985c0.085,0.057,0.168,0.112,0.247,0.165l0.387-0.311c-0.017-0.026-0.028-0.056-0.056-0.074    c-5.326-3.608-11.211-6.497-23.229-1.761c-0.269,0.109-0.538,0.213-0.812,0.328l0,0L-56.835,20.323z"/>
		
			<linearGradient id="SVGID_43_" gradientUnits="userSpaceOnUse" x1="252.0439" y1="752.1592" x2="259.0752" y2="752.1592" gradientTransform="matrix(1, 0, 0, 1, -291.92, -719.675)">
			<stop offset="0" style="stop-color: rgb(253, 126, 54);"/>
			<stop offset="1" style="stop-color: rgb(252, 137, 91);"/>
		</linearGradient>
		<path opacity="0.6" fill="url(#SVGID_43_)" enable-background="new    " d="M-32.944,21.471l-0.035,0.139l-0.29,0.241    l-0.391,0.321c0,0.003-0.001,0.006-0.001,0.014c-1.298,4.452-5.355,18.351-6.215,21.249c0.01,0.004,0.017,0.006,0.028,0.014    c0.003,0.002,0.01,0.006,0.013,0.007l0,0c0,0,0.126,0.063,0.232,0.036l0.388-0.176c-0.001,0.002-0.004,0-0.011,0.002    c0.004-0.002,0.007,0,0.009-0.002c0.049-0.039,0.144-0.096,0.171-0.199l0,0l0.001-0.008c0-0.002,0.003-0.002,0.003-0.006l0,0    l5.938-20.508l0,0l0.147-0.505l0.005-0.021l0.099-0.336C-32.833,21.66-32.846,21.515-32.944,21.471z"/>
		
			<linearGradient id="SVGID_44_" gradientUnits="userSpaceOnUse" x1="228.6953" y1="760.6084" x2="252.7637" y2="760.6084" gradientTransform="matrix(1, 0, 0, 1, -291.92, -719.675)">
			<stop offset="0" style="stop-color: rgb(253, 155, 32);"/>
			<stop offset="0.25" style="stop-color: rgb(253, 155, 32);"/>
			<stop offset="0.3365" style="stop-color: rgb(253, 184, 48);"/>
			<stop offset="0.4292" style="stop-color: rgb(254, 210, 62);"/>
			<stop offset="0.4851" style="stop-color: rgb(254, 219, 67);"/>
			<stop offset="0.75" style="stop-color: rgb(254, 132, 17);"/>
			<stop offset="1" style="stop-color: rgb(254, 86, 13);"/>
		</linearGradient>
		<path opacity="0.5" fill="url(#SVGID_44_)" enable-background="new    " d="M-39.378,43.269c-3.354-2.19-6.492-4.008-11.463-4.15    c-3.632,0.074-6.42,0.537-12.212,2.836c-0.089-0.045-0.195-0.167-0.167-0.324c5.019-2.138,9.001-3.063,12.308-3.029    c5.008,0.053,8.478,2.146,11.756,4.353C-39.213,43.147-39.32,43.224-39.378,43.269z"/>
		<path fill="none" d="M-57.04,20.065c-0.023,0.02-0.046,0.05-0.059,0.099l-0.318,1.092l-5.879,20.351    c-0.034,0.108,0.023,0.291,0.084,0.334c0.006,0.004,0.01,0.004,0.016,0.008l0.013,0.012l-0.059,0.004l6.25-21.644    c0,0,0.122,0.017,0.156,0.003L-57.04,20.065z"/>
		<path fill="#F83603" d="M-32.944,21.463l0.007,0.004c0.08,0.054,0.109,0.158,0.085,0.262l-0.005,0.009    c-0.032-0.038-0.056-0.076-0.125-0.13L-32.944,21.463z"/>
		<g>
			<g>
				
					<linearGradient id="SVGID_45_" gradientUnits="userSpaceOnUse" x1="234.8218" y1="739.7822" x2="234.9431" y2="739.7822" gradientTransform="matrix(1, 0, 0, 1, -291.92, -719.675)">
					<stop offset="0" style="stop-color: rgb(253, 126, 54);"/>
					<stop offset="1" style="stop-color: rgb(189, 111, 79);"/>
				</linearGradient>
				<path id="SVGID_46_" fill="url(#SVGID_45_)" d="M-57.04,20.181l-0.058-0.015c0.025-0.092,0.089-0.123,0.112-0.131l0.009-0.002      C-56.977,20.032-57.007,20.077-57.04,20.181z"/>
			</g>
		</g>
		
			<linearGradient id="SVGID_47_" gradientUnits="userSpaceOnUse" x1="234.8799" y1="739.0928" x2="258.9766" y2="739.0928" gradientTransform="matrix(1, 0, 0, 1, -291.92, -719.675)">
			<stop offset="0" style="stop-color: rgb(252, 43, 33);"/>
			<stop offset="0.236" style="stop-color: rgb(255, 89, 10);"/>
			<stop offset="0.2478" style="stop-color: rgb(251, 87, 11);"/>
			<stop offset="0.3274" style="stop-color: rgb(231, 76, 14);"/>
			<stop offset="0.4172" style="stop-color: rgb(216, 69, 17);"/>
			<stop offset="0.5247" style="stop-color: rgb(208, 64, 19);"/>
			<stop offset="0.6966" style="stop-color: rgb(205, 63, 19);"/>
			<stop offset="0.7958" style="stop-color: rgb(208, 66, 19);"/>
			<stop offset="0.8688" style="stop-color: rgb(216, 75, 20);"/>
			<stop offset="0.9334" style="stop-color: rgb(230, 91, 22);"/>
			<stop offset="0.9927" style="stop-color: rgb(249, 114, 25);"/>
			<stop offset="1" style="stop-color: rgb(252, 117, 25);"/>
		</linearGradient>
		<path opacity="0.66" fill="url(#SVGID_47_)" enable-background="new    " d="M-32.979,21.61    c-5.448-3.688-11.545-6.539-24.061-1.428c0.027-0.106,0.054-0.146,0.054-0.146c12.576-5.2,18.597-2.26,24.042,1.428L-32.979,21.61    z"/>
	</g>
	<g>
		
			<radialGradient id="SVGID_48_" cx="253.2051" cy="765.8408" r="33.4307" gradientTransform="matrix(1, 0, 0, 1, -291.92, -719.675)" gradientUnits="userSpaceOnUse">
			<stop offset="0.005" style="stop-color: rgb(209, 231, 135);"/>
			<stop offset="0.1227" style="stop-color: rgb(206, 229, 131);"/>
			<stop offset="0.2473" style="stop-color: rgb(196, 222, 118);"/>
			<stop offset="0.3751" style="stop-color: rgb(179, 211, 97);"/>
			<stop offset="0.5051" style="stop-color: rgb(156, 196, 67);"/>
			<stop offset="0.6356" style="stop-color: rgb(127, 176, 29);"/>
			<stop offset="0.6495" style="stop-color: rgb(123, 174, 25);"/>
			<stop offset="0.7789" style="stop-color: rgb(87, 141, 25);"/>
			<stop offset="0.922" style="stop-color: rgb(54, 110, 26);"/>
			<stop offset="1" style="stop-color: rgb(41, 98, 26);"/>
		</radialGradient>
		<path fill="url(#SVGID_48_)" d="M-5.684,25.25c-12.557,5.189-18.59,2.271-24.026-1.391l-6.195,21.481    c5.432,3.683,11.996,6.703,24.035,1.317L-5.684,25.25z"/>
		
			<linearGradient id="SVGID_49_" gradientUnits="userSpaceOnUse" x1="262.208" y1="745.5352" x2="286.3516" y2="745.5352" gradientTransform="matrix(1, 0, 0, 1, -291.92, -719.675)">
			<stop offset="0" style="stop-color: rgb(211, 237, 137);"/>
			<stop offset="1" style="stop-color: rgb(95, 130, 28);"/>
		</linearGradient>
		<path fill="url(#SVGID_49_)" d="M-5.71,25.266c-12.556,5.188-18.566,2.269-24.002-1.389c0.013-0.048,0.033-0.14,0-0.231    c5.436,3.66,11.595,6.608,24.144,1.417C-5.671,25.122-5.679,25.194-5.71,25.266z"/>
		<polygon fill="#8CAC42" points="-30.673,24.134 -30.222,23.813 -36.355,45.104 -36.827,45.481 -36.827,45.433"/>
		
			<linearGradient id="SVGID_50_" gradientUnits="userSpaceOnUse" x1="259.1553" y1="754.2754" x2="258.5822" y2="754.1111" gradientTransform="matrix(1, 0, 0, 1, -291.92, -719.675)">
			<stop offset="0.2822" style="stop-color: rgb(211, 237, 137);"/>
			<stop offset="0.4045" style="stop-color: rgb(211, 237, 137);"/>
			<stop offset="1" style="stop-color: rgb(95, 130, 28);"/>
		</linearGradient>
		<path fill="url(#SVGID_50_)" d="M-35.892,45.349c-0.188-0.109-0.329-0.326-0.499-0.258l6.146-21.267    c0.095-0.043,0.331-0.122,0.557,0.053L-35.892,45.349z"/>
		<path fill="#5F821C" d="M-30.167,23.677l-0.062,0.151l-0.448,0.323c0.04-0.146,0.385-0.387,0.485-0.463    C-30.171,23.679-30.167,23.677-30.167,23.677z"/>
		
			<linearGradient id="SVGID_51_" gradientUnits="userSpaceOnUse" x1="262.2324" y1="743.4102" x2="261.681" y2="743.3716" gradientTransform="matrix(1, 0, 0, 1, -291.92, -719.675)">
			<stop offset="0" style="stop-color: rgb(122, 169, 34);"/>
			<stop offset="0.2" style="stop-color: rgb(211, 237, 137);"/>
			<stop offset="0.525" style="stop-color: rgb(211, 237, 137);"/>
			<stop offset="1" style="stop-color: rgb(122, 169, 34);"/>
		</linearGradient>
		<path fill="url(#SVGID_51_)" d="M-29.709,23.859c-0.233-0.141-0.446-0.07-0.539-0.03c0.013-0.047,0.055-0.141,0.055-0.141    c0.203-0.126,0.287-0.131,0.48-0.042C-29.688,23.718-29.679,23.788-29.709,23.859z"/>
		
			<linearGradient id="SVGID_52_" gradientUnits="userSpaceOnUse" x1="280.4619" y1="755.9424" x2="287.1787" y2="755.9424" gradientTransform="matrix(1, 0, 0, 1, -291.92, -719.675)">
			<stop offset="0.0056" style="stop-color: rgb(122, 169, 34);"/>
			<stop offset="0.1685" style="stop-color: rgb(29, 74, 32);"/>
			<stop offset="0.382" style="stop-color: rgb(38, 85, 27);"/>
			<stop offset="1" style="stop-color: rgb(122, 169, 34);"/>
		</linearGradient>
		<polygon opacity="0.81" fill="url(#SVGID_52_)" enable-background="new    " points="-11.458,46.755 -5.248,25.37 -4.741,25.772 -10.985,47.166"/>
		<path fill="#476E32" d="M-10.863,47.323c0.015-0.125-0.112-0.223-0.112-0.223l6.225-21.349c0,0,0.101,0.088,0.126,0.15    L-10.863,47.323z"/>
		<path fill="#1D3419" d="M-11.071,47.521c-3.355,1.525-6.527,2.313-9.475,2.567c-5.092,0.573-9.211-0.53-12.572-2.183    c-1.31-0.602-2.491-1.281-3.541-1.988l0.058-0.043c1.064,0.711,2.219,1.411,3.483,2.031c3.418,1.568,7.683,2.605,12.572,2.184    c2.783-0.318,5.86-1.141,9.259-2.645C-11.191,47.517-11.071,47.521-11.071,47.521z"/>
		
			<linearGradient id="SVGID_53_" gradientUnits="userSpaceOnUse" x1="280.499" y1="766.5469" x2="279.9574" y2="766.509" gradientTransform="matrix(1, 0, 0, 1, -291.92, -719.675)">
			<stop offset="0" style="stop-color: rgb(122, 169, 34);"/>
			<stop offset="1" style="stop-color: rgb(211, 237, 137);"/>
		</linearGradient>
		<path fill="url(#SVGID_53_)" d="M-11.75,47.123c0,0-0.237-0.214-0.197-0.526c0.329-0.086,0.536,0.117,0.536,0.117    S-11.476,47.005-11.75,47.123z"/>
		
			<linearGradient id="SVGID_54_" gradientUnits="userSpaceOnUse" x1="280.7432" y1="766.5957" x2="280.3991" y2="766.9779" gradientTransform="matrix(1, 0, 0, 1, -291.92, -719.675)">
			<stop offset="0" style="stop-color: rgb(95, 130, 28);"/>
			<stop offset="1" style="stop-color: rgb(38, 85, 27);"/>
		</linearGradient>
		<path fill="url(#SVGID_54_)" d="M-11.411,46.714l0.444,0.396c0,0-0.067,0.246-0.337,0.365l-0.465-0.396    C-11.492,46.963-11.411,46.714-11.411,46.714z"/>
		
			<linearGradient id="SVGID_55_" gradientUnits="userSpaceOnUse" x1="255.7832" y1="767.2705" x2="280.2383" y2="767.2705" gradientTransform="matrix(1, 0, 0, 1, -291.92, -719.675)">
			<stop offset="0" style="stop-color: rgb(122, 169, 34);"/>
			<stop offset="0.4" style="stop-color: rgb(211, 237, 137);"/>
			<stop offset="1" style="stop-color: rgb(122, 169, 34);"/>
		</linearGradient>
		<path fill="url(#SVGID_55_)" d="M-11.87,46.586c-0.044,0.313,0.188,0.545,0.188,0.545c-12.55,5.19-19.016,2.14-24.454-1.545    c0.096-0.065,0.109-0.065,0.172-0.291C-30.53,48.978-22.316,51.556-11.87,46.586z"/>
		<path fill="#26551B" d="M-36.601,45.896l0.468-0.312c5.437,3.501,11.859,6.526,24.401,1.485l0.45,0.395    C-23.321,52.776-31.021,49.821-36.601,45.896z"/>
		<path fill="#5F821C" d="M-10.863,47.323c-0.058,0.115-0.17,0.182-0.208,0.197c-0.008,0.006-0.013,0.006-0.013,0.006    s-0.083,0.016-0.202-0.063c0.25-0.131,0.319-0.405,0.319-0.405S-10.825,47.183-10.863,47.323z"/>
		<path fill="#26551B" d="M-36.582,45.89l-0.055,0.045c0,0-0.303-0.168-0.189-0.502C-36.798,45.767-36.582,45.89-36.582,45.89z"/>
		
			<linearGradient id="SVGID_56_" gradientUnits="userSpaceOnUse" x1="255.6348" y1="765.3975" x2="255.2479" y2="764.9678" gradientTransform="matrix(1, 0, 0, 1, -291.92, -719.675)">
			<stop offset="0" style="stop-color: rgb(29, 58, 25);"/>
			<stop offset="0.1" style="stop-color: rgb(38, 85, 27);"/>
			<stop offset="0.65" style="stop-color: rgb(122, 169, 34);"/>
			<stop offset="1" style="stop-color: rgb(211, 237, 137);"/>
		</linearGradient>
		<path fill="url(#SVGID_56_)" d="M-36.827,45.433l0.453-0.356c-0.028,0.345,0.267,0.485,0.267,0.485l-0.458,0.354    C-36.565,45.918-36.851,45.774-36.827,45.433z"/>
		
			<linearGradient id="SVGID_57_" gradientUnits="userSpaceOnUse" x1="255.6221" y1="764.7041" x2="255.9028" y2="765.2106" gradientTransform="matrix(1, 0, 0, 1, -291.92, -719.675)">
			<stop offset="0" style="stop-color: rgb(95, 130, 28);"/>
			<stop offset="0.4045" style="stop-color: rgb(122, 169, 34);"/>
			<stop offset="0.8" style="stop-color: rgb(95, 130, 28);"/>
			<stop offset="1" style="stop-color: rgb(95, 130, 28);"/>
		</linearGradient>
		<path fill="url(#SVGID_57_)" d="M-36.385,45.076c0.156-0.052,0.293,0.114,0.481,0.264c-0.063,0.22-0.114,0.181-0.21,0.248    C-36.225,45.526-36.416,45.36-36.385,45.076z"/>
		
			<linearGradient id="SVGID_58_" gradientUnits="userSpaceOnUse" x1="286.9033" y1="745.252" x2="286.9832" y2="744.9803" gradientTransform="matrix(1, 0, 0, 1, -291.92, -719.675)">
			<stop offset="0" style="stop-color: rgb(91, 127, 48);"/>
			<stop offset="1" style="stop-color: rgb(211, 237, 137);"/>
		</linearGradient>
		<path opacity="0.72" fill="url(#SVGID_58_)" enable-background="new    " d="M-4.7,25.551c0.006,0.079-0.053,0.212-0.053,0.212    l-0.482-0.388c0,0,0.07-0.159,0.035-0.279C-5.038,25.164-4.727,25.504-4.7,25.551z"/>
		
			<linearGradient id="SVGID_59_" gradientUnits="userSpaceOnUse" x1="286.4082" y1="748.6807" x2="261.8242" y2="741.6313" gradientTransform="matrix(1, 0, 0, 1, -291.92, -719.675)">
			<stop offset="0" style="stop-color: rgb(29, 52, 25);"/>
			<stop offset="0.2277" style="stop-color: rgb(38, 85, 27);"/>
			<stop offset="1" style="stop-color: rgb(122, 169, 34);"/>
		</linearGradient>
		<path opacity="0.33" fill="url(#SVGID_59_)" enable-background="new    " d="M-4.71,25.531c-0.094-0.127-0.238-0.24-0.351-0.343    c-0.212-0.194-0.476-0.152-0.538-0.115l-0.003,0.007c-12.523,5.17-18.676,2.222-24.109-1.435c0.012,0.027,0.013,0.054,0.016,0.08    c-0.003-0.026-0.004-0.053-0.016-0.08c-0.192-0.088-0.277-0.084-0.48,0.042c-0.078,0.055-0.28,0.205-0.397,0.333    C-28.499,25.78-19.617,32.739-4.71,25.531z M-29.709,23.859L-29.709,23.859l-0.003,0.004c0-0.004-0.001-0.004-0.003-0.005    C-29.713,23.859-29.712,23.859-29.709,23.859c0.013-0.029,0.013-0.056,0.015-0.084C-29.696,23.809-29.7,23.838-29.709,23.859z"/>
		
			<linearGradient id="SVGID_60_" gradientUnits="userSpaceOnUse" x1="283.6396" y1="755.7412" x2="283.0704" y2="755.5779" gradientTransform="matrix(1, 0, 0, 1, -291.92, -719.675)">
			<stop offset="0" style="stop-color: rgb(95, 130, 28);"/>
			<stop offset="1" style="stop-color: rgb(117, 193, 70);"/>
		</linearGradient>
		<path opacity="0.72" fill="url(#SVGID_60_)" enable-background="new    " d="M-11.928,46.636L-5.72,25.26    c0.339-0.063,0.501,0.13,0.501,0.13l-6.192,21.322C-11.411,46.714-11.665,46.522-11.928,46.636z"/>
		
			<linearGradient id="SVGID_61_" gradientUnits="userSpaceOnUse" x1="286.21" y1="745.1465" x2="287.3145" y2="745.1465" gradientTransform="matrix(1, 0, 0, 1, -291.92, -719.675)">
			<stop offset="0" style="stop-color: rgb(211, 237, 137);"/>
			<stop offset="1" style="stop-color: rgb(95, 130, 28);"/>
		</linearGradient>
		<path opacity="0.6" fill="url(#SVGID_61_)" enable-background="new    " d="M-5.71,25.266c0.018-0.082,0.029-0.118,0.11-0.193    c0.063-0.037,0.326-0.079,0.538,0.115c0.212,0.191,0.538,0.413,0.438,0.714c-0.026-0.062-0.121-0.14-0.121-0.14l-0.474-0.373    C-5.219,25.389-5.372,25.206-5.71,25.266z"/>
		
			<linearGradient id="SVGID_62_" gradientUnits="userSpaceOnUse" x1="286.3047" y1="748.9385" x2="261.7925" y2="741.9098" gradientTransform="matrix(1, 0, 0, 1, -291.92, -719.675)">
			<stop offset="0" style="stop-color: rgb(147, 191, 129);"/>
			<stop offset="0.2277" style="stop-color: rgb(38, 85, 27);"/>
			<stop offset="1" style="stop-color: rgb(189, 226, 86);"/>
		</linearGradient>
		<path opacity="0.3" fill="url(#SVGID_62_)" enable-background="new    " d="M-30.589,24.021c-0.032,0.039-0.063,0.073-0.078,0.107    l-0.005,0.006l-0.022,0.073c1.891,1.6,10.857,8.963,26.083,1.551c-0.009-0.083-0.045-0.159-0.098-0.228    C-19.617,32.739-28.499,25.78-30.589,24.021z"/>
		
			<linearGradient id="SVGID_63_" gradientUnits="userSpaceOnUse" x1="286.9053" y1="745.2529" x2="286.9854" y2="744.9805" gradientTransform="matrix(1, 0, 0, 1, -291.92, -719.675)">
			<stop offset="0" style="stop-color: rgb(91, 127, 48);"/>
			<stop offset="1" style="stop-color: rgb(211, 237, 137);"/>
		</linearGradient>
		<path opacity="0.72" fill="url(#SVGID_63_)" enable-background="new    " d="M-4.7,25.552c0.006,0.078-0.053,0.21-0.053,0.21    l-0.481-0.388c0,0,0.07-0.158,0.038-0.279C-5.038,25.165-4.727,25.506-4.7,25.552z"/>
		
			<linearGradient id="SVGID_64_" gradientUnits="userSpaceOnUse" x1="286.21" y1="745.1475" x2="287.3154" y2="745.1475" gradientTransform="matrix(1, 0, 0, 1, -291.92, -719.675)">
			<stop offset="0" style="stop-color: rgb(211, 237, 137);"/>
			<stop offset="1" style="stop-color: rgb(95, 130, 28);"/>
		</linearGradient>
		<path opacity="0.6" fill="url(#SVGID_64_)" enable-background="new    " d="M-5.71,25.266c0.018-0.082,0.029-0.118,0.112-0.193    c0.062-0.037,0.326-0.079,0.536,0.117c0.212,0.19,0.539,0.41,0.439,0.713c-0.028-0.063-0.122-0.14-0.122-0.14l-0.474-0.375    C-5.218,25.389-5.372,25.206-5.71,25.266z"/>
	</g>
	<path d="M-13.188,71.737c0,0.277-0.096,0.515-0.289,0.705c-0.192,0.188-0.429,0.281-0.712,0.281c-0.285,0-0.521-0.093-0.709-0.277   c-0.188-0.184-0.282-0.42-0.282-0.7c0-0.276,0.096-0.513,0.286-0.703c0.192-0.19,0.428-0.284,0.713-0.284   c0.279,0,0.512,0.09,0.701,0.271C-13.285,71.218-13.188,71.453-13.188,71.737z M-13.307,71.743c0-0.249-0.085-0.459-0.255-0.626   c-0.169-0.166-0.376-0.251-0.62-0.251c-0.254,0-0.463,0.085-0.631,0.253c-0.167,0.169-0.25,0.377-0.25,0.624   c0,0.251,0.086,0.463,0.259,0.63c0.168,0.169,0.375,0.25,0.622,0.25c0.241,0,0.448-0.082,0.619-0.251   C-13.393,72.202-13.307,71.994-13.307,71.743z M-13.702,72.364h-0.214l-0.139-0.307c-0.069-0.15-0.145-0.228-0.225-0.228h-0.116   v0.534h-0.178v-1.27h0.357c0.156,0,0.276,0.034,0.358,0.107c0.069,0.061,0.104,0.141,0.104,0.236c0,0.088-0.028,0.162-0.085,0.224   c-0.056,0.062-0.134,0.103-0.237,0.123v0.006c0.071,0.015,0.14,0.095,0.21,0.233L-13.702,72.364z M-13.945,71.464   c0-0.072-0.021-0.126-0.061-0.158c-0.046-0.037-0.125-0.057-0.234-0.057h-0.157v0.432h0.19   C-14.033,71.681-13.945,71.608-13.945,71.464z"/>
	<path d="M285.438,40.867c0,0.705-0.177,1.361-0.528,1.97c-0.352,0.609-0.834,1.089-1.441,1.439   c-0.609,0.352-1.267,0.526-1.971,0.526c-0.702,0-1.356-0.175-1.966-0.526c-0.608-0.351-1.09-0.83-1.441-1.439   c-0.354-0.608-0.53-1.265-0.53-1.97c0-0.702,0.177-1.357,0.53-1.968c0.352-0.61,0.833-1.092,1.441-1.442   c0.609-0.351,1.264-0.525,1.966-0.525c0.704,0,1.361,0.175,1.971,0.525c0.607,0.351,1.09,0.832,1.441,1.442   S285.438,40.165,285.438,40.867z M284.674,40.867c0-0.877-0.31-1.627-0.931-2.246c-0.621-0.621-1.37-0.933-2.246-0.933   c-0.877,0-1.626,0.312-2.247,0.933c-0.62,0.619-0.931,1.369-0.931,2.246s0.311,1.626,0.931,2.246   c0.621,0.62,1.37,0.932,2.247,0.932c0.876,0,1.625-0.312,2.246-0.932S284.674,41.744,284.674,40.867z M279.711,38.763h1.884   c0.532,0,0.919,0.107,1.158,0.322c0.238,0.216,0.357,0.502,0.357,0.863c0,0.281-0.091,0.526-0.273,0.733   c-0.182,0.206-0.469,0.356-0.86,0.448c0.162,0.063,0.279,0.128,0.356,0.196c0.105,0.096,0.217,0.238,0.335,0.427   c0.006,0.015,0.234,0.421,0.681,1.218h-1.238c-0.403-0.801-0.673-1.279-0.81-1.437c-0.138-0.155-0.275-0.233-0.413-0.233   c-0.03,0-0.074,0.004-0.129,0.015v1.655h-1.048V38.763z M280.759,40.546h0.453c0.303,0,0.517-0.048,0.64-0.146   c0.125-0.099,0.188-0.225,0.188-0.379s-0.061-0.282-0.18-0.379c-0.117-0.099-0.32-0.146-0.605-0.146h-0.495V40.546z"/>
	<polygon points="292.838,23.292 292.838,26.595 320.314,26.595 299.931,74.772 303.23,74.772 325,23.292"/>
</g>
<g id="Layer_2">
</g>
</svg>