<svg width="400" height="341" viewBox="0 0 400 341" fill="none" xmlns="http://www.w3.org/2000/svg">
<path fill-rule="evenodd" clip-rule="evenodd" d="M390.74 126.524C388.704 130.763 388.6 135.668 388.996 140.276C389.089 143.208 388.804 146.146 389.035 149.241C388.397 155.345 389.816 161.788 388.099 167.961C388.745 168.038 388.737 168.198 389.255 168.275C388.337 169.306 388.606 170.507 388.507 171.638C389.024 173.164 389.155 174.79 388.88 176.383C389.661 179.398 389.079 182.551 389.985 185.598C390.64 188.713 392.675 191.397 393.572 194.577C392.554 195.332 391.465 196.225 390.118 196.099C385.234 196.121 380.34 196.286 375.479 195.861C376.222 192.912 379.202 190.851 379.147 187.654C379.318 181.591 379.147 175.518 379.378 169.455C380.181 163.26 379.147 157.009 379.587 150.798C378.96 146.934 380.225 143.098 379.669 139.229C377.167 141.88 374.28 144.107 371.985 146.466C370.052 148.317 368.765 150.329 367.093 152.016C365.119 149.326 363.343 146.46 360.851 144.2C359.009 141.593 356.573 139.515 354.186 137.642C353.097 141.428 353.229 145.578 352.911 149.673C352.9 153.138 353.345 156.75 353.224 159.534C353.477 161.921 352.273 164.257 352.927 166.627C353.713 169.929 354.022 173.358 353.659 176.73C352.575 181.387 353.476 186.167 354.027 190.829C354.676 191.744 355.308 192.67 356.245 193.552C356.089 194.213 356.369 195.271 355.677 195.354C352.063 196.826 348.456 195.647 345.182 195.817C343.958 195.756 342.858 196.077 341.835 195.762C342.627 193.48 343.875 191.375 344.673 189.093C344.672 184.755 345.58 180.467 345.151 176.113C344.546 170.981 345.855 165.828 345.069 160.708C344.986 154.441 345.074 148.168 345.19 141.902C345.465 136.958 345.795 131.986 345.332 127.042C345.299 124.298 345.618 121.575 344.103 119.001C342.918 118.274 342.044 116.813 343.523 116.228C346.141 115.529 348.852 114.829 351.574 114.52C354.797 114.867 358.492 114.465 361.137 116.888C358.53 118.351 357.662 121.431 355.693 123.636C356.557 125.422 357.497 127.18 358.657 128.789C360.18 130.757 362.149 132.311 363.716 134.246C364.838 135.624 366.103 136.914 367.665 137.796C369.749 136.373 371.69 134.747 373.549 133.044C375.419 131.468 377.47 130.008 378.866 127.963C379.406 125.863 379.076 123.619 379.169 121.465C378.088 120.015 376.491 118.78 375.27 117.33C377.531 115.291 380.681 115.501 383.508 115.645C386.087 115.379 388.661 114.035 391.207 114.961C394.056 115.914 397.157 115.638 400 116.614C397.063 120.059 393.368 122.825 390.74 126.524ZM329.297 134.476C329.292 141.56 329.302 148.918 329.302 156.276C330.012 166.043 329.158 175.837 329.418 185.615C330.309 188.321 332.377 190.482 333.35 193.177C334.015 194.726 331.981 195.609 331.134 195.911C325.618 196.044 320.102 195.751 314.592 195.95C315.879 193.442 317.933 191.319 318.964 188.724C319.31 180.307 319.29 171.874 319.729 163.452C318.843 159.953 319.085 156.447 319.294 153.268C319.377 143.176 319.728 132.334 319.129 122.049C318.667 119.91 316.745 118.819 315.115 117.44C316.143 116.692 317.177 115.798 318.612 115.771C321.664 115.545 324.821 115.572 327.95 115.142C332.025 115.17 336.088 115.66 340.131 116.146C337.782 120.341 332.372 122.423 330.743 126.607C329.858 129.433 329.253 131.764 329.297 134.476ZM323.583 208.24C324.81 209.235 326.107 208.72 327.4 208.687C339.894 208.599 352.394 208.808 364.883 208.56C369.936 207.59 375.106 207.535 380.148 206.482C386.22 205.727 392.235 203.754 398.405 204.448C397.553 208.356 394.611 211.134 392.444 214.303C392.076 216.034 392.4 217.869 392.34 219.826C392.054 219.878 391.493 219.987 391.213 220.039C391.191 219.936 391.147 220.482 391.119 220.758C389.042 220.73 386.703 220.846 384.509 220.658C378.872 219.876 373.301 218.289 367.566 218.443C360.962 218.393 354.351 218.437 347.747 218.686C344.255 218.965 341.005 219.82 337.623 220.487C334.956 221.017 332.833 222.797 330.364 223.8C328.56 222.202 326.498 220.791 324.067 220.416C319.613 219.826 315.834 218.316 310.892 218.065C310.055 218.305 309.209 218.862 308.384 219.452C306.41 219.586 304.402 218.58 302.731 217.385C300.899 216.183 298.965 216.833 296.863 218.002C294.399 218.432 292.299 216.988 289.995 216.453C288.488 216.795 287.036 217.324 285.873 217.897C279.189 218.453 272.732 218.04 266.304 218.14C262.306 218.636 258.269 218.453 254.256 218.686C250.435 218.432 246.336 220.4 242.58 221.964C240.579 222.67 239.562 224.66 238.16 226.163C236.746 227.719 235.035 229.026 233.254 230.21C232.149 229.119 231.071 228 229.927 226.953C227.59 225.412 226.067 222.014 223.702 219.953C221.81 218.923 219.561 219.209 217.515 218.779C215.602 218.686 213.611 218.25 211.725 218.845C207.264 218.453 202.744 218.2 198.284 218.696C194.446 219.798 190.608 221.34 186.681 221.738C183.827 221.513 181.303 219.909 178.938 218.399C177.943 218.227 176.673 217.996 175.551 217.82C172.301 217.423 169.018 217.539 165.751 217.583C161.094 217.55 156.562 218.768 152.025 220.098C148.462 220.615 145.084 221.364 141.456 222.952C139.448 224.059 137.31 224.263 135.208 223.75C128.945 222.924 123.551 219.082 117.342 218.068C111.678 217.985 105.98 217.775 100.338 218.393C96.0659 218.68 91.7212 219.182 87.7285 220.83C86.0021 221.638 84.1932 222.058 82.3395 222.351C81.6608 219.242 80.2605 216.232 79.8704 213.02C79.6327 210.842 79.5404 208.795 79.5126 206.438C79.7988 204.404 80.4257 202.426 80.5523 200.365C81.3113 199.659 82.0255 198.904 82.9589 198.21C86.5958 200.076 90.8964 199.213 94.9653 201.307C96.6374 202.602 99.1782 202.859 101.587 203.391C105.513 204.41 109.599 204.531 113.547 205.468C121.155 207.05 128.456 207.494 135.94 208.116C141.522 208.218 147.087 208.747 152.674 208.703C158.613 210.44 164.327 207.604 170.524 206.174C173.263 207.277 176.326 210.032 179.972 208.874C187.066 208.687 193.968 206.303 201.1 206.51C201.87 206.989 202.64 207.646 203.624 207.535C205.637 207.563 207.671 208.167 209.679 207.618C212.511 207.023 213.979 209.1 216.305 208.819C222.864 208.532 227.919 205.75 234.457 206.003C237.679 207.138 240.337 208.775 243.834 208.88C251.341 209.238 258.842 208.456 266.348 208.847C269.818 208.77 273.576 207.783 276.747 208.797C282.187 206.919 287.687 205.221 293.239 203.705C296.23 203.363 298.859 205.148 302.181 205.529C305.408 206.763 309.192 207.1 312.959 207.651C312.992 207.91 313.064 208.428 313.097 208.687C313.13 208.461 313.19 208.504 313.223 207.8C316.644 208.251 320.13 208.428 323.583 208.24ZM282.846 149.623C289.659 145.997 295.642 140.871 302.841 137.966C304.584 140.932 307.103 143.385 308.499 146.565C309.572 149.682 311.166 151.448 311.92 154.138C312.283 155.306 310.682 155.851 309.869 155.378C306.185 155.235 302.065 152.027 297.754 152.683C292.843 153.168 289.038 156.362 284.704 158.619C281.311 160.708 278.142 163.139 274.526 164.896C274.58 168.071 274.332 171.235 274.19 174.399C274.124 177.976 274.327 181.553 274.327 185.13C280.668 181.189 287.267 177.656 293.476 173.49C296.302 171.549 299.436 170.105 302.582 168.766C304.463 171.566 306.75 174.107 308.336 177.182C309.401 179.833 311.372 182.38 311.826 185.114C308.923 186.894 305.711 185.053 302.874 184.1C298.985 182.363 294.554 183.51 290.913 185.382C286.393 187.974 281.916 190.724 277.457 193.491C278.2 194.93 278.265 195.366 278.573 196.574C277.721 196.909 276.873 197.493 276.048 198.105C270.555 198.334 265.055 197.945 259.562 198.143C260.849 194.935 264.352 192.577 263.978 188.823C263.961 179.811 264.539 170.777 263.885 161.783C264.495 149.651 264.456 137.482 264.176 125.334C264.231 122.936 262.218 121.409 260.491 120.125C259.397 119.601 261.111 118.803 261.547 118.257C265.347 117.838 269.18 117.942 272.963 117.678C277.011 117.419 281.037 118.075 285.083 118.312C283.137 121.442 279.964 123.437 277.385 125.973C277.039 126.607 276.686 127.235 276.357 127.87L276.173 127.996C276.334 128.15 275.966 128.459 275.983 128.607C282.796 124.562 289.813 120.831 296.308 116.273C298.199 114.873 300.36 113.847 302.626 113.23C304.584 116.319 306.986 118.703 308.395 121.84C309.577 124.408 310.936 126.899 311.942 129.55C311.376 129.98 311.262 130.415 310.265 130.862C306.316 130.521 302.818 128.035 298.832 127.786C295.626 127.985 292.42 128.949 289.73 130.73C284.902 133.855 280.14 136.489 275.372 139.894C274.91 139.758 274.102 140.296 274.245 140.767C274.069 145.468 274.289 150.175 274.338 154.877C276.912 152.738 280.041 151.426 282.846 149.623ZM247.271 138.639C247.376 147.458 247.046 156.288 247.574 165.089C247.858 172.866 246.996 180.655 247.431 188.426C248.541 191.33 250.836 193.81 251.665 196.738C250.836 197.366 249.85 198.22 248.762 198.59C243.383 198.865 237.989 198.444 233.133 198.7C233.677 196.071 235.938 194.109 236.883 191.452C237.213 183.229 237.252 175.309 237.224 166.759C236.889 163.651 236.735 160.521 237.01 157.406C232.093 160.294 227.023 162.94 222.349 166.225C219.214 168.319 215.745 169.846 212.911 171.963C212.346 176.108 212.489 180.269 212.44 184.419C211.933 188.657 216.091 191.407 216.767 195.332C216.018 196.148 214.87 197.118 213.567 197.184C208.59 197.382 203.882 196.897 198.609 197.179C198.576 193.921 202.381 192.097 202.228 188.818C202.636 180.682 202.53 172.546 202.436 164.423C201.832 160.603 202.464 156.767 202.617 153.268C202.568 143.374 203.165 133.794 202.453 124.231C202.502 121.47 199.818 120.147 198.12 118.466C200.616 116.493 203.949 117.066 206.907 116.769C212.329 116.168 218.375 116.582 223.179 117.518C220.814 121.828 215.112 123.427 213.753 128.426C211.922 133.088 212.544 138.143 212.445 143.032C212.511 148.908 212.258 154.81 212.825 160.669C215.942 159.875 218.268 157.941 221.079 156.089C226.627 153.272 232.061 150.202 237.323 146.89C237.526 139.692 237.466 132.499 237.213 125.305C237.071 122.958 234.871 121.745 233.364 120.291C233.067 119.403 234.106 119.237 234.662 118.879C236.322 118.174 238.181 118.334 239.947 118.284C242.712 118.351 245.451 117.716 248.222 117.926C251.528 118.251 254.855 118.235 258.121 118.896C256.092 121.966 252.798 123.801 250.329 126.779C247.744 129.886 247.14 134.433 247.271 138.639ZM195.463 190.405C190.508 189.192 186.302 184.915 181.056 186.133C176.508 186.756 172.84 189.683 169.199 192.24C164.778 195.2 160.082 197.735 155.748 200.827C154.852 194.748 156.93 188.779 156.766 182.705C156.755 175.176 157.282 167.625 156.645 160.544C157.228 148.212 157.255 135.79 156.919 123.156C156.81 120.55 154.385 119.094 152.595 117.705C152.712 117.435 153.075 116.896 153.257 116.625C155.506 115.815 157.931 116.162 160.269 115.969C166.081 115.143 172.064 115.484 178.261 117.27C176.024 118.758 174.126 120.643 171.993 122.231C168.444 125.041 167.043 130.25 166.944 134.792C167.054 143.963 166.642 153.151 167.274 162.306C167.324 167.945 167.198 173.572 167.093 179.211L167.637 179.194L167.577 180.484C170.601 178.918 173.334 176.88 176.199 175.049C179.323 172.878 182.705 171.574 185.895 169.047C188.006 172.574 190.937 175.551 192.862 179.205C194.589 182.589 196.585 185.824 198.053 189.341C197.212 189.6 196.376 190.19 195.463 190.405ZM149.721 194.875C144.425 195.266 139.113 195.497 133.865 195.431C132.927 195.497 132.179 195.551 131.486 194.61C133.399 192.406 135.676 189.716 134.994 186.574C132.844 179.431 130.655 172.299 128.357 165.206C121.274 168.804 114.125 171.698 107.508 175.595C105.986 179.613 105.241 183.675 103.556 187.731C103.426 190.102 105.073 191.981 105.904 193.822C105.211 194.643 104.331 195.266 103.884 195.922C97.7535 195.845 91.9744 196.231 86.2984 195.161C87.5691 192.912 90.3572 192.356 91.9575 190.427C92.7881 189.572 92.9419 188.349 93.321 187.472C95.5704 180.397 97.8251 173.328 100.086 166.311C100.558 164.434 100.52 162.824 101.037 161.331C101.675 158.839 102.995 156.607 103.814 154.182C106.283 146.432 108.736 138.672 111.286 130.922C111.755 129.252 111.782 127.428 111.568 125.703C110.834 123.703 109.839 122.086 107.817 120.208C110.061 118.351 113.372 118.912 116.171 118.455C121.725 117.76 127.285 118.466 132.8 119.127C130.952 121.547 129.083 124.43 129.522 127.627C129.907 130.118 129.116 132.725 130.1 135.122C132.948 142.42 134.521 149.894 137.326 157.064C139.812 166.187 142.998 175.154 145.696 184.176C146.004 185.643 147.087 186.712 147.961 187.858C149.452 190.405 151.998 190.62 153.923 192.119C153.274 193.861 151.47 194.88 149.721 194.875ZM120.026 138.672C119.832 137.906 119.657 137.14 119.486 136.368C119.382 137.292 119.167 137.713 119.057 138.159C116.346 145.771 113.954 153.515 112.345 161.325C111.755 161.557 111.491 162.136 111.353 162.245C116.077 160.156 121.051 158.244 125.387 155.664C123.776 149.949 122.071 144.25 120.026 138.672ZM96.7929 111.07C92.392 123.763 88.2838 136.412 84.3189 149.462C84.8692 150.682 83.8848 152.253 83.593 153.79C82.6965 157.56 80.695 160.922 79.3975 164.549C75.6411 176.41 71.8745 188.277 68.0911 200.127C66.6225 202.977 65.2642 205.882 64.2858 208.946C59.661 219.187 55.4538 229.681 52.8581 240.644C52.7154 241.752 51.8685 242.528 51.2136 243.361C49.0637 238.02 48.7608 232.156 46.1766 226.903C45.8156 224.749 44.934 222.478 44.5103 220.223C43.7348 217.17 42.7014 214.188 41.6286 211.449C40.2981 205.215 39.0664 199.179 37.867 193.68C35.1067 184.281 32.2198 175.468 29.4923 167.159C29.1016 164.913 28.3646 163.716 27.5012 161.854C26.9181 159.23 26.3302 156.431 25.2136 153.879C24.29 149.386 22.3543 145.39 21.2544 140.755C18.3836 131.992 15.8428 123.101 12.7524 114.42C10.7013 112.448 9.49144 110.143 6.87387 108.275C4.55342 107.112 2.61182 105.15 0 104.637C0.313242 103.011 2.36898 102.443 3.283 101.567C4.7955 100.459 6.70929 100.702 8.4631 100.654C12.0244 100.095 15.1064 100.404 18.4055 99.9466C22.2108 99.4954 26.0388 99.7757 30.2439 99.5667C31.5434 99.5777 33.5228 99.5667 34.8372 100.779C35.2001 102.854 33.2038 103.452 32.8919 104.797C30.729 107.217 30.1923 109.746 29.4591 112.497C32.9946 124.364 36.7341 136.67 40.3309 148.014C45.1922 163.579 49.7784 179.233 54.915 194.709C54.9259 194.456 54.9478 193.949 54.953 193.695C60.6941 176.151 65.9183 158.426 71.4288 140.805C74.8272 130.873 77.5547 120.99 80.5352 111.059C81.1126 107.614 78.7979 104.56 76.5872 102.184C77.2633 100.801 78.5537 99.4067 79.8539 99.0209C84.4175 98.8773 89.0373 99.5388 93.6455 99.0597C96.247 99.1712 98.7819 99.5498 101.378 99.5227C103.258 99.5115 105.105 100.31 106.931 100.311C107.126 101.793 105.133 102.416 104.044 103.221C100.932 105.112 97.0987 107.145 96.7927 111.07H96.7929Z" fill="white"/>
</svg>
