<svg width="214" height="46" viewBox="0 0 214 46" fill="none" xmlns="http://www.w3.org/2000/svg">
<path d="M38.5156 36.2188C37.7422 36.2188 37.0703 36.0469 36.5 35.7031C35.9375 35.3672 35.4805 34.9414 35.1289 34.4258C34.7539 33.8867 34.4805 33.293 34.3086 32.6445C34.1445 32.0039 34.0625 31.375 34.0625 30.7578V28.8477C34.0625 27.8086 33.8203 27.0625 33.3359 26.6094C32.8516 26.1562 32.1133 25.9297 31.1211 25.9297V23.5859C32.1133 23.5859 32.8516 23.3594 33.3359 22.9062C33.8203 22.4531 34.0625 21.6992 34.0625 20.6445V18.7344C34.0625 18.0703 34.1562 17.3867 34.3438 16.6836C34.5312 15.9727 34.8281 15.3555 35.2344 14.832C35.5703 14.3789 36.0117 14.0078 36.5586 13.7188C37.1055 13.4297 37.7578 13.2852 38.5156 13.2852L38.9141 15.125C38.4375 15.1094 38.0703 15.2109 37.8125 15.4297C37.5547 15.6406 37.3672 15.9219 37.25 16.2734C37.1328 16.625 37.0625 17.0195 37.0391 17.457C37.0234 17.8867 37.0156 18.3125 37.0156 18.7344V20.6445C37.0156 21.5742 36.7852 22.3984 36.3242 23.1172C35.8711 23.8359 35.1641 24.3828 34.2031 24.7578C35.1719 25.1328 35.8828 25.6758 36.3359 26.3867C36.7891 27.0977 37.0156 27.918 37.0156 28.8477V30.7578C37.0156 31.1797 37.0391 31.6055 37.0859 32.0352C37.1406 32.4727 37.2383 32.8672 37.3789 33.2188C37.5195 33.5703 37.7109 33.8516 37.9531 34.0625C38.2031 34.2812 38.5234 34.3828 38.9141 34.3672L38.5156 36.2188ZM44.2461 14H51.3359V29.3516H54.9688V32H44.2461V29.3516H48.043V16.6602H44.2461V14ZM57.5352 25.543C57.5352 24.6211 57.668 23.7695 57.9336 22.9883C58.1992 22.1992 58.5898 21.5156 59.1055 20.9375C59.6133 20.3594 60.2344 19.9062 60.9688 19.5781C61.7109 19.25 62.5586 19.0859 63.5117 19.0859C64.4648 19.0859 65.3125 19.25 66.0547 19.5781C66.7969 19.9062 67.4258 20.3594 67.9414 20.9375C68.4492 21.5156 68.8359 22.1992 69.1016 22.9883C69.3672 23.7695 69.5 24.6211 69.5 25.543V25.7891C69.5 26.7188 69.3672 27.5781 69.1016 28.3672C68.8359 29.1484 68.4492 29.8281 67.9414 30.4062C67.4336 30.9844 66.8086 31.4375 66.0664 31.7656C65.3242 32.0859 64.4805 32.2461 63.5352 32.2461C62.582 32.2461 61.7305 32.0859 60.9805 31.7656C60.2383 31.4375 59.6133 30.9844 59.1055 30.4062C58.5898 29.8281 58.1992 29.1484 57.9336 28.3672C57.668 27.5781 57.5352 26.7188 57.5352 25.7891V25.543ZM60.793 25.7891C60.793 26.3203 60.8438 26.8203 60.9453 27.2891C61.0469 27.75 61.207 28.1523 61.4258 28.4961C61.6445 28.8477 61.9258 29.125 62.2695 29.3281C62.6211 29.5312 63.043 29.6328 63.5352 29.6328C64.0117 29.6328 64.4219 29.5312 64.7656 29.3281C65.1094 29.125 65.3906 28.8477 65.6094 28.4961C65.8203 28.1523 65.9766 27.75 66.0781 27.2891C66.1797 26.8203 66.2305 26.3203 66.2305 25.7891V25.543C66.2305 25.0273 66.1797 24.5391 66.0781 24.0781C65.9766 23.6172 65.8203 23.2109 65.6094 22.8594C65.3906 22.5078 65.1094 22.2305 64.7656 22.0273C64.4219 21.8242 64.0039 21.7227 63.5117 21.7227C63.0273 21.7227 62.6133 21.8242 62.2695 22.0273C61.9258 22.2305 61.6445 22.5078 61.4258 22.8594C61.207 23.2109 61.0469 23.6172 60.9453 24.0781C60.8438 24.5391 60.793 25.0273 60.793 25.543V25.7891ZM78.0078 29.6328C78.3281 29.6328 78.6328 29.5859 78.9219 29.4922C79.2109 29.3984 79.4648 29.2656 79.6836 29.0938C79.9023 28.9219 80.0703 28.7148 80.1875 28.4727C80.3125 28.2305 80.3672 27.9609 80.3516 27.6641H83.4219C83.4375 28.3203 83.3008 28.9297 83.0117 29.4922C82.7305 30.0547 82.3438 30.5391 81.8516 30.9453C81.3594 31.3516 80.7852 31.6719 80.1289 31.9062C79.4805 32.1328 78.793 32.2461 78.0664 32.2461C77.082 32.2461 76.2188 32.082 75.4766 31.7539C74.7344 31.418 74.1172 30.9609 73.625 30.3828C73.125 29.8047 72.7461 29.1289 72.4883 28.3555C72.2383 27.5742 72.1133 26.7383 72.1133 25.8477V25.4961C72.1133 24.6055 72.2383 23.7734 72.4883 23C72.7383 22.2188 73.1133 21.5391 73.6133 20.9609C74.1133 20.3828 74.7305 19.9258 75.4648 19.5898C76.207 19.2539 77.0664 19.0859 78.043 19.0859C78.8242 19.0859 79.5469 19.2031 80.2109 19.4375C80.875 19.6719 81.4492 20 81.9336 20.4219C82.4102 20.8516 82.7812 21.3711 83.0469 21.9805C83.3125 22.582 83.4375 23.2578 83.4219 24.0078H80.3516C80.3672 23.6953 80.3203 23.3984 80.2109 23.1172C80.1016 22.8359 79.9414 22.5938 79.7305 22.3906C79.5195 22.1875 79.2656 22.0273 78.9688 21.9102C78.6719 21.7852 78.3477 21.7227 77.9961 21.7227C77.4805 21.7227 77.0547 21.8281 76.7188 22.0391C76.3828 22.25 76.1172 22.5312 75.9219 22.8828C75.7188 23.2344 75.5742 23.6367 75.4883 24.0898C75.4102 24.543 75.3711 25.0117 75.3711 25.4961V25.8477C75.3711 26.3398 75.4102 26.8164 75.4883 27.2773C75.5664 27.7305 75.707 28.1289 75.9102 28.4727C76.1055 28.8242 76.3711 29.1055 76.707 29.3164C77.0508 29.5273 77.4844 29.6328 78.0078 29.6328ZM94.7305 32C94.6523 31.8438 94.5859 31.6641 94.5312 31.4609C94.4766 31.2578 94.4297 31.043 94.3906 30.8164C94.2109 31.0117 94.0039 31.1953 93.7695 31.3672C93.5352 31.5391 93.2773 31.6875 92.9961 31.8125C92.707 31.9453 92.3906 32.0469 92.0469 32.1172C91.7031 32.1953 91.332 32.2344 90.9336 32.2344C90.2852 32.2344 89.6875 32.1406 89.1406 31.9531C88.6016 31.7656 88.1367 31.5039 87.7461 31.168C87.3555 30.832 87.0508 30.4336 86.832 29.9727C86.6133 29.5039 86.5039 28.9961 86.5039 28.4492C86.5039 27.7461 86.6406 27.125 86.9141 26.5859C87.1875 26.0391 87.5977 25.5898 88.1445 25.2383C88.6367 24.918 89.2422 24.6758 89.9609 24.5117C90.6875 24.3398 91.5195 24.2539 92.457 24.2539H94.2734V23.5039C94.2734 23.207 94.2266 22.9414 94.1328 22.707C94.0391 22.4648 93.8984 22.2578 93.7109 22.0859C93.5156 21.9062 93.2695 21.7695 92.9727 21.6758C92.6836 21.5742 92.3438 21.5234 91.9531 21.5234C91.6094 21.5234 91.3125 21.5664 91.0625 21.6523C90.8125 21.7305 90.6094 21.8438 90.4531 21.9922C90.3125 22.125 90.207 22.2852 90.1367 22.4727C90.0742 22.6602 90.043 22.8672 90.043 23.0938H86.7852C86.7852 22.5547 86.9023 22.043 87.1367 21.5586C87.3789 21.0742 87.7305 20.6484 88.1914 20.2812C88.6445 19.9141 89.1992 19.625 89.8555 19.4141C90.5195 19.1953 91.2773 19.0859 92.1289 19.0859C92.8945 19.0859 93.6055 19.1797 94.2617 19.3672C94.9258 19.5547 95.5 19.832 95.9844 20.1992C96.4688 20.5664 96.8477 21.0312 97.1211 21.5938C97.3945 22.1484 97.5312 22.793 97.5312 23.5273V28.9648C97.5312 29.6445 97.5742 30.207 97.6602 30.6523C97.7461 31.0977 97.8711 31.4805 98.0352 31.8008V32H94.7305ZM91.625 29.7148C91.9531 29.7148 92.2578 29.6758 92.5391 29.5977C92.8203 29.5195 93.0742 29.418 93.3008 29.293C93.5273 29.168 93.7227 29.0273 93.8867 28.8711C94.0508 28.707 94.1797 28.543 94.2734 28.3789V26.1992H92.6094C92.1016 26.1992 91.668 26.25 91.3086 26.3516C90.9492 26.4453 90.6562 26.5781 90.4297 26.75C90.2031 26.9297 90.0352 27.1445 89.9258 27.3945C89.8164 27.6367 89.7617 27.9023 89.7617 28.1914C89.7617 28.418 89.8008 28.6289 89.8789 28.8242C89.9648 29.0117 90.0859 29.1719 90.2422 29.3047C90.3984 29.4297 90.5898 29.5312 90.8164 29.6094C91.0508 29.6797 91.3203 29.7148 91.625 29.7148ZM101.902 14H108.992V29.3516H112.625V32H101.902V29.3516H105.699V16.6602H101.902V14ZM118.895 21.0664C119.059 20.8242 119.238 20.6016 119.434 20.3984C119.637 20.1875 119.848 20.0039 120.066 19.8477C120.402 19.6055 120.773 19.418 121.18 19.2852C121.586 19.1523 122.016 19.0859 122.469 19.0859C123.133 19.0859 123.742 19.1875 124.297 19.3906C124.852 19.5859 125.328 19.8945 125.727 20.3164C126.125 20.7383 126.434 21.2812 126.652 21.9453C126.879 22.6016 126.992 23.3945 126.992 24.3242V32H123.734V24.3008C123.734 23.8477 123.676 23.457 123.559 23.1289C123.449 22.8008 123.289 22.5352 123.078 22.332C122.867 22.1289 122.613 21.9805 122.316 21.8867C122.02 21.7852 121.684 21.7344 121.309 21.7344C121.02 21.7344 120.75 21.7617 120.5 21.8164C120.25 21.8711 120.023 21.9531 119.82 22.0625C119.633 22.1562 119.461 22.2695 119.305 22.4023C119.156 22.5352 119.02 22.6836 118.895 22.8477V32H115.637V14H118.895V21.0664ZM129.605 25.543C129.605 24.6211 129.738 23.7695 130.004 22.9883C130.27 22.1992 130.66 21.5156 131.176 20.9375C131.684 20.3594 132.305 19.9062 133.039 19.5781C133.781 19.25 134.629 19.0859 135.582 19.0859C136.535 19.0859 137.383 19.25 138.125 19.5781C138.867 19.9062 139.496 20.3594 140.012 20.9375C140.52 21.5156 140.906 22.1992 141.172 22.9883C141.438 23.7695 141.57 24.6211 141.57 25.543V25.7891C141.57 26.7188 141.438 27.5781 141.172 28.3672C140.906 29.1484 140.52 29.8281 140.012 30.4062C139.504 30.9844 138.879 31.4375 138.137 31.7656C137.395 32.0859 136.551 32.2461 135.605 32.2461C134.652 32.2461 133.801 32.0859 133.051 31.7656C132.309 31.4375 131.684 30.9844 131.176 30.4062C130.66 29.8281 130.27 29.1484 130.004 28.3672C129.738 27.5781 129.605 26.7188 129.605 25.7891V25.543ZM132.863 25.7891C132.863 26.3203 132.914 26.8203 133.016 27.2891C133.117 27.75 133.277 28.1523 133.496 28.4961C133.715 28.8477 133.996 29.125 134.34 29.3281C134.691 29.5312 135.113 29.6328 135.605 29.6328C136.082 29.6328 136.492 29.5312 136.836 29.3281C137.18 29.125 137.461 28.8477 137.68 28.4961C137.891 28.1523 138.047 27.75 138.148 27.2891C138.25 26.8203 138.301 26.3203 138.301 25.7891V25.543C138.301 25.0273 138.25 24.5391 138.148 24.0781C138.047 23.6172 137.891 23.2109 137.68 22.8594C137.461 22.5078 137.18 22.2305 136.836 22.0273C136.492 21.8242 136.074 21.7227 135.582 21.7227C135.098 21.7227 134.684 21.8242 134.34 22.0273C133.996 22.2305 133.715 22.5078 133.496 22.8594C133.277 23.2109 133.117 23.6172 133.016 24.0781C132.914 24.5391 132.863 25.0273 132.863 25.543V25.7891ZM152.645 28.5195C152.645 28.3242 152.598 28.1523 152.504 28.0039C152.418 27.8555 152.262 27.7148 152.035 27.582C151.801 27.457 151.492 27.3398 151.109 27.2305C150.727 27.1211 150.242 27.0117 149.656 26.9023C148.914 26.7539 148.234 26.5703 147.617 26.3516C147.008 26.125 146.484 25.8516 146.047 25.5312C145.609 25.2188 145.266 24.8555 145.016 24.4414C144.773 24.0273 144.652 23.5508 144.652 23.0117C144.652 22.4883 144.777 21.9883 145.027 21.5117C145.277 21.0352 145.637 20.6172 146.105 20.2578C146.574 19.8984 147.145 19.6133 147.816 19.4023C148.488 19.1914 149.246 19.0859 150.09 19.0859C150.973 19.0859 151.766 19.1914 152.469 19.4023C153.172 19.6055 153.77 19.8867 154.262 20.2461C154.746 20.6133 155.117 21.0469 155.375 21.5469C155.633 22.0469 155.762 22.5898 155.762 23.1758H152.504C152.504 22.9648 152.469 22.7695 152.398 22.5898C152.328 22.4023 152.223 22.2344 152.082 22.0859C151.887 21.8906 151.621 21.7344 151.285 21.6172C150.957 21.5 150.559 21.4414 150.09 21.4414C149.691 21.4414 149.344 21.4805 149.047 21.5586C148.75 21.6367 148.508 21.7461 148.32 21.8867C148.148 22.0117 148.016 22.1602 147.922 22.332C147.836 22.4961 147.793 22.6719 147.793 22.8594C147.793 23.0469 147.832 23.2227 147.91 23.3867C147.988 23.543 148.129 23.6836 148.332 23.8086C148.527 23.9414 148.797 24.0625 149.141 24.1719C149.484 24.2734 149.922 24.3633 150.453 24.4414C151.219 24.5664 151.93 24.7266 152.586 24.9219C153.242 25.1172 153.809 25.3672 154.285 25.6719C154.762 25.9844 155.133 26.3633 155.398 26.8086C155.672 27.2461 155.809 27.7695 155.809 28.3789C155.809 28.9414 155.672 29.4609 155.398 29.9375C155.133 30.4062 154.754 30.8125 154.262 31.1562C153.762 31.5 153.16 31.7695 152.457 31.9648C151.754 32.1523 150.969 32.2461 150.102 32.2461C149.148 32.2461 148.305 32.1211 147.57 31.8711C146.844 31.6211 146.234 31.293 145.742 30.8867C145.25 30.4883 144.875 30.0352 144.617 29.5273C144.367 29.0117 144.242 28.4961 144.242 27.9805H147.348C147.371 28.3242 147.465 28.6211 147.629 28.8711C147.793 29.1133 148.004 29.3086 148.262 29.457C148.52 29.6133 148.812 29.7266 149.141 29.7969C149.477 29.8672 149.82 29.9023 150.172 29.9023C150.594 29.9023 150.961 29.8672 151.273 29.7969C151.594 29.7188 151.855 29.6172 152.059 29.4922C152.254 29.3672 152.398 29.2227 152.492 29.0586C152.594 28.8945 152.645 28.7148 152.645 28.5195ZM164.855 16.2148V19.3203H169.59V21.7227H164.855V27.1719C164.855 27.6328 164.906 28.0195 165.008 28.332C165.117 28.6367 165.27 28.8789 165.465 29.0586C165.66 29.2461 165.895 29.3789 166.168 29.457C166.449 29.5352 166.762 29.5742 167.105 29.5742C167.355 29.5742 167.609 29.5625 167.867 29.5391C168.133 29.5156 168.387 29.4844 168.629 29.4453C168.863 29.4141 169.082 29.3789 169.285 29.3398C169.496 29.3008 169.676 29.2617 169.824 29.2227L170.141 31.4609C169.914 31.5938 169.648 31.7109 169.344 31.8125C169.039 31.9062 168.715 31.9844 168.371 32.0469C168.027 32.1094 167.668 32.1562 167.293 32.1875C166.926 32.2266 166.562 32.2461 166.203 32.2461C165.508 32.2461 164.875 32.1562 164.305 31.9766C163.742 31.7891 163.262 31.5 162.863 31.1094C162.457 30.7266 162.145 30.2383 161.926 29.6445C161.707 29.043 161.598 28.3242 161.598 27.4883V21.7227H158.703V19.3203H161.598V16.2148H164.855ZM175.531 34.3672C175.914 34.3828 176.227 34.2812 176.469 34.0625C176.719 33.8516 176.914 33.5703 177.055 33.2188C177.195 32.8672 177.293 32.4727 177.348 32.0352C177.402 31.6055 177.43 31.1797 177.43 30.7578V28.8477C177.43 28.3945 177.48 27.9648 177.582 27.5586C177.691 27.1523 177.855 26.7734 178.074 26.4219C178.293 26.0703 178.566 25.7578 178.895 25.4844C179.23 25.2031 179.629 24.9648 180.09 24.7695C179.715 24.6133 179.383 24.4258 179.094 24.207C178.805 23.9883 178.555 23.7461 178.344 23.4805C178.031 23.0898 177.801 22.6562 177.652 22.1797C177.504 21.6953 177.43 21.1836 177.43 20.6445V18.7344C177.43 18.3125 177.418 17.8867 177.395 17.457C177.379 17.0195 177.312 16.625 177.195 16.2734C177.078 15.9219 176.891 15.6406 176.633 15.4297C176.375 15.2109 176.008 15.1094 175.531 15.125L175.93 13.2852C176.766 13.2852 177.469 13.457 178.039 13.8008C178.609 14.1367 179.074 14.5898 179.434 15.1602C179.777 15.6758 180.02 16.2539 180.16 16.8945C180.309 17.5273 180.383 18.1406 180.383 18.7344V20.6445C180.383 21.082 180.422 21.4688 180.5 21.8047C180.586 22.1406 180.715 22.4258 180.887 22.6602C181.113 22.9805 181.43 23.2148 181.836 23.3633C182.25 23.5117 182.746 23.5859 183.324 23.5859V25.9297C182.676 25.9297 182.137 26.0234 181.707 26.2109C181.277 26.3906 180.953 26.6836 180.734 27.0898C180.617 27.3086 180.527 27.5664 180.465 27.8633C180.41 28.1523 180.383 28.4805 180.383 28.8477V30.7578C180.383 31.3672 180.293 32 180.113 32.6562C179.934 33.3125 179.668 33.8984 179.316 34.4141C178.965 34.9531 178.504 35.3867 177.934 35.7148C177.371 36.0508 176.703 36.2188 175.93 36.2188L175.531 34.3672Z" fill="#737373"/>
</svg>
