<svg height="100%" viewBox="0 0 2086 751" xml:space="preserve" fill-rule="evenodd" clip-rule="evenodd" stroke-linejoin="round" stroke-miterlimit="2" xmlns="http://www.w3.org/2000/svg">   <path d="M2037.013 143.161c-10.61 22.05-11.155 47.565-9.09 71.532.487 15.249-1 30.531.201 46.632-3.326 31.747 4.071 65.259-4.875 97.37 3.364.4 3.326 1.232 6.023 1.63-4.787 5.363-3.383 11.612-3.899 17.491 2.694 7.94 3.38 16.397 1.947 24.683 4.07 15.68 1.033 32.08 5.757 47.933 3.418 16.198 14.027 30.161 18.7 46.703-5.306 3.926-10.983 8.572-18.006 7.912-25.458.115-50.973.973-76.313-1.235 3.869-15.337 19.407-26.057 19.121-42.687.89-31.535 0-63.127 1.202-94.662 4.189-32.222-1.202-64.734 1.091-97.044-3.27-20.094 3.327-40.05.428-60.174-13.044 13.788-28.094 25.373-40.06 37.643-10.078 9.63-16.788 20.094-25.502 28.868-10.293-13.99-19.552-28.899-32.539-40.653-9.606-13.559-22.306-24.367-34.747-34.114-5.677 19.693-4.99 41.282-6.65 62.582-.057 18.023 2.263 36.811 1.633 51.29 1.317 12.413-4.96 24.568-1.548 36.895 4.1 17.171 5.707 35.006 3.814 52.548-5.65 24.225-.95 49.084 1.92 73.336 3.383 4.758 6.68 9.576 11.565 14.162-.815 3.44.647 8.942-2.963 9.373-18.838 7.657-37.643 1.522-54.713 2.408-6.38-.317-12.115 1.35-17.448-.286 4.128-11.869 10.636-22.818 14.795-34.69-.007-22.563 4.73-44.865 2.491-67.512-3.151-26.693 3.67-53.498-.427-80.127-.431-32.6.026-65.225.63-97.818 1.433-25.717 3.154-51.575.743-77.292-.171-14.276 1.492-28.438-6.407-41.828-6.179-3.781-10.734-11.377-3.024-14.42 13.647-3.637 27.781-7.28 41.973-8.886 16.798 1.804 36.064-.286 49.852 12.32-13.59 7.606-18.118 23.629-28.38 35.097 4.501 9.29 9.403 18.434 15.45 26.804 7.943 10.236 18.206 18.32 26.377 28.384 5.849 7.168 12.441 13.875 20.583 18.461 10.865-7.397 20.986-15.855 30.676-24.713 9.748-8.199 20.441-15.795 27.72-26.431 2.812-10.923 1.091-22.593 1.58-33.798-5.637-7.542-13.963-13.963-20.327-21.505 11.785-10.606 28.209-9.518 42.946-8.764 13.444-1.384 26.862-8.377 40.134-3.562 14.852 4.96 31.02 3.525 45.842 8.602-15.31 17.916-34.572 32.306-48.276 51.542ZM1716.7 184.524c-.03 36.845.027 75.121.027 113.39 3.7 50.801-.751 101.747.602 152.605 4.647 14.074 15.425 25.313 20.499 39.333 3.468 8.054-7.138 12.65-11.552 14.219-28.758.69-57.512-.832-86.236.202 6.707-13.044 17.418-24.084 22.792-37.586 1.804-43.777 1.696-87.639 3.986-131.446-4.616-18.202-3.357-36.438-2.266-52.973.431-52.491 2.263-108.888-.862-162.383-2.407-11.124-12.427-16.801-20.926-23.97 5.36-3.895 10.751-8.541 18.23-8.683 15.912-1.178 32.37-1.034 48.682-3.27 21.243.146 42.428 2.694 63.502 5.22-12.243 21.818-40.451 32.65-48.94 54.413-4.616 14.7-7.767 26.822-7.538 40.93Zm-29.788 383.678c6.394 5.175 13.158 2.495 19.896 2.323 65.134-.458 130.298.63 195.406-.66 26.346-5.047 53.296-5.333 79.582-10.808 31.653-3.93 63.013-14.192 95.18-10.579-4.444 20.327-19.78 34.774-31.076 51.259-1.92 9.003-.23 18.549-.546 28.724-1.491.27-4.414.841-5.875 1.11-.115-.535-.344 2.304-.488 3.738-10.829-.145-23.02.461-34.458-.518-29.387-4.068-58.43-12.324-88.33-11.522-34.43-.26-68.891-.03-103.322 1.266-18.205 1.448-35.145 5.899-52.777 9.367-13.903 2.757-24.97 12.013-37.842 17.232-9.404-8.313-20.155-15.653-32.828-17.603-23.222-3.067-42.919-10.922-68.686-12.228-4.36 1.249-8.775 4.144-13.074 7.212-10.293.7-20.758-4.532-29.472-10.751-9.548-6.25-19.632-2.869-30.589 3.209-12.845 2.239-23.794-5.273-35.807-8.054-7.856 1.777-15.424 4.528-21.485 7.511-34.848 2.893-68.508.745-102.02 1.263-20.841 2.58-41.885 1.63-62.81 2.842-19.916-1.323-41.286 8.912-60.865 17.05-10.435 3.67-15.738 14.02-23.047 21.838-7.37 8.095-16.287 14.89-25.576 21.05-5.76-5.673-11.38-11.494-17.343-16.942-12.185-8.013-20.125-25.687-32.451-36.407-9.862-5.36-21.59-3.872-32.253-6.108-9.976-.481-20.356-2.75-30.188.344-23.252-2.037-46.818-3.354-70.067-.775-20.01 5.734-40.02 13.754-60.49 15.825-14.88-1.172-28.038-9.515-40.368-17.37-5.185-.896-11.808-2.094-17.656-3.01-16.946-2.064-34.06-1.461-51.09-1.233-24.28-.175-47.903 6.162-71.556 13.078-18.575 2.69-36.188 6.586-55.1 14.845-10.465 5.76-21.616 6.821-32.57 4.155-32.652-4.297-60.773-24.283-93.143-29.556-29.525-.43-59.229-1.522-88.643 1.69-22.272 1.492-44.922 4.102-65.737 12.674-9 4.205-18.43 6.39-28.094 7.912-3.538-16.171-10.838-31.824-12.872-48.535-1.239-11.326-1.72-21.973-1.865-34.232 1.492-10.579 4.76-20.872 5.42-31.592 3.957-3.67 7.68-7.596 12.546-11.209 18.96 9.707 41.38 5.219 62.592 16.111 8.717 6.737 21.963 8.074 34.519 10.838 20.467 5.303 41.77 5.933 62.353 10.805 39.66 8.229 77.723 10.539 116.74 13.771 29.097.535 58.11 3.286 87.238 3.057 30.96 9.034 60.747-5.717 93.053-13.158 14.28 5.737 30.25 20.07 49.256 14.047 36.983-.973 72.962-13.374 110.144-12.296 4.013 2.491 8.027 5.906 13.158 5.33 10.495.145 21.1 3.29 31.565.43 14.765-3.093 22.421 7.711 34.546 6.25 34.191-1.492 60.548-15.966 94.629-14.65 16.8 5.906 30.653 14.421 48.885 14.966 39.134 1.862 78.238-2.205 117.37-.171 18.09-.401 37.683-5.536 54.211-.26a1371.9 1371.9 0 0 1 85.976-26.488c15.596-1.777 29.303 7.509 46.62 9.489 16.824 6.417 36.551 8.171 56.187 11.037.172 1.346.546 4.043.718 5.39.171-1.175.488-.953.656-4.613 17.835 2.347 36.01 3.266 54.013 2.29Zm-212.375-304.89c35.521-18.862 66.713-45.525 104.238-60.633 9.087 15.424 22.219 28.182 29.501 44.724 5.59 16.212 13.903 25.397 17.832 39.39 1.892 6.077-6.451 8.91-10.694 6.448-19.202-.74-40.68-17.428-63.157-14.017-25.6 2.525-45.438 19.138-68.03 30.875-17.69 10.869-34.209 23.515-53.064 32.653.286 16.515-1.007 32.97-1.75 49.428-.344 18.605.716 37.208.716 55.814 33.054-20.495 67.458-38.872 99.825-60.545 14.734-10.094 31.074-17.603 47.474-24.569 9.805 14.562 21.73 27.778 29.997 43.774 5.552 13.791 15.824 27.037 18.195 41.256-15.138 9.262-31.879-.317-46.673-5.273-20.27-9.034-43.374-3.07-62.354 6.667-23.565 13.484-46.902 27.787-70.15 42.181 3.878 7.482 4.212 9.751 5.818 16.034-4.441 1.744-8.859 4.78-13.159 7.963-28.64 1.195-57.309-.832-85.948.198 6.71-16.683 24.97-28.952 23.02-48.477-.085-46.872 2.926-93.862-.485-140.646 3.182-63.1 2.98-126.4 1.518-189.584.286-12.472-10.205-20.414-19.208-27.095-5.704-2.727 3.232-6.878 5.505-9.717 19.811-2.178 39.79-1.636 59.514-3.01 21.101-1.347 42.088 2.064 63.185 3.297-10.148 16.282-26.687 26.66-40.134 39.848-1.805 3.3-3.643 6.565-5.36 9.865l-.96.66c.842.801-1.078 2.404-.99 3.178 35.518-21.04 72.1-40.447 105.959-64.157 9.862-7.283 21.128-12.617 32.939-15.825 10.205 16.064 22.73 28.464 30.074 44.78 6.161 13.357 13.246 26.317 18.491 40.105-2.952 2.235-3.545 4.501-8.744 6.825-20.582-1.775-38.818-14.707-59.602-16-16.714 1.033-33.427 6.05-47.447 15.31-25.172 16.255-49.997 29.959-74.852 47.669-2.41-.71-6.623 2.088-5.879 4.539-.915 24.454.23 48.935.489 73.39 13.417-11.125 29.727-17.946 44.35-27.323Zm-185.457-57.135c.545 45.869-1.175 91.798 1.576 137.579 1.485 40.45-3.01 80.962-.744 121.383 5.79 15.107 17.75 28.003 22.073 43.232-4.323 3.269-9.46 7.71-15.134 9.633-28.04 1.434-56.161-.755-81.478.572 2.839-13.673 14.623-23.879 19.552-37.697 1.72-42.774 1.92-83.966 1.778-128.437-1.747-16.168-2.552-32.45-1.118-48.65-25.63 15.021-52.063 28.785-76.43 45.873-16.343 10.892-34.43 18.831-49.202 29.845-2.946 21.558-2.202 43.201-2.458 64.787-2.64 22.044 19.034 36.35 22.56 56.764-3.907 4.242-9.89 9.29-16.684 9.633-25.946 1.03-50.488-1.492-77.98-.027-.171-16.946 19.667-26.434 18.866-43.491 2.128-42.317 1.575-84.633 1.087-126.888-3.151-19.869.145-39.822.946-58.02-.256-51.464 2.855-101.289-.858-151.03.256-14.363-13.734-21.245-22.59-29.99 13.014-10.262 30.388-7.279 45.812-8.827 28.266-3.125 59.784-.973 84.83 3.899-12.329 22.417-42.056 30.733-49.14 56.733-9.546 24.253-6.307 50.542-6.822 75.973.344 30.562-.973 61.265 1.98 91.74 16.252-4.131 28.38-14.189 43.03-23.825 28.926-14.65 57.252-30.62 84.686-47.848 1.06-37.44.744-74.851-.572-112.269-.744-12.208-12.212-18.518-20.067-26.084-1.55-4.616 3.868-5.478 6.764-7.34 8.657-3.67 18.347-2.838 27.552-3.097 14.417.347 28.697-2.953 43.144-1.862 17.23 1.69 34.576 1.606 51.603 5.044-10.576 15.97-27.75 25.515-40.623 41.006-13.474 16.158-16.626 39.811-15.94 61.686Zm-270.086 269.254c-25.831-6.306-47.76-28.552-75.11-22.218-23.71 3.239-42.832 18.464-61.811 31.764-23.05 15.397-47.532 28.582-70.124 44.666-4.67-31.62 6.164-62.67 5.306-94.262-.057-39.161 2.693-78.437-.63-115.268 3.037-64.141 3.182-128.754 1.431-194.467-.572-13.559-13.215-21.128-22.545-28.353.613-1.404 2.505-4.212 3.451-5.62 11.727-4.212 24.37-2.407 36.555-3.41 30.3-4.3 61.492-2.522 93.798 6.767-11.663 7.74-21.556 17.542-32.677 25.801-18.501 14.62-25.804 41.71-26.32 65.336.573 47.704-1.575 95.495 1.721 143.11.26 29.33-.4 58.6-.946 87.93l2.838-.088-.316 6.71c15.767-8.145 30.016-18.747 44.952-28.269 16.286-11.293 33.916-18.074 50.545-31.219 11.007 18.347 26.286 33.828 36.323 52.835 9 17.603 19.408 34.43 27.06 52.724-4.386 1.346-8.74 4.414-13.5 5.531Zm-238.466 23.253c-27.606 2.033-55.3 3.235-82.66 2.892-4.892.343-8.79.623-12.403-4.27 9.976-11.467 21.845-25.457 18.289-41.8-11.209-37.155-22.62-74.249-34.602-111.144-36.926 18.713-74.195 33.77-108.69 54.036-7.933 20.9-11.818 42.03-20.602 63.128-.677 12.33 7.909 22.104 12.239 31.68-3.613 4.272-8.2 7.511-10.526 10.922-31.962-.4-62.09 1.606-91.68-3.956 6.624-11.697 21.159-14.592 29.502-24.626 4.33-4.444 5.132-10.808 7.108-15.367 11.727-36.801 23.481-73.568 35.266-110.067 2.464-9.764 2.262-18.137 4.96-25.905 3.323-12.96 10.205-24.569 14.474-37.185 12.875-40.31 25.66-80.673 38.956-120.982 2.444-8.687 2.586-18.175 1.468-27.148-3.825-10.404-9.01-18.812-19.552-28.583 11.697-9.656 28.956-6.737 43.548-9.117 28.956-3.613 57.94.057 86.693 3.498-9.633 12.586-19.38 27.579-17.087 44.208 2.007 12.957-2.121 26.519 3.01 38.987 14.848 37.959 23.05 76.834 37.67 114.13 12.96 47.448 29.569 94.09 43.636 141.02 1.606 7.626 7.252 13.188 11.811 19.15 7.768 13.246 21.044 14.364 31.077 22.162-3.383 9.064-12.787 14.364-21.905 14.337ZM625.72 206.349c-1.007-3.986-1.923-7.97-2.812-11.983-.545 4.805-1.663 6.993-2.235 9.316-14.135 39.593-26.606 79.869-34.993 120.495-3.078 1.205-4.455 4.218-5.172 4.787 24.626-10.868 50.559-20.814 73.161-34.232-8.397-29.727-17.286-59.37-27.95-88.383ZM504.603 62.778c-22.943 66.023-44.36 131.817-65.03 199.692 2.869 6.347-2.263 14.518-3.784 22.515-4.674 19.61-15.108 37.097-21.872 55.963-19.583 61.693-39.219 123.416-58.943 185.055-7.656 14.822-14.737 29.93-19.838 45.869-24.11 53.265-46.043 107.851-59.575 164.874-.744 5.761-5.159 9.801-8.573 14.131-11.208-27.78-12.787-58.282-26.259-85.602-1.882-11.208-6.478-23.02-8.687-34.747-4.043-15.882-9.43-31.39-15.023-45.636-6.936-32.427-13.357-63.821-19.61-92.424-14.39-48.888-29.44-94.73-43.659-137.945-2.037-11.683-5.879-17.912-10.38-27.596-3.04-13.646-6.105-28.208-11.926-41.48-4.815-23.368-14.906-44.155-20.64-68.263-14.966-45.582-28.212-91.824-44.323-136.979-10.693-10.259-17-22.245-30.646-31.963C23.738 42.192 13.616 31.987 0 29.32c1.633-8.458 12.35-11.41 17.115-15.97C25 7.59 34.977 8.852 44.12 8.6c18.566-2.903 34.633-1.297 51.832-3.677 19.838-2.347 39.794-.889 61.716-1.976 6.775.057 17.094 0 23.946 6.306 1.892 10.794-8.515 13.902-10.141 20.899-11.276 12.589-14.074 25.744-17.896 40.05 18.431 61.723 37.926 125.736 56.677 184.74 25.343 80.958 49.252 162.379 76.03 242.88.057-1.32.171-3.956.198-5.276 29.93-91.252 57.165-183.45 85.892-275.103 17.717-51.66 31.936-103.063 47.474-154.722 3.01-17.916-9.057-33.802-20.582-46.158 3.525-7.196 10.252-14.448 17.03-16.455 23.791-.747 47.875 2.694 71.899.202 13.562.58 26.777 2.549 40.31 2.408 9.804-.058 19.433 4.097 28.952 4.1 1.017 7.71-9.374 10.95-15.05 15.135-16.226 9.835-36.21 20.41-37.805 40.825Z" fill="#FFFFFF"></path> </svg>