<svg width="100" height="100" viewBox="0 0 100 100" fill="none" xmlns="http://www.w3.org/2000/svg">
<path d="M21.4694 56.4705C27.4513 56.4705 32.3005 51.6211 32.3005 45.6394C32.3005 39.6575 27.4513 34.8083 21.4694 34.8083C15.4876 34.8083 10.6384 39.6575 10.6384 45.6394C10.6384 51.6211 15.4876 56.4705 21.4694 56.4705Z" fill="#E95420"/>
<path d="M66.5845 32.7192C72.5662 32.7192 77.4155 27.8699 77.4155 21.8881C77.4155 15.9063 72.5662 11.057 66.5845 11.057C60.6027 11.057 55.7534 15.9063 55.7534 21.8881C55.7534 27.8699 60.6027 32.7192 66.5845 32.7192Z" fill="#E95420"/>
<path d="M45.9005 73.5192C38.0995 71.8487 31.5751 66.8622 27.9109 59.799C25.0218 61.1129 21.7762 61.515 18.6508 60.9388C23.086 71.8321 32.4953 79.7451 44.0394 82.2197C46.572 82.7627 49.1586 83.028 51.7326 83.0114C49.743 80.3958 48.6363 77.2414 48.5617 73.9544C47.6705 73.8549 46.7793 73.7098 45.9047 73.5233L45.9005 73.5192Z" fill="#E95420"/>
<path d="M64.143 84.4124C70.1248 84.4124 74.9741 79.5631 74.9741 73.5813C74.9741 67.5996 70.1248 62.7502 64.143 62.7502C58.1612 62.7502 53.3119 67.5996 53.3119 73.5813C53.3119 79.5631 58.1612 84.4124 64.143 84.4124Z" fill="#E95420"/>
<path d="M79.2145 69.6021C82.5845 65.3575 84.9554 60.3378 86.0995 54.999C88.0933 45.6974 86.2321 35.9358 80.9927 28.0187C79.7451 30.9575 77.6269 33.4446 74.8995 35.1524C77.8218 40.6612 78.713 47.0197 77.4031 53.1378C76.7606 56.1306 75.629 58.9534 74.0332 61.5316C76.5824 63.6208 78.3813 66.4353 79.2187 69.6021H79.2145Z" fill="#E95420"/>
<path d="M20.6321 30.1077C20.9057 30.0912 21.1834 30.087 21.457 30.087C22.5513 30.087 23.6456 30.2031 24.7274 30.4352C26.4933 30.8124 28.1554 31.4839 29.6725 32.4248C34.5513 25.4114 42.4186 21.2 50.9451 21.0466C50.9907 20.23 51.0984 19.4093 51.2725 18.6093C51.7699 16.2881 52.7855 14.1202 54.2321 12.2632C40.6114 11.1855 27.372 18.2155 20.6321 30.1077Z" fill="#E95420"/>
</svg>
